<?xml version="1.0" encoding="UTF-8"?><svg id="a" xmlns="http://www.w3.org/2000/svg" viewBox="0 0 520.6 101.77"><defs><style>.b{opacity:.3;}.c{fill:#936037;}</style></defs><g class="b"><path class="c" d="M356.61,19.01c-.08,.14-.14,.38-.24,.39-.42,.04-.86,.02-1.42,.02,.85,.54,2.76,.49,3.43,0,.75-.54,.82-.52,1.41,.17,.1,.12,.42,.13,.6,.23,.04,.02-.1,.23-.14,.3,1.87,.17,3.71,.41,5.56,.48,1.16,.04,2.19-.31,3.18-.93,.7-.44,1.93-.39,2.92-.54,.41-.06,.82-.08,1.23-.12-.01-.1-.02-.2-.04-.3-.51,.04-1.01,.09-1.52,.11-.4,0-.82,0-1.21-.08-.1-.02-.2-.44-.14-.46,.32-.13,.67-.25,1.03-.29,1.47-.14,2.95-.25,4.43-.37v-.35c-6.82-.42-13.64-.83-20.52-1.25-.01,.09-.02,.17-.03,.24-.06,.3-2.41,1.86-2.78,1.82-1.44-.16-2.8-.3-4.28,.17-.98,.31-2.25,.06-3.39-.09,.79-.05,1.57-.09,2.48-.15-.6-.88-1.42-.64-2.19-.61-.52,.03-1.05-.02-1.57-.07-1.06-.1-2.1-.25-3.16-.32-1.62-.11-3.25-.25-4.86-.2-.81,.03-1.42,.02-1.96-.57,.39-.04,.74-.05,1.07-.11,1.91-.32,3.71-.59,5.77-.05,1.61,.42,3.56,.08,5.37,0-2.25-.2-4.51-.39-6.76-.59v-.36c1.47-.1,2.94-.19,4.4-.29l-.03-.29-.91-.29-.04-.2c.76-.1,1.52-.28,2.28-.29,.8-.01,1.61,.13,2.41,.21,.01-.11,.03-.22,.04-.33-2.47-.11-4.95-.23-7.42-.34v-.26c1.94-.67,4.02-.21,6.07-.26,.08-.21,.16-.42,.27-.71-2.94-.25-5.94-.5-9.07-.76,.14-.25,.23-.41,.35-.61-1.54-.33-2.92-.13-4.3,.14v.32c1.21,.1,2.43,.21,3.86,.33-.64,.61-.96,1-1.9,.58-.41-.19-1.18,.09-1.83,.17-.5-.13-1.11-.4-1.74-.43-2.77-.12-5.56-.12-8.33-.26-2.36-.12-4.72-.38-7.08-.54-.7-.05-1.57,.42-2.01-.62,2.09,.14,4.08,.3,6.08,.41,1.66,.1,3.32,.17,4.99,.2,.99,.02,1.99-.04,2.98-.1,.33-.02,.65-.17,.99-.21,.25-.03,.7-.06,.75,.02,.65,1.04,1.72,.24,2.58,.52-.27-1.3-1.55-1.04-2.51-1.17-1.27-.17-2.56-.27-3.83-.54,6.2,.56,12.51,.16,18.61,1.52l.11-.27c-.15-.15-.31-.3-.46-.45l.11-.14c.46,.24,.9,.51,1.39,.72,.41,.17,1.07,.48,1.28,.37,1.3-.71,2.77-.38,4.15-.51,1.41-.13,2.83-.23,4.25-.28,1.46-.06,2.92-.04,4.38-.07,.29,0,.58-.09,.87-.14l.02-.23c-1.27-.19-2.53-.39-3.8-.58v-.12c1.17-.08,2.32-.22,3.47-.22,1.42,0,2.87,.03,4.26,.22,.94,.13,1.85,.86,2.69,.79,.89-.08,1.71-.38,2.71-.25,1.13,.15,2.4,.34,3.44,.09,1.74-.41,3.47-.26,5.2-.3,1.62-.03,3.24,.13,4.86,.14,.93,0,1.87-.11,2.8-.15,.39-.02,.83-.1,1.16,.01,2.02,.68,4.14,.35,6.22,.36,.99,0,1.98-.14,2.97-.16,.25,0,.53,.34,.76,.32,.73-.06,1.44-.23,2.16-.34,.48-.08,.98-.23,1.44-.18,1.23,.12,2.45,.32,3.9,.52-.18-.43-.25-.6-.37-.9,2.32,.29,4.51,.56,6.78,.84-.08-.2-.17-.4-.28-.69,.36-.02,.66-.06,.96-.06,2.31,.05,4.61,.08,6.92,.17,1.11,.04,2.22,.25,3.33,.26,.47,0,.99-.27,1.41-.5,.11-.06,.04-.57-.07-.6-.85-.25-1.72-.46-2.6-.63-.75-.14-1.56,.08-2.05-.75-.18-.31-1.62-.29-2.46-.23-1.55,.12-3.09,.39-4.63,.61-.18,.03-.35,.08-.79,.19,1.19,.28,2.13,.51,3.08,.73-.01,.07-.03,.13-.04,.2-1.26-.05-2.52-.1-3.96-.16,.42-.81,.15-1.07-.77-1.08-.6,0-1.2-.28-1.81-.38-.45-.08-1-.6-1.37,.12-.03,.06-.57,.05-.58,.02-.23-.75-.99-.46-1.57-.48-1.72-.07-3.44-.17-5.17-.15-1.4,.02-2.79,.19-4.19,.3l-.04-.28c1.82-.13,3.64-.31,5.47-.38,3.34-.14,6.69-.3,10.03-.31,2.36-.01,4.73,.15,7.09,.32,4,.29,7.99,.63,11.99,.97,1.82,.15,3.63,.36,5.44,.52,3.76,.33,7.53,.64,11.31,1.07-1.28,0-2.55,.04-3.82,0-3.09-.1-6.17-.24-9.26-.37l-.09,.38c.36,.08,.71,.2,1.08,.23,4.43,.35,8.87,.65,13.29,1.06,1.92,.18,3.82,.55,5.71,.92,.92,.18,1.76,.58,2.66,.83,.34,.09,.75,.01,1.27,.01-.23-.27-.33-.38-.49-.57,2.02,.1,3.97,.2,6.21,.32-.37,.25-.54,.37-.8,.55,1.21,.7,2.62,.66,3.96,.6,2.51-.11,5-.33,7.51-.49,.13,0,.26,.05,.71,.14-.66,.17-1,.26-1.36,.35,.11,.78,.7,.67,1.39,.53,.63-.13,1.29-.18,1.94-.24,1.86-.15,3.72-.29,5.57-.44h-.03c-1.3,.2-2.6,.43-3.9,.64-.65,.1-1.3,.18-1.94,.41,1.67,.09,3.35,.78,4.94-.06,3.11,1.16,6.46,.62,9.66,1.01l.07-.35c-1.02-.15-2.04-.3-3.05-.45,.11-.03,.31-.15,.49-.14,2.9,.15,5.8,.32,8.7,.49,.96,.06,1.18,.55,1.17,1.04,1.66,1.02,3.25,1.99,4.89,3-1.11,.97-2.46-.01-3.63,.24,.18,.84,.75,1.24,1.86,1.24,.36,0,.72,.31,1.18,.52-.4,.52-.84,.94-1.05,1.43-.07,.15,.37,.55,.69,.67,.73,.28,1.52,.46,2.28,.68l.08,.34c-.6,.19-1.23,.36-1.8,.59-.4,.16-.73,.42-1.25,.74,1.28,.39,2.42,.74,3.55,1.09,0,.12-.02,.24-.02,.35-.87,.16-1.73,.31-2.6,.47,3.74,.82,7.03,2.55,11,2.96-.06,.14-.13,.27-.19,.41-1.73-.3-3.45-.65-5.19-.9-1.54-.22-3.1-.38-4.66-.49-.29-.02-.6,.32-.93,.45-.28,.11-.6,.23-.9,.24-.63,.01-1.26-.05-1.72-.07-.3,.41-.52,.69-.83,1.1,1.45,.29,2.91,.58,4.67,.93-1.6,.29-2.88,.52-4.45,.8,.44,.25,.77,.44,1.28,.72h-4.7l-.07,.17c.55,.15,1.1,.3,1.6,.43-.15,.1-.35,.24-.55,.38,.19,.14,.36,.37,.58,.4,.82,.13,1.66,.19,2.49,.28,.44,.05,.88,.1,1.32,.36-.89,.09-1.77,.19-2.66,.28v.39c1.32,.07,2.64,.15,4.05,.22-.09,.22-.16,.39-.29,.7,1.33,.11,2.56,.22,3.78,.32v.13c-.91,.12-1.83,.24-2.75,.36,0,.06,0,.12,0,.17,.89,.22,1.79,.45,2.68,.67l-.09,.25c-1.25-.15-2.5-.3-3.74-.45-.03,.1-.06,.19-.09,.29,.96,.24,2.08,.32,2.83,.77,.66,.4,.9,1.21,1.38,1.91-1.14-.2-2.25-.39-3.36-.58-.03,.09-.07,.18-.1,.27,.62,.2,1.27,.38,1.86,.63,.22,.09,.29,.38,.43,.57-.24,.07-.49,.2-.73,.19-.95-.04-1.9-.13-2.98-.21,.04,.26,.07,.44,.14,.84-1.04-.1-2.01-.19-2.98-.29l-.06,.2c1.8,.33,3.6,.66,5.4,.98-.01,.06-.03,.12-.04,.19-.99,.19-1.99,.37-3.16,.59,.22-.2,.35-.31,.56-.49-.59-.1-1.11-.18-1.77-.29,.23,1.11-.55,1.02-1.45,.88-.48-.07-1-.01-1.51,.14,.54,.19,1.12,.33,1.6,.59,.42,.22,.73,.57,1.26,1,1.77,.37,3.86,.82,5.95,1.26-.03,.12-.06,.24-.09,.35-2.66-.29-5.32-.58-7.98-.87-.02,.08-.03,.16-.05,.24,3.07,.66,6.14,1.32,9.22,1.98l-.02,.09c-2.19-.24-4.38-.47-6.57-.71-.02,.09-.03,.18-.05,.27,3.93,.73,7.87,1.47,11.8,2.2l-.06,.23c-1.99-.23-4-.39-5.96-.71-3.28-.54-6.55-1.09-9.91-1.17-.83-.02-1.67,.05-2.5,.06-1.19,.01-2.38,0-3.58,.17,9.59,1.58,19.18,3.16,29.05,4.79-2.17,.78-4.03-.04-6.19,.02,.49-.1,.7-.15,.91-.19-4.07-1.16-8.46-.57-12.78-1.62,.73,.68,.74,.64,2.32,.75,.77,.05,1.51,.31,2.22,.69-1.09-.06-2.18-.12-3.27-.19l-.07,.2c1.11,.28,2.23,.56,3.4,.85-.35,.09-.66,.18-1.01,.27,.87,.61,1.87,.7,2.9,.53,.97-.16,2-.13,3-.18l.06,.36c-.87,.11-1.75,.34-2.62,.31-1.71-.06-3.4-.3-5.11-.42-1.47-.1-2.94-.16-4.41-.2-.24,0-.48,.15-1.07,.34,1.18,.21,2.02,.36,3.1,.55-.94,.6-2.2-.35-2.66,.67h0c-.6,.24-1.2,.49-1.95,.79,1.37,.82,3.22,.25,4.92,1.03-3.01-.22-5.73-.43-8.45-.63l-.08,.21c.93,.24,1.84,.58,2.8,.69,1.41,.16,2.86,.13,4.28,.27,.33,.03,.61,.43,1.13,.82-2.82,0-5.3-.4-7.76,.24,2.07,.47,3.92,1.66,6.32,.96,.13,.29,.27,.6,.43,.94h-10.93c-.01,.11-.02,.22-.03,.34,1.05,.06,2.11,.09,3.15,.2,1.01,.1,2,.28,2.98,.43-.35,.08-.75,.17-1.27,.29,.21,.18,.38,.32,.68,.57-1.91,.19-3.7,.37-5.5,.55,1.71,.92,3.69,.66,5.54,.85,1.89,.2,3.81,.26,5.72,.46-4.3,.88-8.87,.13-13.15,1.11l-.02,.24c1.79,.29,3.58,.58,5.36,.86,.02-.02-.08,.08-.31,.29,.61,.07,1.13,.13,1.89,.22-.71,.16-1.21,.28-1.71,.4l.04,.11c1.47,.09,2.94,.17,4.41,.26,0,.09,0,.18,0,.27-2.04,.09-4.07,.18-6.11,.27,0,.09-.02,.17-.03,.26,.36,.15,.71,.29,1.41,.58-1.31,.09-2.28,.16-3.25,.23-.01,.07-.02,.14-.03,.22,2.55,.36,5.11,.72,7.66,1.08l-.04,.26c-.61,.05-1.22,.1-1.84,.16l-.02,.33c1.47,.17,2.93,.33,4.4,.5-1.2,.62-2.78-.27-3.75,.79-.07,.07,.09,.27,.15,.41-1.91-.11-3.84-.23-5.77-.33-.76-.04-1.52-.06-2.28-.05-.64,0-1.12,.15-.9,.67,1.73,.24,3.38,.47,5.03,.7-2.91,.53-6.04-.79-8.7,.98,7.74,.33,15.48,.66,23.22,.99,0,.12,0,.23,0,.35-2.98-.03-5.98-.48-8.96,.21,3.77,.84,7.73,.95,11.85,1.69-9.92,.96-19.51,.88-29.1,.35l-.02-.26h5.27l.02-.36c-1.4-.09-2.8-.17-4.21-.26,0-.1,0-.21,0-.31,2.07-.09,4.13-.18,6.53-.29-.53-.16-.75-.28-.98-.29-2.08-.09-4.15-.13-6.23-.24-1.11-.06-2.21-.2-3.3-.33-1.41-.17-2.05,.09-2.07,.9,.74,.17,1.85-.02,1.65,1.06-.01,.06,1,.24,1.59,.37-.71,.58-2.21-.28-2.64,.91,.41,.02,.75,.03,1.1,.05l.05,.17c-.74,.24-1.49,.48-2.33,.75,.38,.22,.72,.41,1.3,.75-.82,.22-1.38,.43-1.96,.51-3.17,.44-6.35,.89-9.54,1.24-3.2,.35-6.41,.64-9.62,.86-.75,.05-1.55-.3-2.33-.46-.45-.09-.9-.22-1.37-.25-3.01-.21-6.08-.2-9.01-.67-2.34-.38-4.55-.2-6.84-.14-1.56,.04-3.13-.24-4.7-.32-1.03-.05-2.08-.04-3.11,0-.71,.03-1.41,.16-1.91,.22,.73,.51,1.53,1.1,2.37,1.65,.67,.43,1.39,.82,1.91,1.13,0,0-.37,.04-.71,.08-.14,1.01,.52,1.29,1.63,1.3,4.83,.05,9.67,.22,14.5,.14,1.95-.03,3.88-.58,5.82-.89,.36-.06,.71-.14,1.09-.12-1.49,.86-3.23,1.14-5.01,1.21-3.79,.14-7.58,.2-11.37,.3-3.41,.09-6.82,.25-10.24,.28-4.84,.04-9.69,0-14.53,0-2.19,0-4.38,.03-6.57,.01-2.11-.02-4.22-.13-6.33-.13-4.48,.01-8.95,.09-13.43,.11-1.13,0-2.27-.11-3.4-.18l.02-.24c.83,.04,1.67,.11,2.5,.1,3.83-.06,7.67-.14,11.5-.24,4.64-.12,9.27-.24,13.9-.39,2.59-.09,5.18-.26,8.02-.41-1.75-.31-3.31-.59-5.27-.94,.63-.23,.94-.42,1.26-.44,1.37-.08,2.74-.12,4.11-.15,.26,0,.52,.09,.78,.27-.52,.05-1.03,.1-1.55,.16,0,.07,0,.15,0,.22h5.96l.03,.36c-1.35,.08-2.7,.16-4.05,.24l.02,.14c2.87,.2,5.74,.4,8.63,.6,.21-1.08-.22-1.46-1.5-1.47-1.93-.02-3.86-.18-5.79-.28v-.28c2.19,.07,4.37,.15,6.67,.23-.15-1.14-1.17-1.12-1.95-1.23-.94-.13-1.92-.1-2.86-.22-.7-.09-1.36-.43-2.06-.48-.93-.06-1.88,.06-2.82,.09-1.09,.02-2.19,0-3.28,.04-.75,.03-1.49,.14-2.23,.23-.91,.11-1.81,.27-2.72,.32-.33,.02-.69-.19-1.2-.34,.58-.37,.92-.59,1.55-1-2.26,.32-4.06-.88-6.1-.06-.65,.26-1.68-.05-2.53-.05-3.55,.02-7.1,.02-10.65,.11-2.82,.07-5.63,.25-8.44,.43-.7,.04-1.56,.02-1.84,.77-.03,.09-.41,.1-.64,.15-.2-1.39-2.16-.57-2.71-1.28,1.3-.07,2.66-.14,4.02-.22v-.34c-4.88-.04-9.77-.07-14.65-.11l-.05-.2c.12,.06,.23,.12,.56,.28-.53,.15-.92,.26-1.43,.41-.34-1.46-1.8-.72-2.77-.93-.94-.2-1.93-.29-2.87-.57-.53,.05-1.16,.63-1.57-.25-1.06,.28-2.02-1.18-3.19-.1-.16,.15-.83,0-1.26-.06-1.28-.16-2.54-.43-3.83-.48-2.87-.11-5.75-.15-8.62-.15-.99,0-1.98,.31-2.98,.32-1.19,.01-2.38-.14-3.57-.24-.73-.06-1.15,.04-.6,.77-.12,.01-.23,.03-.35,.04-.28-.3-.57-.59-1.04-1.08-.39,.1-1.02,.3-1.68,.42-.24,.04-.62-.02-.78-.15-1.14-.9-4.05-.97-5.29-.15-.3,.2-.74,.27-1.2,.27,.21-.15,.43-.3,.65-.46-.08-.11-.14-.25-.2-.25-1.67-.03-3.34-.06-5.01-.08-.52,0-1.04,.02-1.55,.04-.99,.05-2,.06-2.98,.17-1.22,.14-2.37,.18-3.41-.51-.73,1-1.82,.51-2.78,.57-.03-.1-.06-.19-.09-.29,1.34-.21,2.74-.69,4.02-.57,1.67,.16,3.27,.18,4.93,.07,1.81-.12,3.64,.05,5.46,0,1.72-.04,3.44-.14,5.16-.28,1.43-.12,2.85-.36,4.28-.5,.36-.03,.76,.22,1.14,.22,1.61,0,3.22-.06,4.83-.1,0-.1,.02-.2,.03-.3-.15-.11-.31-.22-.49-.34,.65-.05,1.28-.1,1.91-.14l.03-.22c-.23-.07-.51-.25-.67-.2-1.14,.38-2.1-.16-3.14-.29-.3-.04-.64,.15-.89,.44,.39,.08,.78,.15,1.17,.23l-.08,.35c-.48-.08-1-.1-1.43-.26-.67-.25-1.2-.37-1.4,.5l-.36-.07c-.25-.44-.5-.87-.74-1.31,.1-.05,.21-.11,.31-.16-.63-.06-1.26-.12-1.88-.18,.01-.11,.03-.21,.04-.32,.79,.03,1.59,.04,2.36,.14,.06,0,0,.6,0,1.07,.28-.12,.62-.17,.73-.32,.63-.91,1.78-.81,2.83-.9,2.12-.18,4.17-.83,6.35-.57,.96,.11,1.92,.27,2.89,.36,.37,.03,.77-.05,1.15-.09,.63-.08,1.25-.18,1.96-.28-.34-1.01,.62-.97,1.49-.99,.56-.01,1.13,0,1.69,0,.01-.07,.02-.15,.03-.22-.19-.05-.38-.13-.56-.13-2.42,.06-4.83,.14-7.24,.19-2.11,.04-4.22,.03-6.32,.09-.68,.02-1.36,.3-2.04,.29-1.56-.02-3.12-.18-4.68-.21-1.93-.04-3.86,.04-5.79-.02-.92-.03-1.83-.36-2.75-.35-2.49,.04-4.89-.4-7.3-.73-.61-.08-1.25-.05-1.87-.07-.16,0-.36,.01-.47-.05-1.55-.88-3.29-.73-5.05-.59-.85,.06-1.73-.08-2.6-.12-.22,0-.43,.03-.66,.27,.36,0,.72-.03,1.08,0,.3,.03,.61,.13,.88,.24,.05,.02-.02,.36-.1,.37-.33,.07-.9,.21-1.01,.09-1-.96-1.82-.23-2.79,.03-.85,.23-1.83,.14-2.78,.01,.63-.04,1.26-.08,1.89-.12,0-.09,0-.18,.01-.26-.26-.08-.52-.17-.8-.26,.17-.1,.31-.19,.67-.42h-5.58v-1.09l.51-.2c-.79-.87-1.91-.92-3.09-.88-1.08,.03-2.17-.11-3.23,0-1.08,.12-2.11,.47-3.18,.68-.38,.08-.8,.05-1.2,.07-.04-.11-.08-.23-.12-.34,.52-.15,1.04-.3,1.56-.46-.61,0-1.24-.05-1.84,.02-.39,.05-.72,.33-1.12,.43-.59,.15-.96,.86-1.81,.39-.13-.07-.48,.09-.91,.35,.33,.1,.67,.21,1.04,.33-1.67,1.13-3.25,.25-4.76,.3-.02,.08-.04,.15-.06,.23,.92,.18,1.84,.36,2.76,.53-.14,.23-.28,.48-.37,.63-1.67-.33-3.31-.66-4.99-1,.3-.18,.57-.31,.79-.47,.52-.38,1.04-.54,1.81-.43,1.07,.16,2.19,.15,3.27,.21,.21-1.49,.2-1.47-1.46-1.5-.98-.02-1.96-.17-2.94-.16-.42,0-.82,.28-1.24,.42-.17,.06-.41,.14-.56,.09-1.31-.38-2.53-.16-3.79,.18-.54,.15-1.24-.09-1.87-.08-1.71,.03-3.47,.32-5.11,.08-1.5-.22-2.84,.06-4.25,.13-.25,.01-.5,.09-.76,.14v.25c1.2,.04,2.38,.12,3.57,.11,2.48-.01,4.96-.2,7.42-.06,1.05,.06,2.05,.45,3.15,.14,.6-.17,1.25-.26,1.88-.38l.23,.39c-.44,.2-.85,.5-1.32,.58-1.33,.25-2.83,.79-4.01,.52-2.23-.5-4.38-.17-6.56-.19-.55,0-1.11,.27-1.66,.42l.1,.25h3.94c0,.09,0,.18,0,.28h-5.19c.17-.34,.27-.55,.5-1.01-.95,.11-1.69,.19-2.08,.23-1.95,0-3.59-.02-5.22,0-1.84,.03-3.69,.09-5.53,.16-3.14,.11-6.31,.11-9.42,.41-1.8,.17-3.49-.46-5.23-.15-1.19,.22-2.6-.26-3.58,.65-.08,.08-.42,.08-.55,.02-1.22-.55-1.21-.55-2.59-.08-.25,.09-.53,.11-.8,.16,.85,.77,.84,.76,2.05,.36,.27-.09,.62-.08,.93-.07,1.35,.06,2.71,.2,4.06,.18,.68-.01,1.35-.33,2.04-.47,.45-.09,.93-.11,1.46-.01-.26,.07-.51,.14-.77,.21v.24h7.2c-.22,.27-.36,.44-.66,.81,.96,.04,1.77,.08,2.58,.11,0-.1,0-.21,0-.31l-1.33,.13c0-.1-.01-.2-.02-.3,2.34-.55,4.7-.6,7.15,.14-.11,.12-.23,.26-.47,.53,1.05,.28,2.05,.54,3.05,.8v.17c-1.41-.17-2.81-.34-4.2-.5-1.14-.13-2.28-.25-3.42-.38-.05,.1-.1,.21-.14,.31,.16,.14,.33,.29,.6,.53-1.09,.17-2.05,.4-3.01,.43-.62,.02-1.04-.48-1.92-.32-1.79,.33-3.69,.57-5.51,.47-1.22-.07-2.41-.4-3.66-.11-.56,.13-1.13,.24-1.69,.35,0,.08,.01,.15,.02,.23,4.94,.28,9.89,.57,14.96,.86-1.36,.82-4.95,.97-7.05,.36,.05,.26,.09,.51,.16,.85-2.13-.87-3.33-.93-4.67-.11,2.83,.73,5.68,.13,8.32,.63l-.03,.25c-1.1-.06-2.19-.14-3.29-.19-1.79-.08-3.58-.12-5.37-.22-.19-.01-.31-.33-.53-.42-.34-.15-.73-.34-1.1-.33-1.59,.04-3.18,.14-4.78,.36h2.34c0,.09,0,.18,0,.27h-10.14c.28-.77,.8-.75,1.49-.6,.55,.12,1.14,.11,1.82,.16-.58-.87-1.14-1.02-2.14-.73-.27,.08-.62,0-.93,0-1.31,0-2.62,.03-3.93,0-.66-.01-1.31-.13-1.97-.19,0-.1,0-.21-.01-.31,1.61-.1,3.21-.2,4.82-.29l.02-.22h-7.02v-.3c1.38-.13,2.77-.26,4.16-.39l-.04-.34c-1.85,.09-3.7,.17-5.77,.27,.35,.32,.46,.42,.74,.67-1.94,.24-3.66,.45-5.38,.67,0,.1,.01,.19,.02,.29,.92,.17,1.77,.64,2.83,.17,.59-.26,1.12-.45,1.83-.04,.42,.25,1.14,.21,1.74,.25,1.45,.12,2.9,.21,4.34,.31,0,.08,0,.15,0,.23-1.21-.05-2.43-.14-3.64-.13-2.06,.02-4.11,.14-6.17,.16-.48,0-.95-.27-1.44-.3-1.93-.1-3.87-.16-5.81-.23-3.86-.14-7.72-.32-11.58-.4-3.87-.08-7.74-.06-11.62-.1-1.42-.01-2.84-.16-4.24-.05-.96,.07-1.89,.47-3.03,.77-1.21-.94-3.02-.57-4.78-.5-1.74,.07-3.48,.04-5.22,.06-2.36,.03-4.72,.07-7.09,.26,1.62,.36,3.45-.26,5.03,.81-1.33,.02-2.39,.34-3.73,.18-2.32-.27-4.75-.02-7.14,.06-1.84,.06-3.66,.51-5.54-.04-.54-.16-1.32,.13-1.98,.21,0,.09,0,.18,0,.28,.4,.12,.8,.25,1.2,.37l-.02,.15c-.8,.04-1.59,.07-2.39,.11,0,.09,0,.17-.01,.26,2.79,.08,5.56,.65,8.39,.05l-.03-.02-1.29,.75,.03,.22c1.1,0,2.2-.02,3.3,0,3.03,.07,6.05,.22,9.08,.23,4.31,.02,8.61-.06,12.92-.1,1.29-.83,2.7-.5,4.29,0-.2-.49-.3-.72-.4-.97,.13-.04,.23-.11,.33-.11,1.67,.06,3.37,.01,5.01,.23,1.78,.24,3.47-.02,5.21-.14,1.33-.09,2.7,.17,4.05,.27l.02,.28-3.57,.24-.02,.2c2.1,.17,4.2,.33,6.3,.5l.08,.2c-.54,.09-1.08,.25-1.63,.25-3.27,.02-6.55,0-9.82,0-4.07,0-8.14-.02-12.22-.02-.48,0-1.06-.13-1.08,.52,0,.08-.69,.22-1.06,.22-.79,0-1.59-.1-2.38-.13-2.57-.08-5.14-.2-7.71-.2-.9,0-1.81,.34-2.71,.52-.23,.04-.54,.13-.7,.05-1.37-.63-2.9-.27-4.31-.47-1.29-.18-2.2,.39-3.31,.46-1.74,.12-3.49,.27-5.23,.25-5.47-.06-10.95-.2-16.42-.29-1.35-.02-2.7,.01-4.05,.09-5.23,.29-10.44,.1-15.65-.38-4.95-.45-9.91-.9-14.93-.46-2.21,.19-4.47-.05-6.71-.01-2.74,.05-5.48,.18-8.22,.28-1.96,.07-3.91,.14-5.87,.25-.69,.04-1.38,.2-2.07,.31,0,.1,0,.21,0,.31,2,.17,3.99,.34,5.99,.51l-.03,.28c-5.26,.05-10.48-.67-15.73-.82l-.07,.34c2.67,.39,5.35,.78,8.02,1.16,0,.08-.01,.16-.02,.24-3.05-.16-6.1-.31-9.16-.47l-.04,.32c.51,.04,1.02,.07,1.59,.11,.05,.41-.41,.91,.91,.81,2.05-.16,4.16,.16,6.25,.24,.65,.02,1.32-.08,2.01,.04-.9,.09-1.8,.18-2.7,.27l.02,.19c.47,.02,.93,.05,1.4,.07l.1,.27c-.69,.22-1.38,.44-2.07,.67-.01,.1-.03,.19-.04,.29,1.32,.19,2.63,.38,3.95,.57-.01,.13-.03,.27-.04,.4-2.58-.54-5.15-.79-7.87-.15,.37,.32,.64,.57,.92,.81-1.5-.3-2.97,.84-4.42,.13v-.32h2.3l.04-.3c-.39-.11-.78-.31-1.18-.31-2.02-.02-4.15-.2-5.96,.59-.87,.38-1.66,.89-2.65,1.06-3.03,.54-6.04,.08-9.06-.09-1.11-.06-2.24-.14-3.34-.06-1.94,.15-3.86,.44-5.79,.62-.3,.03-.64-.2-.96-.31,.27-.36,.43-.93,.82-1.04,1.23-.35,2.56-.48,3.82-.77,1.64-.38,3.26-.81,4.88-1.24,1.03-.28,1.97-.27,2.95,.19,1.21,.56,2.72,.29,3.08-.48-.68-.14-1.37-.28-2.06-.42,0-.07,.02-.15,.03-.22,3.19-.41,6.39-.82,9.72-1.25-.21-.12-.33-.24-.44-.25-3.75-.03-7.5-.08-11.25-.05-.55,0-1.09,.33-1.79,.56-1.89-.77-3.99-.28-6,.22-1.83,.45-3.29,.42-4.6-.81-1.37-1.3-3.21-1.56-5.27-1.07-.79,.19-1.63,.27-2.44,.38-.15,.02-.42,.02-.45-.04-.6-.92-2.1-.66-2.77-1.25-.18-1.1-.29-2.15-.57-3.17-.1-.38-.58-.71-.9-1.05-.11-.12-.39-.23-.38-.32,.12-.71-.43-1.2-.73-1.79-.35-.69-.74-.7-1.41-.74-.3-.02-.6-.08-.9-.12-.03-.09-.06-.18-.09-.27,2.45-.75,4.89-1.51,7.41-2.28-.14-.54-.26-1.01-.45-1.72,4.07,.14,8.16,.72,12.04-.56-.25-.78-.93-1.06-2-.68-.5,.18-.95,.45-1.46,.61-1.46,.45-2.8-.13-4.17-.34-1.18-.18-2.36-.37-3.52-.61-.47-.1-.88-.34-1.21-.67-3.18,.14-6.36,.27-9.54,.41-.04-.13-.08-.25-.13-.38,.52-.15,1.03-.32,1.56-.43,.75-.16,1.82,.28,2.1-.77,.05-.2,.87-.38,1.35-.41,1.03-.06,2.08,0,3.12-.04,.32-.01,.63-.17,.94-.26-.15-.27-.19-.63-.45-.81-1.08-.72-2.38-1.06-3.82-1.08-.53,0-1.06-.06-1.59-.09,0-.12,0-.25-.01-.37,1.81-.17,3.61-.33,5.81-.54-2.73-.46-5.12-1.04-6.63-2.81,.16-.56,.72-.79,1.53-.81,.68-.02,1.35-.08,2.03-.12,0-.1,0-.19,0-.29-.84-.09-1.69-.19-2.53-.28v-.2c.25-.1,.52-.2,.75-.28-.55-1.43-2.59-1.23-3.95-2.03,.8-.19,1.38-.32,1.96-.46l.05-.24c-.85-.36-1.7-.72-2.55-1.08l.09-.23c2.47-.2,5.02,.26,7.46-.28l.13-.3c-2.55-1.02-5.09-2.04-7.64-3.07l.02-.21c1.71-.2,3.42-.4,5.32-.63-1.64-.86-3.07-1.6-4.57-2.39,.77-.12,1.54-.25,2.27-.37,.14-.81-1.65-.97-.9-2.06,1.63,1.48,3.58,1.78,5.82,1.44,1.47-.22,2.98-.3,4.48-.44l.05-.35c-1.35-.24-2.69-.51-4.06-.7-1.31-.18-1.56-.39-1.36-1.37-1.16-.66-1.12-1.14,.16-1.71,.55-.25,1.12-.47,1.67-.72,.19-.09,.4-.21,.51-.35,.38-.5,.72-1.01,1.13-1.6-.49-.04-1.19-.09-2.22-.17,1.1-.33,1.9-.56,2.95-.88-.43-.41-.71-.92-1.18-1.07-1.66-.51-2.47-1.29-1.95-2.69,.02-.05-.08-.11-.08-.17,0-.05,.03-.11,.07-.22,.32-.05,.68-.07,1-.18,.27-.09,.49-.29,.73-.43-.25-.2-.46-.52-.75-.56-.8-.12-1.63-.11-2.58-.17,.94-1.25,3.67-.37,3.86-2.21,.87-.03,1.9,.11,2.12-.92-2.03-.47-4.03-.4-6.06-.1-.48,.07-1.02-.08-1.53-.12v-.34c1.82-.41,3.62-.82,5.47-1.24-.74-.6-1.44-1.17-2.19-1.79,.24-.21,.43-.38,.61-.54-.74-1.92-2.98-1.34-5.09-1.47,1.66-.93,3.58-.13,4.62-1.09-.44-.55-.8-.98-1.15-1.42,.58-.25,1.15-.49,1.95-.84-.91-.18-1.59-.32-2.35-.48l.95-.3c-.87-.37-1.6-.68-2.34-.99l.13-.17c1.82,.21,3.64,.42,5.47,.63,.04-.1,.07-.21,.11-.31-.8-.34-1.6-.67-2.4-1.01l.05-.1c1.07,.25,2.13,.58,3.23,.74,1.61,.23,3.24,.43,4.87,.46,1.08,.02,2.36-.62,3.2-.33,1.05,.35,2.03,.51,3.09,.46,.5-.02,.99-.25,1.48-.38l-.1-.42h-2.95l-.04-.13c1.4-.39,2.81-.77,4.26-1.17-1.48-.38-2.97-.76-4.47-1.15l.03-.29c.34-.06,.69-.13,1.11-.21l-.41-.53c.17-.02,.29-.05,.4-.04,.83,.12,1.38-.22,2.03-.57,1.09-.6,2.33-1.05,3.5-1.58,.44-.2,.91-.39,1.28-.65,.14-.1,.11-.55,0-.6-1.34-.5-2.38-1.58-4.22-1.32,.07,.21,.15,.41,.27,.76-.38-.11-.63-.15-.84-.25-.81-.37-1.56-.85-2.41-1.13-.82-.27-.78-.77-.75-1.22,.03-.51,.29-1.01,.45-1.53-.67-.17-1.17-.29-1.66-.42,.04-.1,.07-.2,.11-.3,1.29,.26,2.58,.51,3.87,.77l.11-.24c-.25-.1-.5-.21-.75-.31l-.07-.25c.61-.09,1.24-.29,1.83-.25,1.92,.14,3.51-.57,5.24-.97,1.32-.31,2.78-.42,4.17-.41,3.71,.02,7.41,.16,11.12,.24,1.28,.03,2.5,.09,3.78,.35,1.41,.29,3.01,.07,4.53,.06,5.16-.03,10.32,0,15.48-.11,5.87-.12,11.74-.32,17.61-.55,3.22-.13,6.44-.39,9.65-.61,.82-.06,1.64-.33,2.44-.31,1.67,.05,3.36,.44,4.99,.31,3.74-.3,7.39,.63,11.12,.14v.27c-1.52,.08-3.05,.17-4.57,.25,9.09,.92,18.2,.1,27.28,.43-1.31,.63-1.44,.63-2.94,.13-.17-.06-.38-.09-.57-.08-3.97,.19-7.94,.4-11.91,.58-1.53,.07-3.08,.07-4.61,.13-.35,.01-.69,.17-1.04,.26,0,.09,0,.18,.01,.27,.82,.13,1.66,.21,2.45,.41,.95,.24,1.67,.11,2.19-.57,.72,.83,1.51,.97,2.92,.56,1.6-.46,3.17-.38,5.15,.31-1,.06-1.77,.11-2.54,.16v.23l2.04,.17v.17h-7.88c-.19-.16-.38-.49-.58-.49-1.5,0-2.99,.06-4.53,.32,.16,.09,.33,.18,.73,.4-5.94,.08-11.69-.43-17.36,.63,3.39,.09,6.78,.18,10.17,.27,0,.13,.02,.27,.03,.4-.45,.09-.9,.18-1.35,.27v.24c1.1,0,2.21,0,3.32,0,.1,0,.26-.07,.29-.14,.57-1.51,2.12-.5,3.18-.74-.58,.15-1.16,.29-1.74,.44l.05,.31c.72,0,1.45,0,2.17,0,5.27-.08,10.53-.17,15.8-.23,2.34-.03,4.69,.07,7.02,.01,1.11-.03,2.2-.27,3.3-.42-.02-.08-.04-.15-.07-.23,.22,.15,.45,.44,.66,.44,2.82-.04,5.63-.12,8.45-.2,0-.11,.01-.21,.02-.32-.71-.05-1.43-.18-2.13-.13-2.12,.17-2.39,.13-4.28-1.17,1.16-.11,2.19-.19,3.21-.32,.3-.04,.56-.23,1.08-.45,2.4-.13,5.11-.28,7.82-.43l.09-.25c-.29-.2-.58-.4-.87-.59l.11-.2c.39,.16,.76,.34,1.17,.46,.39,.11,.82,.22,1.22,.2,1.17-.07,2.27-.21,3.5,.07,1.1,.25,2.41-.07,3.81-.14-1.42,.45-2.72,.95-4.1,1.27-1.48,.34-3.02,.54-4.55,.75-1.54,.21-3.1,.37-4.84,.57,1.76,.9,10.97,.39,12.74-.03-.89-.28-1.49-.47-2.12-.66,.14-.5,.56-.59,2.88-.58-.31,.23-.65,.47-1.19,.87,.58,.05,.88,.14,1.08,.07,1.59-.57,3.29-.35,4.94-.43,.75-.03,1.62-.19,1.92,.67,.05,.14,.68,.2,1.05,.19,.11,0,.21-.35,.4-.7,.99,.27,2.07,.56,3.24,.88-.12,.21-.25,.43-.49,.83,1.12-.12,1.4-.58,1.47-1.25,.51,.06,1.06,.12,1.61,.18l.02,.17c-.34,.09-.68,.18-1.03,.28,.84,.13,1.75,.87,2.45-.19,.08-.12,.42-.19,.64-.19,2.59-.01,5.19,0,7.82,.17-1.62,.17-3.24,.33-4.86,.49-.08,0-.18,.02-.24-.01-1.1-.67-1.9-.29-2.69,.39-.14,.12-.61,.07-.92,.03-1.49-.21-2.93-.33-3.99,.78-.07,.08-.38,.03-.59,.04,.38-.7,.02-.79-2.31-.58,.21,.12,.33,.2,.67,.4-1.34,0-2.47,.05-3.6-.01-1.69-.09-3.36-.34-5.05-.39-1.57-.04-3.16,.08-4.73,.16-.19,0-.37,.2-.54,.56,1.31,.07,2.62,.15,4.05,.23,0,.11-.06,.29,.02,.43,.08,.15,.25,.33,.43,.36,.18,.03,.45-.06,.62-.16,.32-.18,.59-.59,.9-.6,2.22-.05,4.45-.03,6.47-.03-.58,.26-1.31,.58-2.04,.9,.07,.11,.14,.21,.21,.32,.76-.11,1.79,.58,2.13-.34,.75,.13,1.46,.27,2.18,.38,.18,.03,.51-.02,.55-.1,.55-1.05,1.73-.51,2.71-.58-.24,.15-.49,.3-.81,.5,.28,.07,.5,.18,.71,.18,1.47,.02,2.94,.01,4.42,0,.77,0,1.59,.18,2.13-.51,.1-.12,.71-.02,1.08,0,.81,.05,1.62,.15,2.43,.15,1.71,0,3.43-.05,5.14-.07,1.24-.02,2.48-.02,3.72-.06,.29,0,.58-.15,.87-.23,.25-.07,.53-.23,.74-.18,3.14,.64,6.29,.01,9.43,.09,.74,.02,1.48-.05,2.12,.1,.24,.08,.48,.24,.72,.24,1.74,.02,3.48,.02,5.22,0,1.13-.01,2.26-.09,3.4-.11,.9-.01,1.81,0,2.7,.07,.36,.03,.7,.27,.99,.26,2.25-.04,4.5-.06,6.75-.12,2.26-.07,4.51-.19,6.77-.28,.03,.1,.05,.21,.08,.31-.57,.12-1.15,.23-1.72,.35v.3c.93,.03,1.87,.1,2.8,.09,.96-.01,1.94-.03,2.86-.19,.93-.17,1.8-.53,2.7-.81l-.14,.3c.27,.15,.55,.43,.81,.42,.93-.04,1.86-.19,2.79-.27,1.76-.14,3.52-.26,5.28-.37,.23-.01,.47,.05,.7,.08,.01,.08,.03,.17,.04,.25-.8,.07-1.59,.21-2.39,.2-.81,0-1.5,.03-1.96,.63-.11,.14-.62,.27-.67,.23-.8-.73-1.8-.27-2.7-.27-1.33,0-2.72,.08-3.96,.23-1.15,.14-2.15-.16-3.21-.03-.78,.1-1.55,.26-2.33,.32-1.66,.12-3.32,.19-4.98,.27-.42,.02-.84,0-1.26,0,0,.09,0,.19,0,.28,1.26,0,2.52,.01,3.78,0,1.64-.02,3.37-.33,4.9-.03,3.26,.65,6.33-.37,9.5-.3,2.1,.05,4.2-.05,6.3-.03,.36,0,.71,.25,1.07,.38l-.08,.33c-1.28,.08-2.55,.16-3.91,.25,.12,.16,.25,.34,.44,.6-.77,.11-1.38,.3-1.65-.48-.05-.15-.74-.24-1.13-.23-3.62,.06-7.24,.13-10.85,.22-2.13,.05-4.26,.15-6.43,.08,.37-.07,.73-.14,1.1-.21-.01-.07-.02-.14-.03-.2-1.38,.07-2.76,.15-4.13,.22,0,.11,.01,.21,.02,.32,.52-.03,1.05-.05,1.57-.08v.22c-2.8,.14-5.62,.29-8.43,.43-.02,.06-.03,.11-.05,.17,.32,.14,.64,.29,1.03,.47-.26,.07-.5,.13-.74,.19,0,.08,.01,.16,.02,.25h5.04c-.33-.14-.57-.24-.94-.4,1.67-.24,3.2-.49,4.75-.69,1.56-.2,3.13-.36,4.58,.41-.19,.09-.33,.16-.47,.23l.06,.15c1.47-.05,2.93-.11,4.4-.16,2.27-.08,4.55-.13,6.82-.23,.88-.04,1.75-.2,2.73-.11-.82,.22-1.63,.44-2.37,.63,1.08,.51,2.47,.3,3.53-.39,.39-.25,1.16-.17,1.76-.23,.02,.1,.03,.21,.05,.31-.38,.06-.76,.13-1.34,.22,.35,.34,.58,.56,.76,.73h-5.08c.56,.28,1.01,.51,1.48,.73,.1,.05,.32,.08,.33,.06,.6-1.05,1.58-.17,2.35-.23,1.84-.14,3.73,.03,5.56-.16,2.67-.28,5.32,.06,7.99-.13,2.37-.17,4.77-.02,7.16-.02,.14,0,.28-.08,.76-.22-5.06-.69-9.9,.53-14.9-.55,.55-.2,.85-.3,1.24-.44h-2.18l-.15-.33c.4-.12,.92-.42,1.18-.32,2.06,.81,3.89,.21,5.75-.4,.63-.21,1.27-.39,2.05-.62-.22,1.13-2.69,.22-2,1.73-.84,.06-1.5,.1-2.15,.15,0,.09,0,.17,.01,.26,8.33-.16,16.66-.32,25.36-.49-.58-.25-.84-.36-1.13-.49,.1-.07,.17-.16,.27-.17,.95-.1,1.85-.13,2.33-1.01,.12-.23,1.19-.16,1.82-.22,.03,.1,.06,.19,.09,.29-.42,.11-.84,.23-1.26,.34l.02,.18h11.42l.05,.05c-.49,.06-.97,.13-1.46,.19,.12,1.11,.28,1.19,3.15,1.7-.57,.03-1.14,.06-1.71,.09,0,.1,0,.19,0,.29h11.93c0-.11,0-.23,0-.34h-9.03c.18-.45,.17-.48,2.69-.73,1.05-.1,2.12-.02,3.2-.1-2.4-.89-5.18,.05-7.78-1.02,.5-.12,.91-.31,1.32-.31,2.35-.04,4.7-.08,7.05-.06,4.67,.05,9.34,.18,14,.2,2.9,.01,5.81-.14,8.71-.14,.8,0,1.6,.3,2.68,.52-.57,.09-.92,.21-1.27,.2-1.29-.03-2.58-.12-3.88-.14-.63-.01-1.35-.17-1.7,.53-.09,.18-.76,.2-1.17,.46,1.91,.09,3.81,.18,5.72,.27,.01-.1,.03-.2,.04-.3-.59-.06-1.19-.12-1.79-.18,.9-.43,1.7-.37,2.51,.03,.45,.22,1.06,.33,1.61,.35,1.78,.08,3.57,.12,5.36,.14,1.71,.02,3.42,0,5.4,0-.43-.09-.65-.13-.86-.18-1.01-.23-2-.57-3.03-.68-.92-.1-1.89,.06-2.82,.11,.08-.42,.56-.55,1.3-.48,1.17,.11,2.35,.23,3.52,.2,1.68-.05,3.35-.26,5.03-.35,2.38-.12,4.83,.04,7.12-.36,1.74-.3,3.14,.6,4.75,.17,0,.1,0,.2,0,.3-1.85,.03-3.7,.02-5.55,.1-.9,.04-1.78,.23-2.67,.35-.09-.1-.18-.28-.27-.28-1.26-.02-2.52-.05-3.77,.03-.22,.01-.39,.52-.59,.79,.09,.04,.18,.08,.27,.12l-1.2,.19,.04,.15c1.06-.05,2.13-.1,3.34-.16-.32-.36-.5-.55-.57-.63,.95-.08,1.87-.16,2.79-.25Zm88.37-7.89c-.55-.25-1.08-.57-1.68-.73-.24-.06-.65,.24-.98,.37-.13-.2-.2-.5-.41-.57-.88-.31-1.8-.63-2.85-.12,.79,.43,1.69,.49,2.47,.86,.87,.41,2.29,.14,3.47,.16,1.73,.92,3.61,.38,5.45,.37-.84-.3-1.72-.41-2.56-.63-.78-.2-1.53-.79-2.12,.21-.06,.1-.52,.06-.79,.08Zm-82.08,3.27l-.05-.1c1.52,.14,3.05,.31,4.57,.42,1.66,.12,3.33,.21,4.99,.26,1.7,.04,3.41,0,5.11,.02,1.67,0,3.35,.03,5.02,.04,1.6,0,3.21,0,4.81,0l.03-.34c-1.02-.2-2.04-.52-3.07-.55-1.09-.04-2.19,.19-3.37,.32,.03-.3,.06-.55,.09-.79-2.96-1.01-12.89-1.38-15.62-.55,1.82,.1,3.64,.19,5.43,.29-.58,.68,.89,.36,1.14,.92-.63-.08-1.12-.14-1.62-.21-.74-.1-1.47-.25-2.21-.3-1.06-.07-2.13-.05-3.18-.12-1.07-.08-2.13-.26-3.2-.34-.66-.05-1.08,.11-.48,.66-.35,.11-.69,.23-1.03,.34l.07,.29c.85-.08,1.71-.16,2.56-.24Zm105.55,.46c-2.06,1.23-4.57,.15-6.69,.96,.53,.13,1.05,.15,1.57,.17,4.2,.22,8.4,.44,12.6,.66,.19,0,.48,.02,.53,.11,.38,.55,.74,.52,1.28,.1,.15-.12,.59-.03,.89-.02,1.8,.1,3.61,.14,5.39,.33,1.05,.11,2.11,.38,3.08,.72,1.32,.46,2.58,.97,4.09,.61-.45-.14-.94-.13-1.4-.21-.39-.06-.79-.19-1.13-.36-.33-.16-.53-.49-.87-.6-.77-.23-1.59-.39-2.39-.55-1.61-.33-3.22-.67-4.85-.94-1.66-.28-3.48-.24-4.97-.77-2.38-.86-4.75-.99-7.26-.79-.11,0-.2,.08-.37,.15l.49,.41ZM194.73,77.03v.21c1.35,.04,2.69,.13,4.03,.13,5.5,0,10.99-.03,16.49-.04,2.56,0,5.16,.19,7.36-1.05,0,0-.06-.05-.14-.05-.92-.05-1.67,.38-2.44,.54-1.37,.29-3.02,.15-4.41-.17-.47-.11-1.05-.36-1.61-.38-1.27-.04-2.54-.02-3.82,0-.21,0-.42,.11-.78,.2,.37,.21,.61,.35,1.09,.63-1.89-.08-3.49-.15-5.09-.22v-.24c.83-.04,1.66-.08,2.49-.13-3.99-.2-7.96-1.01-12,.01,.54,.08,1.08,.16,1.63,.24v.16c-.94,.05-1.88,.1-2.81,.15ZM347.06,12.9c.55,.12,.97,.21,1.39,.29,1.11,.21,2.18,.39,2.97,1.16,.41,.4,1.15,.99,1.92,.53,.52-.31,.71-.93,1.06-1.42,.29,.19,.71,.47,1.37,.9,1.12,.05,2.61,.11,4.11,.17l.08-.27c-.36-.18-.72-.35-1.35-.65,.77-.04,1.24-.06,2.15-.11-.8-.61-1.36-1.05-2-1.55-.59,.54-1.3,.5-2.12,0-.33-.2-.92-.24-1.37-.21-1.28,.08-2.56,.24-3.84,.37-.06,0-.12,.08-.21,.14,.13,.13,.26,.27,.39,.4-1.39,.85-2.89-.03-4.55,.23Zm-159.44,63.05c-.02-.1-.03-.2-.05-.3-.86-.03-1.72-.08-2.58-.1-2.03-.03-4.1-.26-6.07,0-1.23,.16-2.3,0-3.45-.04-1.21-.05-2.62-.14-3.6,.26-.78,.32-1.4,.51-2.24,.45-.58-.04-1.18,0-1.81,0,.06,.12,.07,.16,.09,.17,.14,.05,.29,.1,.44,.12,1.84,.26,3.59,.06,5.35-.44,.49-.14,1.22,.17,1.81,.34,.07,.02-.03,.42-.08,.88,.74-.16,1.51-.16,1.98-.45,.79-.49,2.05-.73,3.24-.29-.97,.08-1.77,.15-2.57,.21l.03,.25c1.56,0,3.13,0,4.69,0,.43,0,.87-.13,1.3-.09,.75,.06,1.61,.5,1.83-.54,.03-.12,.55-.18,.85-.26,.28-.07,.56-.11,.85-.16Zm44.81-4.55c0-.07,0-.15,.01-.22-.65-.04-1.3-.08-1.95-.12,0-.1,0-.19,0-.29,.95,0,1.91-.06,2.85,.01,2.12,.17,2.12,.2,2.54-.31h-14.13c0,.11,0,.22,0,.34,.22-.01,.45-.05,.66-.03,1.21,.08,2.59-.08,3.58,.32,1.01,.41,1.66,.34,2.51,0,.34-.13,.71-.22,1.06-.33l.34,.35c-.32,.05-.63,.1-.95,.15,.08,.09,.17,.18,.25,.27,1.07-.05,2.15-.09,3.22-.14ZM33.8,91.53c0,.12-.02,.24-.03,.36,.91,.13,1.84,.41,2.73,.36,2.45-.14,4.88-.41,7.32-.64,.36-.04,.71-.19,1.06-.29l-.05-.18c-3.68,.13-7.35,.27-11.03,.4Zm12.65-2.55c1.27,.4,2.3,1.16,3.9,1,1.37-.13,2.81,.35,4.39-.1-1.08-.16-2.12-.1-2.77-.46-1.77-.98-3.61-.72-5.52-.44ZM181.46,21.47l.05-.29c-.48-.13-.97-.24-1.43-.4-.34-.11-.65-.4-.98-.4-1.3,0-2.61,.09-3.91,.15-.34,.02-.68,.05-1.03,.07v.39c2.38,.55,4.83,.5,7.29,.47Zm35.82-3.2c-.02-.17-.03-.33-.05-.5-4.29,.1-8.58,.21-12.87,.31v.18h12.92Zm233.95,65.89l.05,.35c3.04-.01,6.1,.52,9.13-.08v-.25h-5.83v-.14c.37-.03,.73-.05,1.1-.08l-.05-.28c-1.47,.16-2.93,.32-4.4,.49Zm-.39-.03l-.14-.53c-1.5,.11-3.01,.23-4.51,.32-.27,.02-.55-.07-.83-.08-1.14,0-2.28,0-3.42,0,2.53,.34,5.06,.51,7.59,.62,.43,.02,.87-.21,1.31-.33Zm39.29-61.85c-2.13-.33-4.18-.45-6.57,.06,1.53,.28,2.72,.5,3.91,.71,.22,.04,.5,.04,.7-.02,.62-.2,1.21-.45,1.96-.74ZM45.62,89.85l.04-.36c-1.1-.09-2.2-.17-3.59-.28,.19,.64,.12,1.34,.51,1.54,.52,.28,1.44,.45,2-.24-.21-.19-.4-.38-.79-.74,.8,.03,1.32,.05,1.83,.07ZM346.1,14.65c-.02,.13-.05,.26-.07,.4,1.02,.19,2.03,.38,3.05,.57,.02-.07,.05-.14,.07-.21-.42-.08-.83-.16-1.25-.23,0-.08,.02-.17,.03-.25,.49-.02,.99,.02,1.46-.07,.51-.09,.99-.29,1.48-.44-.48-.1-.99-.33-1.45-.29-1.11,.11-2.21,.34-3.31,.52Zm-44.39,57.49c.09,.44,.15,.68,.2,.92,.4-.06,.91-.03,1.19-.21,.41-.27-.12-1.2-.69-1.17-1.67,.07-3.33,.22-4.99,.35,.02,.14,.03,.27,.05,.41,1.47-.1,2.93-.2,4.25-.29Zm66.57,9.11c2.93,.32,5.86,.75,8.78,0h-8.78Zm-128.7-10.61c-1.05-.51-2.81-.45-3.1,.15l.59,.65h-2.21c1.77,.51,3.83,.16,4.72-.8Zm39.6-.83c0,.13,0,.26,.01,.39,2.24-.19,4.52,.53,6.72-.39h-6.73Zm98.85-50.92c-.02,.09-.03,.18-.05,.27,.96,.15,2.08,.11,2.86,.49,1.17,.56,1.94,.39,2.94-.49-2.02-.39-3.91-.03-5.75-.27Zm18.4-.92c-2.41-.27-4.9-1.08-7.2,.38,1.05,.46,1.25,.42,1.68,.05,.25-.21,.69-.4,1.06-.41,1.48-.05,2.97-.02,4.46-.02ZM18.98,70.49l-.02-.29c-.27-.02-.55-.05-.82-.04-1.24,.02-2.48,.04-3.71,.08-.34,.01-.68,.12-1.02,.18,.3,.17,.62,.51,.91,.49,1.56-.09,3.11-.28,4.67-.43Zm216.13,6.26c.04,.1,.08,.2,.12,.3h6.05c-1.2-.34-2.39-.53-3.59-.65-.61-.06-1.26-.03-1.87,.02-.24,.02-.47,.21-.7,.33ZM152.24,15.41c-1.97-.33-3.57,.74-5.32,.23-.19-.06-.53,.18-.8,.28,2.04,.13,4.1,.71,6.11-.52Zm53.88,3.72v-.21h-8.4v.21h8.4Zm5.12,55.94c2.01-.04,3.82,1.11,5.91,.53-1.88-.67-3.92-.49-5.91-.53ZM346.89,12.21l.03,.42c.85,0,1.71,.04,2.55-.02,.27-.02,.72-.32,.71-.47-.02-.29-.24-.65-.53-.81-.29-.16-.78-.11-1.18-.15-.02,.06-.04,.12-.07,.18,.25,.13,.5,.25,.84,.43-.87,.16-1.61,.29-2.34,.42Zm-55.48,57.98c-1.58-.66-2.94-.71-4.72-.27,.63,.29,1,.6,1.35,.59,1.02-.03,2.04-.18,3.37-.32Zm51.43-53.48c1.21,.56,6.48,.71,8.45,.3-2.85-.1-5.53-.2-8.45-.3Zm-197.32,4.32c.81,.17,1.71,.41,2.63,.52,.98,.12,1.98,.11,2.97,.15l.02-.31c-1.04-.04-2.08-.08-3.12-.12,0-.09,0-.17,0-.26,.12-.09,.25-.17,.39-.27q-2.24-.27-2.89,.28Zm3.15-7.14l-.05,.25c1.09,.42,4.09,.27,4.88-.45-1.78,.07-3.3,.14-4.83,.2Zm3.21,2.2h2.21c-.17-.19-.4-.34-.36-.41,.68-1.13,2.26-.33,3.32-.81-1.22-.97-2.3,.29-3.07,.05-.76,.42-1.31,.73-2.1,1.17Zm167.54,4.17c-.01,.11-.02,.23-.04,.34,.59,0,1.17,0,1.76,0,1.31,.01,2.63,.05,3.94,.03,.21,0,.42-.26,.63-.4-.26-.06-.53-.19-.79-.17-.57,.03-1.13,.18-1.69,.2-1.27,.03-2.54,.01-3.81,.01Zm12.19,.08c.02-.07,.04-.14,.07-.21-1.61-.08-3.22-.16-4.83-.24l-.15,.22c.2,.16,.4,.46,.59,.46,1.44-.04,2.88-.15,4.32-.23Zm9.53,58.86l-.03-.23c-1.64,.28-3.44-.67-4.94,.6,1.66-.12,3.32-.25,4.97-.37Zm-153.32-2.88h3.7c-1.33-.77-2.83-.7-3.7,0Zm33.84,.63l.02,.23h4.25c0-.08,0-.15-.01-.23h-4.26ZM438.19,10.35q-3.85-1.23-4.13-.43c1.39,.14,2.76,.28,4.13,.43Zm-71.16,71.1l-.02-.05h-5.59l.03,.36c1.86-.1,3.72-.2,5.58-.31Zm33.64-63.04c-1.39-.75-3.77-.49-3.94,.23,1.31-.08,2.63-.15,3.94-.23Zm-272.81,3.11c0-.09,0-.18,0-.27-1.56,.14-3.18-.2-4.68,.33,.01,.08,.02,.17,.03,.25,1.55-.1,3.1-.2,4.65-.3Zm364.75,5.02c.07-.15,.14-.3,.21-.45-1.59,.22-2.44-1.33-4.18-.75,1.32,.4,2.65,.8,3.97,1.21Zm-248.73,44.3c1.28-.12,2.34-.22,3.43-.32-.9-.73-2.67-.64-3.43,.32Zm-28.79,1.24c1.14,.19,2.28,.37,3.54,.58-.48-.78-2.08-1.06-3.54-.58Zm1.51-1.59c1.11,.74,2.27,.67,3.05,0h-3.05Zm88.6,2.05c1.81,.84,2.13,.74,2.43-.57-.75,.18-1.46,.35-2.43,.57Zm191.91-19.01l-.04,.18c.89,.11,1.78,.21,2.89,.35-.24-.43-.36-.66-.46-.83-.87,.11-1.63,.2-2.39,.29Zm-248.84,16.83c1.27,.4,2.54,.75,4.07,0h-4.07ZM385.02,17.92c1.46,.05,2.6,.09,3.74,.13-1.13-.76-2.28-.56-3.74-.13Zm-224.69,3.49v.32c1.07-.1,2.14-.2,3.2-.3l-.05-.35c-1.05,.11-2.1,.22-3.15,.32Zm7.54-.27c.02-.12,.04-.24,.05-.35-1.09,.04-2.17,.08-3.26,.13l.02,.4c1.06-.06,2.12-.12,3.18-.17Zm38.69,53.33c.69,.69,2.29,.76,3.29,.18-1.19-.07-2.1-.11-3.29-.18Zm269.11-.39c.92-.05,1.67-.1,2.71-.16-1.41-.78-1.67-.76-2.71,.16ZM360.89,12.37c0,.1-.02,.2-.03,.31,1.15,.05,2.3,.1,3.45,.15,0-.09,.02-.19,.03-.28-1.15-.06-2.3-.12-3.44-.18Zm-206.16,9.39l.02-.32h-2.58v.32h2.55ZM427.92,8.33c-.01,.12-.02,.24-.03,.36,.83-.02,1.63,.56,2.47,.09,0-.12,.01-.24,.02-.36l-2.46-.09Zm23.29,3.07c.61,.8,1.33,.68,2.05,.48l.04-.37c-.7-.04-1.39-.07-2.09-.11ZM30.15,10.44c.81,.03,1.62,.07,2.42,.1l.02-.32c-.77-.52-1.59-.3-2.44,.22Zm141.13,1.45l-.02,.2c1.39-.05,2.79-.1,4.18-.16l-.03-.27-4.13,.22Zm61.96,4.48c-.62,.23-1.24,.47-1.86,.7,.8,.06,1.78,.47,1.86-.7Zm195.48-7.23c-.02,.15-.05,.3-.07,.44,.8,.09,1.61,.18,2.41,.26,.02-.09,.03-.17,.05-.26-.8-.15-1.59-.3-2.39-.45Zm-237.06,9.93c-.02-.12-.04-.24-.05-.36-1.16,.12-2.32,.25-3.48,.37,0,.07,.02,.15,.03,.22,1.17-.08,2.34-.16,3.51-.24Zm12.21,59.22v-.52c-.67,.04-1.34,.09-2,.13,0,.1,.02,.19,.03,.29,.66,.03,1.32,.07,1.98,.1ZM162.32,13.73l-.03-.36-2.84,.13c0,.11,.02,.22,.02,.33l2.85-.1Zm19.03,6.61c.04,.13,.09,.25,.13,.38,.85-.19,1.7-.38,2.55-.57l-.12-.35c-.85,.18-1.71,.36-2.56,.54ZM102.47,12.18v-.12h-3.5l.02,.27c1.16-.05,2.32-.1,3.48-.15Zm127,66.85c.01,.12,.02,.25,.03,.37,.83-.03,1.66-.06,2.48-.09l-.02-.28h-2.5ZM155.94,15.47l-.03,.33c.9,.07,1.8,.13,2.7,.2l.04-.43c-.9-.03-1.81-.07-2.71-.1Zm328.31,58.81c-.77,.29-1.28,.48-1.98,.74,1.36,.41,1.47,.37,1.98-.74Z"/><path class="c" d="M221.78,7.1c.65-.91,.1-1.09-.76-1.05-1.22,.07-2.44,.17-3.66,.24-1.28,.08-2.56,.09-3.82,.22-.83,.09-1.63,.34-2.45,.5-.66,.12-1.32,.25-1.99,.3-2.91,.23-5.81,.43-8.72,.63-1.35,.09-2.71,.13-4.07,.23-1.45,.1-2.89,.25-4.33,.37-.2,.02-.45,.09-.59,.03-1.12-.53-2.21-.02-3.31,0-1.8,.01-3.6-.16-5.49-.46,.35-.14,.68-.34,1.05-.4,3.63-.57,7.23-1.31,10.9-1.62,4.48-.38,9-.49,13.51-.55,6.72-.09,13.44,.01,20.15-.05,3.95-.04,7.9-.23,11.86-.35,.31,0,.62,.03,.93,.04,.01,.1,.02,.2,.03,.29-6.32,.53-12.65,1.07-19.23,1.62Z"/><path class="c" d="M502.35,81.26c-1.83,.34-3.3,.61-4.76,.88,.03,.13,.05,.26,.08,.39l3.68-.13,.03,.12c-1.27,.21-2.54,.42-3.81,.63v.13l1.23,.22c-.43,.22-.69,.45-1,.5-1.2,.16-2.44,.21-3.63,.4-.77,.13-1.49,.44-2.23,.67-.21,.07-.42,.18-.63,.19-3.37,.17-6.75,.35-10.12,.47-.63,.02-1.28-.22-1.91-.34l.03-.31c.35-.16,.7-.32,1.23-.56-.61-.09-1.04-.16-1.86-.29,.55-.13,.76-.2,.98-.23,2.19-.3,4.48-.38,6.54-.95,4.99-1.37,10.16-1.56,15.35-1.83,.16,0,.31,.01,.8,.04Z"/><path class="c" d="M261.84,14.22c1.14-.59,2.24-.36,3.35-.37,3.51-.05,7.01-.23,10.52-.35,.19,0,.4,0,.58,.05,1.95,.57,3.7,.11,5.45-.56,.46-.18,1.11-.07,1.73,.11-.25,.15-.5,.29-.75,.44l.02,.28c4.23,.08,8.46,.15,12.93,.24-.44,.14-.68,.27-.92,.28-2.16,.04-3.94,.8-5.69,1.67-.46,.23-1.14,.78-1.69-.13-.14-.24-1.08-.2-1.65-.3-.18-.03-.34-.1-.8-.25,.98-.19,1.68-.33,2.42-.47-.88-.68-2.18-.63-3.53,.04-.33,.16-.74,.26-1.13,.31-2.49,.26-5-.54-7.48,.09-1.71-.8-3.56-.27-5.35-.35-.2,0-.43-.06-.59,0-1.19,.41-2.13-.43-3.29-.36-1.18,.07-2.38-.11-3.57-.18-.15,0-.29-.09-.56-.18Z"/><path class="c" d="M311.73,16.39c-1.7-.86-3.44-.84-5-.28-1.26-.3-2.4-.57-3.53-.84l-.06-.25c1.07-.19,2.13-.49,3.22-.55,2.09-.1,4.19-.08,6.28-.06,1.13,.01,2.26,.14,3.54,.23-.28,.28-.49,.5-.63,.65h-2.79v.24c1.54,.07,3.08,.14,4.63,.21l.05-.12-.79-.24c.35-.23,.67-.44,1.23-.81,.49,.06,1.35,.16,2.22,.27l.06,.26c-.44,.19-.88,.37-1.32,.56l.12,.24c.78-.23,1.56-.47,2.36-.67,.27-.07,.58-.04,.87-.05v.78c.8-.2,1.5-.39,2.21-.55,.3-.07,.62-.15,.93-.14,.42,.02,.84,.11,1.25,.2,.03,0,0,.32-.03,.32-.38,.02-.76-.02-1.13,.01-1.49,.13-2.98,.28-4.74,.46,1.1,.38,1.91,.66,2.97,1.03-.44,.08-.67,.18-.89,.16-1.49-.08-2.97-.24-4.45-.27-1.15-.02-2.32,.03-3.44,.2-1.39,.21-2.23-.41-3.14-.99,1.6,.59,3.19,.19,4.78,.11,0-.1,0-.21,0-.31-1.59,.07-3.18,.13-4.77,.2Z"/><path class="c" d="M450.3,8.81c1.15,.19,2.31,.37,3.46,.56v.18c-2.3-.19-4.59-.39-6.9-.59,0-.59-1.46-1.07-2.75-1.04-2.06,.05-4.14-.06-6.2-.12-.21,0-.41-.14-.6-.37h6c-.65-.3-1.16-.55-1.68-.79,.06-.11,.11-.23,.17-.34,4.61,.4,9.22,.8,13.83,1.2l-.03,.27c-.95-.04-1.91-.08-2.86-.12l-.05,.36c5.99,.38,11.89,1.19,17.74,2.16-6.65-.86-13.33-1.47-20.06-1.67l-.07,.3Z"/><path class="c" d="M286.23,75.81l-.79,.14,.53,.38c-1.39,.63-2.82,.2-4.23,0-.02,.07-.04,.15-.06,.22l1.14,.67-.15,.25c-1.62-.25-3.23-.5-4.85-.74-.87-.13-1.74-.25-2.44,.37-.13,.11-.46,.17-.65,.13-1.45-.27-2.88-.58-4.33-.85-.34-.06-.71-.04-1.06-.05-1.45-.05-2.89-.09-4.34-.14-.22,0-.43-.1-.74-.19,2.02-.52,4.16,.36,6.06-.61,.24,.62,.73,.47,1.47,.24,1.27-.41,2.64-.65,3.96-.96,.35,.85,1.61,1.51,2.83,1.51,.96,0,1.92,0,2.88-.07,1.57-.11,3.14-.26,4.7-.4l.06,.09Z"/><path class="c" d="M192.08,9.59h-4.81c0,.1,0,.2-.01,.3,1.08,.07,2.17,.14,3.25,.21-2.04,.14-3.99,.55-5.97,.9-2.03,.35-4.25,.08-6.54,.08,.33-.14,.54-.22,.98-.41-1.21-.18-2.11-.75-3.19-.18-.18,.09-.47,.15-.68,.12-1.77-.25-3.53-.51-5.54-.81,.56-.1,1.01-.28,1.43-.25,1.76,.12,3.51,.35,5.27,.45,1.02,.06,2.05-.02,3.08-.07,4.01-.19,8.02-.4,12.04-.59,.24-.01,.48,.03,.71,.05,0,.07-.01,.15-.02,.22Z"/><path class="c" d="M262.17,78.35c.45,.29,.89,.58,1.34,.87,.42,.27,.85,.54,1.28,.82-1.17,0-2.38-.04-3.59,.02-.47,.02-.91,.31-1.39,.38-.48,.08-1.19,.2-1.46,.02-1.16-.78-2.49-.57-3.8-.58-1.41-.01-2.82-.08-4.51-.14,1.23-1.1,2.72-.63,3.92-1.1-.72-.09-1.45-.19-2.17-.28,.01-.1,.03-.19,.04-.29,1.94,.19,3.88,.44,5.82,.53,1,.05,2.01-.22,3.02-.3,.5-.04,1.01,.03,1.53,.05-1.15,.2-2.31,.41-3.47,.61v.08h3.82c-.05-.24-.04-.34-.09-.41-.08-.1-.2-.19-.3-.28Zm.78,1.35c0-.1-.01-.2-.02-.29h-5.75c0,.11,0,.22,0,.33,1.93-.21,3.84,.4,5.78-.04Z"/><path class="c" d="M311.03,78.3h-4.74l-.02,.25c.16,.06,.31,.13,.47,.19v.18c-1.09,0-2.19,.03-3.28,0-1.27-.04-2.53-.17-3.8-.19-.67-.01-1.34,.1-2.02,.17-.67,.07-1.39,.5-1.89-.35-.1-.17-1.24-.04-1.87,.06-.56,.09-1.08,.32-1.73,.31,.58-.41,1.13-.82,2.01-.84,4.02-.1,8.04-.21,12.06-.32,.32,0,.64-.03,1.04-.05-.03-.2-.06-.38-.13-.81,1.45,.37,2.71,.7,3.96,1.02l-.06,.39Z"/><path class="c" d="M284.35,15.71c-.34,.1-.68,.2-1.11,.33,1.02,.8,2.31-.79,3.38,.51-1.42,0-2.63,0-3.83,0-.91,0-1.82,0-2.74,.02-1.49,.03-2.99,.06-4.48,.15-.36,.02-1.38-.31-.87,.57-.3,.04-.6,.08-.85,.12-.03-1.58-1.67-.5-2.42-.83,.41,.15,.82,.29,1.45,.52h-4.48c.14-1.3-1.58-.2-2.04-.79,5.98-.28,11.96-.55,17.93-.83l.05,.24Z"/><path class="c" d="M191.74,12.72c6.25-.13,12.5-.73,18.76,.19-6.25,.59-12.5,.49-18.76,.26,0-.15,0-.3,0-.44Z"/><path class="c" d="M249.99,6.66c1.25-.29,2.5-.62,3.76-.87,1.77-.36,3.38-1.12,5.29-1.11,3.58,.02,7.16,0,10.72-.18-3.03,.26-6.09,.42-9.1,.82-3.01,.4-5.96,1.05-8.94,1.58-.53,.09-1.07,.11-1.61,.16l-.13-.4Z"/><path class="c" d="M189.1,83.45c-1.08-.09-2.1-.18-3.13-.27,.02-.13,.04-.27,.06-.4,2.55,.1,5.1,.21,7.65,.31,0,.1,.01,.2,.02,.3-.25,.07-.5,.14-.75,.21l.02,.15h8.58v.1c-1,.17-1.99,.43-3,.5-1.03,.08-2.08-.03-3.12-.04-1.08-.01-2.16-.01-3.24,0-.72,.01-1.43,.04-2.15,.1-.91,.07-1.39-.12-.96-.96Z"/><path class="c" d="M315.04,78.52c.73,.04,1.43,.21,2.02,.08,.87-.2,1.77-.52,2.46-.97,.9-.59,1.77-.51,2.8-.37,.8,.11,1.65-.02,2.48-.07,.43-.03,.85-.11,1.45-.19-.64,1.11,.77,.87,1.4,1.39-1.02,0-1.86-.08-2.66,.02-2.11,.25-4.31-.78-6.36,.38-.97,.55-2.98,.35-3.57-.26Z"/><path class="c" d="M263.04,76.09c-3.41-.54-6.55,.93-9.94,.59-.01,.08-.02,.16-.03,.23-.32-.34-.64-.69-.97-1.05,.59-.33,1.17-.67,1.9-1.09l-1.65-.22c1.1-.16,2.24-.48,3.15,.3,.19,.16,.28,.4,.51,.75,1.13-.17,2.44,.53,3.99-.04,.73-.26,1.99,.34,3.01,.54l.03-.02Z"/><path class="c" d="M247.3,13.77c-.32-.2-.59-.37-1.1-.69,3-.92,5.96-.18,8.78-.57-1.27,1-2.98,.38-4.61,.64,1.33,1.23,2.9,.74,4.37,.82-1,.68-4.91,.94-6.22,.42,.56-.12,1.02-.22,1.49-.32-.33-.93-.95-.99-2.7-.29Z"/><path class="c" d="M305.33,17.23c-1.51,.16-3.02,.31-4.53,.47-.03-.12-.05-.25-.08-.37,.79-.08,1.58-.17,2.37-.25-.01-.08-.03-.15-.04-.23-1.03,.1-2.06,.15-3.07,.3-.84,.13-1.63,.44-2.47,.54-.35,.04-.77-.25-1.16-.39-.2-.08-.39-.24-.59-.25-1.39-.02-2.78,0-4.16,0-.78,0-1.56,0-2.34-.13,2.8-.31,5.63-.18,8.64-.2-.37,.18-.6,.29-.84,.4,.7,.11,1.5,.54,1.83-.35,.04-.1,.32-.22,.48-.22,1.08,.02,2.15,.09,3.23,.12,.52,.01,1.05-.08,1.55-.01,.45,.06,1.37-.25,1.15,.6l.03-.02Z"/><path class="c" d="M270.59,78.45c2.24-.07,4.52-.15,6.8-.22,2.66-.08,5.33-.41,7.99,.04,.18,.03,.42,0,.58-.06,1.07-.45,1.73-.32,1.83,.79-2.07-1.21-4.27-.06-6.42-.27-1.46-.14-2.97-.09-4.45-.05-.59,.02-1.17,.24-1.76,.35-.22,.04-.46,.09-.67,.06-1.3-.2-2.6-.43-3.91-.64Z"/><path class="c" d="M158.6,80.19c.85-.07,1.72-.14,2.59-.21,.02,.08,.04,.15,.06,.23-.36,.12-.71,.25-1.07,.37v.15c3.71,.11,7.41,.21,11.11,.32l-.02,.44c-5.39-.18-10.78-.37-16.16-.55l.02-.35c1.29,.04,2.58,.09,4.15,.14-.38-.3-.54-.44-.68-.54Z"/><path class="c" d="M60.19,95.52c.13,.26,.26,.5,.5,.95-.67,.1-1.37,.23-2.07,.32-1,.13-2.01,.27-3.02,.32-.55,.03-1.12-.11-1.68-.33,.94-.64,1.79-1.07,3.12-.93,1.04,.11,2.16-.22,3.16-.34Z"/><path class="c" d="M302.97,77.33c-3.48-.23-7.06,.81-10.47-.36,0-.11,.01-.22,.02-.33,3.49,.11,6.99,.21,10.48,.32l-.03,.37Z"/><path class="c" d="M0,68.87c2.48-.24,4.92-.47,7.4-.71-.05,.12-.13,.31-.25,.59h2.56c-1.04,.65-8.35,.7-9.72,.12Z"/><path class="c" d="M258.81,81.54c-3.8-.54-7.76,.55-11.48-.76,.84-.22,1.68-.61,2.45,.15,.21,.2,.85,.3,1.21,.23,2.01-.41,3.99-.36,6-.02,.59,.1,1.24,.02,1.86,.02l-.05,.38Z"/><path class="c" d="M201.78,9.87c-1.57,.32-3.13,.64-4.7,.96-.03-.08-.07-.17-.1-.25,.36-.14,.71-.27,1.07-.41l-.06-.23c-.78,.07-1.56,.15-2.55,.24,.6-.26,1.05-.44,1.81-.77h-1.67v-.2h3.84c-.51,.06-.86,.1-1.21,.14v.21c1.2,.06,2.4,.13,3.6,.19l-.03,.11Z"/><path class="c" d="M430.42,1.78c-4.74,.1-9.47,.2-14.21,.31v-.26l14.19-.39c0,.11,.02,.23,.02,.34Z"/><path class="c" d="M244.3,13.14h-10.56c.7-.62,.69-.58,3.46-.37,1.18,.09,2.4-.07,3.59-.03,1.16,.05,2.32,.21,3.47,.32l.04,.07Z"/><path class="c" d="M51.78,5.5c-2.04,.36-4.29,.75-6.56,1.14,.16-.94,1.11-1.52,2.44-1.45,1.45,.07,2.89,.21,4.12,.31Z"/><path class="c" d="M287.45,12.71c.66-.68,3.47-.82,7.67-.38-.85,.5-4.17,.66-7.67,.38Z"/><path class="c" d="M305.3,17.25c2.04-.89,4.2-.51,6.33-.33,.19,.02,.35,.21,.74,.47-.69,.06-1.13,.13-1.57,.13-1.5,0-3.01-.02-4.51-.06-.32,0-.64-.15-.96-.23l-.03,.02Z"/><path class="c" d="M312.99,10.89c-.78,.2-1.57,.4-2.67,.68l1.18,.19c-1.83-.16-3.73-.33-5.63-.5-.01-.05-.02-.11-.04-.16,1.35-.14,2.71-.28,4.42-.46,.64,.06,1.69,.15,2.74,.25Z"/><path class="c" d="M280.76,72.93c1.22-.12,2.44-.23,3.86-.37-.31,.27-.51,.45-.94,.83,2.21,.22,4.17,.42,6.13,.62v.08c-1.61,0-3.22,0-4.82,0-.23,0-.53-.04-.68-.15-.99-.77-2.17-1.04-3.6-.73l.05-.27Z"/><path class="c" d="M178.9,81.27h9.43c-.18,.13-.34,.33-.53,.36-.9,.11-1.83,.29-2.72,.23-2.17-.14-4.32-.4-6.18-.59Z"/><path class="c" d="M263,76.11c.57,.03,1.23-.02,.74,.71-.12,.17,.13,.49,.24,.81-1.84,.12-3.61,.23-5.39,.34l-.04-.36c1.44-.09,2.88-.18,4.33-.27,0-.1,0-.19,0-.29h-2.13l-.03-.28c.48-.05,.95-.1,1.43-.15,.44-.05,1.14,.16,.89-.55l-.04,.02Z"/><path class="c" d="M248.81,79.61c-1.47,.06-2.98,.9-4.41,.05-.29-.17-.42-.52-.62-.78,.36,0,.74-.06,1.09,0,1.32,.22,2.62,.48,3.93,.72Z"/><path class="c" d="M211.49,9.72c.06,.37,.11,.65,.16,.98-1.9-.11-3.77-.21-5.64-.32v-.28c1.8-.12,3.6-.25,5.48-.38Z"/><path class="c" d="M496.66,57.03h4.48c-.56-.18-.9-.29-1.28-.41,.88-.6,1.67-.23,2.59,.11-.25,.13-.41,.23-.64,.35,.37,.12,.7,.23,1.03,.34l-.08,.31c-2.03-.23-4.07-.46-6.1-.69h0Z"/><path class="c" d="M513.53,70.03h7.07c-2.36,.83-4.73,.36-7.09,.35l.03-.35Z"/><path class="c" d="M26.27,16.53c-.65-.69-1.19-1.27-1.73-1.84,.06-.08,.13-.17,.19-.25,1.06,.3,2.13,.59,3.51,.98-.75,.43-1.29,.73-1.96,1.11Z"/><path class="c" d="M329.53,16.75c-.46-.3-.68-.44-.88-.57,.21-.55,2.88-.89,4.06-.56-.88,.2-1.76,.39-2.49,.56-.22,.55-.25,1.28-.63,1.41-.48,.17-1.25-.15-1.88-.26,.5-.16,1.03-.32,1.82-.57Z"/><path class="c" d="M278.8,80.11c1.42-.12,2.62,.79,4.19,.43,1.31-.29,2.82-.06,4.35,.16-.25,.06-.49,.18-.74,.18-1.85,.03-3.7,.11-5.55,.04-.78-.03-1.54-.36-2.3-.55,.02-.09,.04-.18,.06-.27Z"/><path class="c" d="M418.29,3.59c-1.38,.61-4.73,.51-6.43-.24,2.05,.08,4.1,.15,6.43,.24Z"/><path class="c" d="M511.06,38.34c.74-.66,3.1-.52,6.1,.47-2-.15-3.99-.31-6.1-.47Z"/><path class="c" d="M245.63,9.31c-1.63,.23-3.19,.45-5.05,.7,.24-.35,.32-.67,.52-.72,.61-.17,1.28-.34,1.92-.33,.85,.02,1.69,.21,2.62,.35Z"/><path class="c" d="M286.61,10.91c.35-.11,.7-.23,1.05-.34-.01-.07-.02-.13-.04-.2h-1.61c.89-.35,1.77-.63,2.55,.09,.13,.12,.54,.09,.81,.08,.44-.02,.88-.08,1.34-.03-1.22,1-2.75,.17-4.11,.41Z"/><path class="c" d="M130.34,7.03h6.03c0,.08,.01,.15,.02,.23-.8,0-1.6-.06-2.38,.02-.91,.09-1.99-.3-2.72,.49-.04,.04-.71-.26-1.08-.41,.05-.11,.09-.22,.14-.33Z"/><path class="c" d="M424.05,4.26c1.93,.15,3.86,.31,5.79,.46l-.06,.36c-.87-.05-1.9,.64-2.54-.48-.03-.06-.48,.02-.73,.04-.84,.07-1.67,.15-2.51,.22,.02-.2,.04-.4,.05-.6Z"/><path class="c" d="M232.6,13.13h-4.74c.6-.66,2.78-.71,4.72-.27,0,.09,.01,.18,.02,.27Z"/><path class="c" d="M265.93,12.66c-2.33,.26-4.66,.51-6.99,.77-.02-.1-.03-.19-.05-.29,2.25-.85,4.68-.42,7.04-.48Z"/><path class="c" d="M212.94,7.62c2.21-.33,4.42-.66,6.63-1l.07,.29c-2.21,.34-4.43,.69-6.64,1.03-.02-.11-.03-.22-.05-.33Z"/><path class="c" d="M503.92,43.58c1.95-.14,3.89-.02,5.8,.42,0,.09-.01,.18-.02,.27-1.92-.14-3.84-.28-5.76-.42,0-.09-.01-.18-.02-.27Z"/><path class="c" d="M218.86,11.38l5.16-.26c0,.12,.02,.24,.02,.36h-5.16l-.03-.1Z"/><path class="c" d="M173.88,9.06c2.4-.25,4.79-.5,7.18-.74l.04,.24c-2.39,.28-4.77,.55-7.16,.83l-.07-.32Z"/><path class="c" d="M439.41,1.54h-7.28c1.19-.49,6.5-.43,7.28,0Z"/><path class="c" d="M504.51,23.96c1.87-.86,2.41,.3,3.31,1.03-.81-.11-1.7,.29-2.12-.59-.09-.19-.64-.25-1.18-.45Z"/><path class="c" d="M510.43,49.8c2.29,.27,4.58,.53,6.87,.8v.1c-1.15-.06-2.3-.09-3.43-.2-1.16-.11-2.31-.29-3.47-.44,0-.09,.02-.17,.03-.26Z"/><path class="c" d="M193.07,80.43c-1.18,.06-2.36,.15-3.54,.17-.22,0-.45-.26-.67-.4,.23-.11,.47-.33,.69-.31,1.17,.07,2.34,.19,3.51,.3l.02,.25Z"/><path class="c" d="M481.39,12.75c2.44-.45,4.88-.91,7.48-1.39-2.35,1.26-4.94,1.27-7.5,1.38h.02Z"/><path class="c" d="M332.45,14.65c1.54,.1,3.09,.2,4.74,.31-.77,.38-1.39,.83-2.34,.22-.24-.15-.84,.05-1.27,.03-.4-.02-.8-.13-1.19-.2,.02-.12,.04-.23,.06-.35Z"/><path class="c" d="M279.07,85.03h-6.36v-.16h6.36v.16Z"/><path class="c" d="M256.64,14.24c1.39-.13,2.78-.26,4.18-.38-1.29,.88-2.7,1.03-4.18,.38Z"/><path class="c" d="M234.66,85.46h-5.7c0-.08,0-.15,0-.23h5.7v.23Z"/><path class="c" d="M251.62,11.2c-.8,.69-3.15,.72-4.65,0h4.65Z"/><path class="c" d="M172.96,80.18c-1.59,.59-3.1,.62-4.47-.33,.28,.05,.56,.08,.84,.14,.67,.15,1.27,.56,2-.05,.2-.16,1.07,.15,1.63,.24Z"/><path class="c" d="M20.77,16.45c.99,.1,1.92,.19,3.03,.3-.59,1.23-1.92,.18-2.63,.59l-.41-.9Z"/><path class="c" d="M515.07,55.83c-.61,.5-2.38,.5-4.4-.2,1.44,.07,2.88,.13,4.4,.2Z"/><path class="c" d="M419.61,4.01c1.13-.09,2.25-.17,3.38-.26l.03,.26c-1.11,.6-1.96,.66-3.41,0Z"/><path class="c" d="M282.12,18.79c-.96,.14-1.92,.51-2.76-.22,.81-.65,1.89-.56,2.76,.22Z"/><path class="c" d="M270.54,80.78c1.78,.15,3.56,.3,5.34,.45,0,.08-.02,.17-.03,.25-1.8-.1-3.59-.2-5.39-.3l.07-.4Z"/><path class="c" d="M408.81,86.56c-.7,.69-3.19,.7-4.51,0h4.51Z"/><path class="c" d="M457.6,87.35c1.8,.16,3.48,.3,5.32,.46-1.03,.46-3.15,.25-5.32-.46Z"/><path class="c" d="M353.68,5.29c-.78,.75-2.41,.67-3.73-.13,1.25,.04,2.45,.09,3.73,.13Z"/><path class="c" d="M481.03,82.8h-4.95v-.19h4.94v.19Z"/><path class="c" d="M5.93,46.08c.44-.09,.88-.19,1.32-.28l-.44-.39c.71,.17,1.41,.35,2.12,.52-.04,.09-.07,.19-.11,.28h-2.84l-.05-.12Z"/><path class="c" d="M491.06,87.15c1.74-.12,3.49-.23,5.23-.35l.04,.27c-1.75,.13-3.51,.26-5.26,.39,0-.1,0-.21,0-.31Z"/><path class="c" d="M260.8,20.08c-1.17-.1-2.35-.21-3.52-.31,1.24-.34,2.46-.49,3.52,.31Z"/><path class="c" d="M367.39,85.32c1.21,.08,2.46-.95,3.89,.22-1.5-.08-2.7-.15-3.89-.22Z"/><path class="c" d="M218.39,.26c1.58-.09,3.16-.17,4.75-.26,.01,.12,.02,.23,.03,.35-1.58,.09-3.16,.17-4.75,.26-.01-.12-.02-.23-.03-.35Z"/><path class="c" d="M155.56,9.09c-1.46,.17-2.92,.35-4.37,.52-.02-.12-.04-.24-.05-.36l4.4-.41,.03,.25Z"/><path class="c" d="M256.76,84.93h4.68c0,.06,0,.12,0,.19h-4.68v-.19Z"/><path class="c" d="M257.09,9.12c-.52,.17-1.04,.34-1.55,.5,.04,.09,.08,.19,.12,.28-.42-.02-.85-.04-1.37-.07,.98-.33,1.45-1.74,2.8-.71Z"/><path class="c" d="M511.64,57.67c-1.59-.13-3.18-.26-4.77-.38,0-.07,.01-.14,.02-.21,1.59,.08,3.18,.16,4.77,.25,0,.12-.01,.23-.02,.35Z"/><path class="c" d="M275.23,13.01c-1.22-.07-2.45-.14-3.69-.21,1.22-1.03,2.46-.14,3.69,.21Z"/><path class="c" d="M273.26,80.25h3.92c0,.09,0,.19,0,.28h-3.92c0-.09,0-.19,0-.28Z"/><path class="c" d="M510.46,64.06h3.74v.3h-3.71c0-.1-.02-.2-.02-.3Z"/><path class="c" d="M351.58,85.48c-1.16,.14-2.32,.28-3.49,.42l-.07-.37c1.17-.11,2.34-.23,3.51-.34,.02,.1,.03,.19,.05,.29Z"/><path class="c" d="M317.54,83.94h-5.33v-.07c1.77-.07,3.54-.14,5.31-.21l.02,.29Z"/><path class="c" d="M359.99,17.39q-.69,.31-1.96-.96c.56,.14,.93,.17,1.19,.31,.28,.15,.48,.39,.77,.64Z"/><path class="c" d="M294.43,16.14c.21-.53,.41-1.04,.61-1.56l.3,.09q.07,1.6-.92,1.47Z"/><path class="c" d="M510.09,30.76c-.35,0-.71,.02-1.06,0-1.13-.09-2.25-.21-3.38-.31l.04-.26c1.45,.17,2.9,.33,4.35,.5l.04,.08Z"/><path class="c" d="M196.75,81.29c-1.13,.07-2.26,.13-3.49,.2,.42-.58,1.51-.66,3.49-.2Z"/><path class="c" d="M512.59,47.72c.99,.11,1.98,.21,2.97,.32l-.07,.39c-.99-.12-1.98-.23-2.97-.35l.07-.35Z"/><path class="c" d="M378.7,6.06c.88,.18,1.77,.36,2.68,.55-.15,.65-.29,.64-2.68-.55Z"/><path class="c" d="M143.86,8.45c1.24-.07,2.49-.14,3.73-.21l.02,.34c-1.25,.06-2.49,.11-3.74,.17l-.02-.3Z"/><path class="c" d="M503.36,75.53h4.5c0,.06,0,.12,0,.18h-4.5v-.18Z"/><path class="c" d="M377.5,6.65c-.92-.12-1.83-.24-2.75-.36,.02-.1,.04-.19,.06-.29,.93,.06,1.85,.12,2.78,.18l-.09,.47Z"/><path class="c" d="M162.09,82.15c.85,.03,1.71,.06,2.56,.09-.01,.16-.02,.32-.04,.47-.85-.06-1.7-.11-2.56-.17,0-.13,.02-.27,.03-.4Z"/><path class="c" d="M359.18,86.4c-.31-.08-.59-.15-1.04-.26,1.61-.31,1.64,.52,2.07,1.3-.52-.11-.83-.18-1.22-.26,.06-.26,.11-.48,.18-.78Z"/><path class="c" d="M23.47,100.96c-.62,.27-1.25,.54-1.87,.81-.06-.06-.12-.11-.18-.17,.12-.24,.23-.47,.35-.71,.54-.03,1.07-.07,1.59-.1l.1,.17Z"/><path class="c" d="M142.45,82.3c.28-.23,.55-.63,.83-.64,.43,0,.86,.27,1.29,.42-.04,.11-.09,.21-.13,.32-.67-.04-1.34-.08-2.02-.13l.03,.02Z"/><path class="c" d="M241.14,11.79q.03-1.34,1.26-.98c-.44,.34-.85,.66-1.26,.98Z"/><path class="c" d="M345.2,8.61c.77,.15,1.55,.29,2.34,.44-.33,.65-.93,.55-2.34-.44Z"/><path class="c" d="M513.95,30.11c.96,.09,1.92,.18,2.88,.27-.02,.12-.05,.24-.07,.36-.95-.12-1.91-.24-2.86-.36l.05-.27Z"/><path class="c" d="M343.46,4.87c.81,.15,1.62,.29,2.43,.44l-.18,.45c-.76-.21-1.51-.43-2.27-.64l.02-.25Z"/><path class="c" d="M301.9,76.54c.23-.76,.85-.89,2.27-.53-.84,.2-1.47,.35-2.27,.53Z"/><path class="c" d="M261.36,10.55c-.43,1.05-1,1.25-1.94,.68,.63-.22,1.17-.41,1.94-.68Z"/><path class="c" d="M208.84,11.35c.6,.06,1.2,.12,1.8,.18-.02,.14-.05,.29-.07,.43-.61-.04-1.22-.09-1.84-.13,.03-.16,.07-.32,.1-.48Z"/><path class="c" d="M329.84,85.05c-1.11,.07-2.22,.14-3.34,.21l-.02-.26c1.11-.06,2.23-.12,3.34-.17,0,.07,.01,.15,.02,.23Z"/><path class="c" d="M497.87,64.36h2.23v.22h-2.26l.02-.22Z"/><path class="c" d="M283.98,11.47c.96-.05,1.92-.1,2.88-.15,.01,.08,.02,.15,.04,.23-.96,.07-1.91,.15-2.87,.22l-.05-.3Z"/><path class="c" d="M494.39,75.67c-.67,.23-1.34,.45-2.01,.68l-.23-.44c.7-.19,1.39-.37,2.09-.56l.16,.32Z"/><path class="c" d="M260.85,9.7c-.91,.09-1.81,.18-2.72,.27l-.04-.36h2.76v.1Z"/><path class="c" d="M297.18,75.8c.88-.09,1.76-.18,2.64-.26,.02,.12,.05,.24,.07,.36-.88,.1-1.75,.21-2.63,.31-.03-.13-.06-.27-.09-.4Z"/><path class="c" d="M344.34,83.14h2.86v.22h-2.86c0-.07,0-.14,0-.22Z"/><path class="c" d="M214.19,11.54c.93-.05,1.87-.1,2.8-.14l.02,.28c-.93,.06-1.86,.11-2.79,.17-.01-.1-.02-.2-.03-.3Z"/><path class="c" d="M173.72,80.32h2.87c0,.07,.02,.15,.02,.22-.96,.04-1.91,.07-2.87,.11,0-.11-.02-.22-.03-.34Z"/><path class="c" d="M515.98,40.7l2.54,.15c-.02,.14-.03,.28-.05,.42-.84-.09-1.68-.17-2.52-.26l.03-.31Z"/><path class="c" d="M505.54,26.98c.98,.22,1.96,.44,2.94,.66l-.11,.3c-.98-.21-1.97-.42-2.95-.64,.04-.11,.08-.21,.12-.32Z"/><path class="c" d="M268.67,11.66h-2.89l-.02-.17c.97-.04,1.93-.07,2.9-.11l.02,.27Z"/><path class="c" d="M362.9,14.39c-.85,.08-1.71,.16-2.56,.24l-.07-.29c.34-.11,.69-.23,1.03-.34-.6-.55-.17-.71,.48-.66,1.07,.08,2.13,.26,3.2,.34,1.06,.08,2.13,.05,3.18,.12,.74,.05,1.47,.2,2.21,.3,.49,.07,.99,.13,1.62,.21-.26-.56-1.72-.24-1.14-.92-1.79-.1-3.61-.19-5.43-.29,2.72-.83,12.66-.46,15.62,.55-.03,.24-.05,.49-.09,.79,1.18-.12,2.28-.35,3.37-.32,1.03,.04,2.05,.36,3.07,.55l-.03,.34c-1.6,0-3.21,0-4.81,0-1.67,0-3.35-.03-5.02-.04-1.7,0-3.41,.03-5.11-.02-1.67-.04-3.33-.14-4.99-.26-1.53-.11-3.05-.27-4.57-.42l.05,.1Zm13.74-.46l-.05,.18h3.24l.02-.18h-3.2Z"/><path class="c" d="M468.45,14.86l-.49-.41c.17-.07,.26-.14,.37-.15,2.5-.21,4.88-.07,7.26,.79,1.49,.53,3.31,.5,4.97,.77,1.63,.27,3.23,.62,4.85,.94,.81,.16,1.62,.32,2.39,.55,.34,.1,.55,.44,.87,.6,.34,.17,.74,.3,1.13,.36,.46,.08,.95,.07,1.4,.21-1.51,.36-2.77-.16-4.09-.61-.97-.34-2.03-.61-3.08-.72-1.78-.19-3.59-.23-5.39-.33-.3-.02-.74-.1-.89,.02-.54,.41-.9,.45-1.28-.1-.06-.08-.35-.1-.53-.11-4.2-.22-8.4-.44-12.6-.66-.52-.03-1.05-.04-1.57-.17,2.12-.81,4.63,.27,6.69-.96Z"/><path class="c" d="M194.73,77.03c.93-.05,1.87-.1,2.8-.15v-.16c-.53-.08-1.08-.16-1.62-.24,4.03-1.02,8.01-.21,12-.01-.83,.04-1.66,.08-2.5,.13v.24c1.6,.07,3.2,.14,5.09,.22-.48-.28-.72-.42-1.09-.63,.36-.1,.57-.2,.78-.2,1.27-.02,2.55-.04,3.82,0,.56,.02,1.13,.27,1.61,.38,1.39,.33,3.05,.47,4.41,.17,.78-.17,1.52-.59,2.44-.54,.07,0,.14,.05,.14,.05-2.21,1.23-4.8,1.04-7.36,1.05-5.5,0-10.99,.04-16.49,.04-1.34,0-2.68-.08-4.02-.13v-.21Z"/><path class="c" d="M347.06,12.9c1.66-.25,3.16,.62,4.55-.23-.13-.14-.26-.27-.39-.4,.1-.07,.15-.14,.21-.14,1.28-.13,2.56-.29,3.84-.37,.45-.03,1.04,0,1.37,.21,.82,.5,1.53,.54,2.12,0,.65,.5,1.21,.93,2,1.55-.91,.04-1.38,.07-2.15,.11,.62,.3,.98,.48,1.35,.65l-.08,.27c-1.5-.06-2.99-.12-4.11-.17-.66-.43-1.08-.71-1.37-.9-.35,.49-.55,1.11-1.06,1.42-.78,.46-1.51-.13-1.92-.53-.79-.77-1.86-.95-2.97-1.16-.42-.08-.84-.18-1.39-.29Z"/><path class="c" d="M187.62,75.96c-.28,.05-.57,.1-.85,.16-.3,.07-.83,.14-.85,.26-.22,1.04-1.08,.6-1.83,.54-.42-.04-.86,.09-1.3,.09-1.56,.01-3.13,0-4.69,0l-.03-.25c.8-.07,1.61-.13,2.57-.21-1.2-.44-2.46-.19-3.24,.29-.47,.29-1.24,.3-1.98,.45,.05-.46,.16-.86,.08-.88-.59-.17-1.32-.48-1.81-.34-1.76,.5-3.51,.7-5.35,.44-.15-.02-.29-.08-.44-.12-.03,0-.03-.05-.09-.17,.63,0,1.23-.04,1.81,0,.84,.06,1.46-.13,2.24-.45,.99-.4,2.39-.31,3.6-.26,1.15,.05,2.22,.2,3.45,.04,1.96-.26,4.04-.03,6.07,0,.86,.01,1.72,.06,2.58,.1,.02,.1,.03,.2,.05,.3Z"/><path class="c" d="M232.43,71.4c-1.07,.05-2.15,.09-3.22,.14-.08-.09-.17-.18-.25-.27,.32-.05,.63-.1,.95-.15l-.34-.35c-.36,.11-.73,.19-1.06,.33-.85,.34-1.5,.41-2.51,0-.99-.4-2.37-.24-3.58-.32-.22-.01-.44,.02-.66,.03,0-.11,0-.22,0-.34h14.13c-.42,.5-.41,.48-2.54,.31-.94-.07-1.9-.01-2.85-.01,0,.1,0,.19,0,.29,.65,.04,1.3,.08,1.95,.12,0,.07,0,.15-.01,.22Z"/><path class="c" d="M33.8,91.53c3.68-.13,7.35-.27,11.03-.4l.05,.18c-.35,.1-.7,.25-1.06,.29-2.44,.24-4.87,.51-7.32,.64-.89,.05-1.82-.23-2.73-.36,0-.12,.02-.24,.03-.36Z"/><path class="c" d="M46.45,88.98c1.91-.28,3.74-.54,5.52,.44,.65,.36,1.69,.3,2.77,.46-1.58,.45-3.02-.03-4.39,.1-1.6,.15-2.63-.6-3.9-1Z"/><path class="c" d="M181.46,21.47c-2.46,.04-4.91,.08-7.3-.47v-.39c.35-.03,.69-.06,1.03-.07,1.3-.06,2.61-.14,3.91-.15,.32,0,.64,.28,.98,.4,.47,.15,.95,.27,1.43,.4l-.05,.29Z"/><path class="c" d="M217.28,18.27h-12.91v-.18c4.28-.1,8.57-.21,12.87-.31,.02,.17,.03,.33,.05,.5Z"/><path class="c" d="M451.24,84.16c1.47-.16,2.93-.32,4.4-.49l.05,.28c-.37,.03-.73,.05-1.1,.08v.14h5.84v.25c-3.03,.61-6.09,.07-9.13,.08l-.05-.35Z"/><path class="c" d="M450.85,84.13c-.44,.12-.88,.35-1.31,.33-2.54-.11-5.07-.28-7.59-.62,1.14,0,2.28,0,3.42,0,.28,0,.55,.09,.83,.08,1.51-.1,3.01-.21,4.51-.32l.14,.53Z"/><path class="c" d="M490.14,22.29c-.75,.29-1.35,.53-1.96,.74-.2,.07-.48,.06-.7,.02-1.19-.2-2.37-.43-3.91-.71,2.38-.51,4.43-.38,6.57-.06Z"/><path class="c" d="M45.62,89.85c-.52-.02-1.03-.04-1.83-.07,.39,.36,.59,.55,.79,.74-.56,.68-1.48,.51-2,.24-.38-.21-.32-.9-.51-1.54,1.39,.11,2.49,.19,3.59,.28l-.04,.36Z"/><path class="c" d="M346.1,14.65c1.1-.18,2.2-.41,3.31-.52,.46-.04,.96,.18,1.45,.29-.49,.15-.97,.35-1.48,.44-.47,.08-.97,.05-1.46,.07,0,.08-.02,.17-.03,.25,.42,.08,.83,.16,1.25,.23-.02,.07-.05,.14-.07,.21-1.02-.19-2.03-.38-3.05-.57,.02-.13,.05-.26,.07-.4Z"/><path class="c" d="M356.61,19.01c-.92,.08-1.84,.16-2.79,.25,.07,.08,.24,.27,.57,.63-1.21,.06-2.28,.11-3.34,.16l-.04-.15,1.2-.19c-.09-.04-.18-.08-.27-.12,.2-.28,.37-.78,.59-.79,1.25-.08,2.52-.05,3.77-.03,.09,0,.18,.18,.27,.28l.03-.03Z"/><path class="c" d="M301.71,72.15c-1.32,.09-2.78,.19-4.25,.29-.02-.14-.03-.27-.05-.41,1.66-.12,3.33-.27,4.99-.35,.57-.02,1.1,.9,.69,1.17-.27,.18-.78,.15-1.19,.21-.05-.24-.1-.48-.2-.92Z"/><path class="c" d="M444.98,11.12c.27-.02,.73,.02,.79-.08,.59-.99,1.34-.41,2.12-.21,.84,.22,1.73,.34,2.56,.63-1.84,.01-3.72,.55-5.45-.37l-.03,.02Z"/><path class="c" d="M368.28,81.26h8.78c-2.91,.75-5.85,.32-8.78,0Z"/><path class="c" d="M239.59,70.64c-.88,.96-2.95,1.31-4.72,.8h2.21l-.59-.65c.29-.59,2.05-.66,3.1-.15Z"/><path class="c" d="M279.19,69.82h6.73c-2.2,.93-4.48,.2-6.72,.39,0-.13,0-.26-.01-.39Z"/><path class="c" d="M445,11.1c-1.18-.02-2.59,.25-3.47-.16-.77-.36-1.67-.43-2.47-.86,1.05-.51,1.97-.2,2.85,.12,.21,.07,.27,.37,.41,.57,.33-.14,.73-.44,.98-.37,.6,.15,1.12,.47,1.68,.72l.03-.02Z"/><path class="c" d="M378.04,18.9c1.84,.24,3.73-.12,5.75,.27-1,.88-1.77,1.05-2.94,.49-.78-.37-1.89-.34-2.86-.49,.02-.09,.03-.18,.05-.27Z"/><path class="c" d="M396.44,17.98c-1.49,0-2.97-.03-4.46,.02-.37,.01-.81,.2-1.06,.41-.44,.38-.63,.41-1.68-.05,2.3-1.47,4.79-.65,7.2-.38Z"/><path class="c" d="M18.98,70.49c-1.55,.15-3.11,.33-4.67,.43-.28,.02-.6-.32-.91-.49,.34-.06,.67-.17,1.02-.18,1.24-.05,2.48-.06,3.71-.08,.27,0,.55,.03,.82,.04l.02,.29Z"/><path class="c" d="M235.1,76.75c.23-.11,.45-.31,.7-.33,.62-.05,1.26-.08,1.87-.02,1.2,.12,2.39,.31,3.59,.65h-6.05c-.04-.1-.08-.2-.12-.3Z"/><path class="c" d="M152.24,15.41c-2.01,1.23-4.07,.64-6.11,.52,.27-.1,.61-.34,.8-.28,1.75,.5,3.35-.56,5.32-.23Z"/><path class="c" d="M206.11,19.13h-8.38v-.21h8.39v.21Z"/><path class="c" d="M211.23,75.07c1.99,.03,4.02-.15,5.91,.53-2.09,.59-3.9-.57-5.91-.53Z"/><path class="c" d="M346.89,12.21c.73-.13,1.47-.26,2.34-.42-.34-.17-.59-.3-.84-.43,.02-.06,.04-.12,.07-.18,.4,.04,.89,0,1.18,.15,.29,.16,.51,.52,.53,.81,.01,.15-.44,.45-.71,.47-.84,.06-1.7,.02-2.55,.02l-.03-.42Z"/><path class="c" d="M291.42,70.2c-1.33,.14-2.35,.3-3.37,.32-.35,0-.72-.3-1.35-.59,1.78-.44,3.14-.39,4.72,.27Z"/><path class="c" d="M342.85,16.72c2.92,.1,5.6,.2,8.45,.3-1.97,.41-7.24,.26-8.45-.3Z"/><path class="c" d="M145.53,21.04q.65-.55,2.89-.28c-.14,.1-.27,.19-.39,.27,0,.09,0,.17,0,.26,1.04,.04,2.08,.08,3.12,.12l-.02,.31c-.99-.05-1.99-.04-2.97-.15-.92-.11-1.81-.36-2.63-.52Z"/><path class="c" d="M148.68,13.9c1.53-.06,3.05-.12,4.83-.2-.79,.72-3.79,.87-4.88,.45l.05-.25Z"/><path class="c" d="M151.89,16.11c.79-.44,1.35-.75,2.1-1.17,.77,.24,1.85-1.02,3.07-.05-1.06,.48-2.64-.32-3.32,.81-.04,.06,.19,.22,.36,.4h-2.21Z"/><path class="c" d="M319.44,20.28c1.27,0,2.54,.02,3.81-.01,.57-.01,1.12-.17,1.69-.2,.26-.01,.53,.11,.79,.17-.21,.14-.41,.4-.63,.4-1.31,.02-2.63-.02-3.94-.03-.59,0-1.17,0-1.76,0,.01-.11,.02-.23,.04-.34Z"/><path class="c" d="M331.63,20.36c-1.44,.08-2.88,.19-4.32,.23-.19,0-.39-.3-.59-.46l.15-.22c1.61,.08,3.22,.16,4.83,.24-.02,.07-.04,.14-.07,.21Z"/><path class="c" d="M341.16,79.22c-1.66,.12-3.32,.25-4.97,.37,1.5-1.27,3.31-.32,4.94-.6l.03,.23Z"/><path class="c" d="M187.84,76.34c.87-.7,2.37-.77,3.7,0h-3.7Z"/><path class="c" d="M221.67,76.96h4.26c0,.08,0,.15,.01,.23h-4.25l-.02-.23Z"/><path class="c" d="M438.19,10.35c-1.37-.14-2.74-.28-4.13-.43q.28-.81,4.13,.43Z"/><path class="c" d="M367.03,81.45c-1.86,.1-3.72,.2-5.58,.31l-.03-.36h5.59l.02,.05Z"/><path class="c" d="M400.67,18.4c-1.31,.08-2.63,.15-3.95,.23,.17-.72,2.56-.98,3.95-.23Z"/><path class="c" d="M127.86,21.52c-1.55,.1-3.1,.2-4.65,.3-.01-.08-.02-.17-.03-.25,1.5-.53,3.13-.19,4.68-.33,0,.09,0,.18,0,.27Z"/><path class="c" d="M492.61,26.53c-1.32-.4-2.65-.8-3.97-1.21,1.73-.58,2.59,.98,4.18,.75-.07,.15-.14,.3-.21,.45Z"/><path class="c" d="M243.88,70.83c.77-.96,2.54-1.05,3.43-.32-1.09,.1-2.15,.2-3.43,.32Z"/><path class="c" d="M215.09,72.06c1.46-.49,3.06-.2,3.54,.58-1.27-.21-2.4-.39-3.54-.58Z"/><path class="c" d="M216.6,70.48h3.05c-.78,.67-1.94,.74-3.05,0Z"/><path class="c" d="M305.21,72.53c.96-.23,1.68-.4,2.43-.57-.3,1.31-.61,1.41-2.43,.57Z"/><path class="c" d="M497.11,53.52c.76-.09,1.53-.19,2.39-.29,.09,.17,.22,.39,.46,.83-1.11-.13-2-.24-2.89-.35l.04-.18Z"/><path class="c" d="M248.28,70.35h4.07c-1.53,.75-2.79,.4-4.07,0Z"/><path class="c" d="M385.02,17.92c1.46-.43,2.61-.63,3.74,.13-1.14-.04-2.28-.08-3.74-.13Z"/><path class="c" d="M160.33,21.41c1.05-.11,2.1-.22,3.15-.32l.05,.35c-1.07,.1-2.13,.2-3.2,.3v-.32Z"/><path class="c" d="M167.87,21.13c-1.06,.06-2.12,.12-3.18,.17l-.02-.4c1.09-.04,2.17-.08,3.26-.13-.02,.12-.04,.24-.05,.35Z"/><path class="c" d="M206.55,74.47c1.19,.07,2.1,.11,3.29,.18-1,.58-2.6,.51-3.29-.18Z"/><path class="c" d="M475.66,74.08c1.05-.92,1.3-.94,2.71-.16-1.04,.06-1.79,.11-2.71,.16Z"/><path class="c" d="M360.89,12.37c1.15,.06,2.3,.12,3.44,.18,0,.09-.02,.19-.03,.28-1.15-.05-2.3-.1-3.45-.15,0-.1,.02-.2,.03-.31Z"/><path class="c" d="M154.73,21.76h-2.56v-.32h2.58l-.02,.32Z"/><path class="c" d="M427.92,8.33l2.46,.09c0,.12-.01,.24-.02,.36-.84,.47-1.65-.11-2.47-.09,.01-.12,.02-.24,.03-.36Z"/><path class="c" d="M451.21,11.4c.7,.04,1.39,.07,2.09,.11l-.04,.37c-.72,.2-1.44,.32-2.05-.48Z"/><path class="c" d="M30.15,10.44c.85-.52,1.67-.73,2.44-.22l-.02,.32c-.81-.03-1.62-.07-2.42-.1Z"/><path class="c" d="M171.28,11.89l4.13-.22,.03,.27c-1.39,.05-2.79,.1-4.18,.16l.02-.2Z"/><path class="c" d="M233.24,16.37c-.08,1.17-1.06,.76-1.86,.7,.62-.23,1.24-.47,1.86-.7Z"/><path class="c" d="M428.71,9.14c.8,.15,1.59,.3,2.39,.45-.02,.09-.03,.17-.05,.26-.8-.09-1.61-.18-2.41-.26,.02-.15,.05-.3,.07-.44Z"/><path class="c" d="M191.66,19.07c-1.17,.08-2.34,.16-3.51,.24,0-.07-.02-.15-.03-.22,1.16-.12,2.32-.25,3.48-.37,.02,.12,.04,.24,.05,.36Z"/><path class="c" d="M203.87,78.3c-.66-.03-1.32-.07-1.98-.1,0-.1-.02-.19-.03-.29,.66-.04,1.33-.09,1.99-.13v.52Z"/><path class="c" d="M162.32,13.73l-2.85,.1c0-.11-.02-.22-.02-.33l2.84-.13,.03,.36Z"/><path class="c" d="M181.35,20.34c.85-.18,1.71-.36,2.56-.54l.12,.35c-.85,.19-1.7,.38-2.55,.57-.04-.13-.09-.25-.13-.38Z"/><path class="c" d="M102.47,12.18c-1.16,.05-2.32,.1-3.48,.15l-.02-.27h3.5v.12Z"/><path class="c" d="M229.48,79.03h2.5l.02,.28c-.83,.03-1.66,.06-2.48,.09-.01-.12-.02-.25-.03-.37Z"/><path class="c" d="M155.94,15.47c.9,.03,1.81,.07,2.71,.1l-.04,.43c-.9-.07-1.8-.13-2.7-.2l.03-.33Z"/><path class="c" d="M484.25,74.28c-.52,1.11-.63,1.15-1.98,.74,.71-.26,1.22-.45,1.98-.74Z"/><path class="c" d="M311.73,16.39c1.59-.07,3.18-.13,4.77-.2,0,.1,0,.21,0,.31-1.59,.08-3.18,.48-4.78-.11,0,0,.01,0,.01,0Z"/><path class="c" d="M262.95,79.7c-1.93,.44-3.85-.17-5.78,.04,0-.11,0-.22,0-.33h5.75c0,.1,.01,.2,.02,.29Z"/><path class="c" d="M262.17,78.35c.1,.09,.22,.18,.3,.28,.05,.07,.04,.17,.09,.41h-3.83v-.08c1.16-.2,2.32-.4,3.47-.61,0,0-.03-.01-.03-.01Z"/><path class="c" d="M376.65,13.93h3.2l-.02,.18h-3.24l.05-.18Z"/></g></svg>