<?xml version="1.0" encoding="UTF-8"?><svg xmlns="http://www.w3.org/2000/svg" viewBox="0 0 16.76 24.62"><defs><style>.d{fill:#f6f6f6;}.e{fill:#52b26e;}</style></defs><g id="a"/><g id="b"><g id="c"><g><path class="e" d="M4.53,24.12c-.33,0-.65-.12-.91-.35-.61-.54-.64-1.35-.06-2.12,1.07-1.41,2.12-2.83,3.18-4.25l.9-1.21,.09-.16c.21-.35,.22-.45,.21-.48,0,0-.03-.04-.1-.08-.06-.04-.09-.04-.1-.04-.06,.02-.21,.22-.29,.33l-.09,.11c-.74,.94-1.62,2.04-2.58,3.09-.38,.41-.78,.61-1.2,.61-.45,0-.89-.24-1.3-.71C.56,16.9,.08,14.6,.84,12.02c.83-2.83,2.56-5.01,5.15-6.5,1.94-1.11,4.15-2.47,5.83-4.46,.31-.36,.71-.56,1.14-.56,.61,0,1.18,.41,1.5,1.06,.88,1.85,1.44,3.93,1.66,6.16,.05,.49,.08,.99,.1,1.45l.03,.58-.02,.45c-.08,1.88-.16,3.66-.89,5.39-1.38,3.28-3.49,5.07-6.43,5.49-.92,.13-1.47,.44-1.95,1.11-.31,.43-.69,.8-1.05,1.16l-.23,.23c-.34,.35-.75,.53-1.16,.53Z"/><path class="d" d="M12.96,1c.4,0,.8,.28,1.04,.78,.9,1.9,1.41,3.91,1.62,5.99,.07,.7,.1,1.41,.14,2.02-.09,1.97-.12,3.85-.87,5.62-1.15,2.73-2.98,4.76-6.04,5.19-1.03,.15-1.71,.51-2.29,1.31-.35,.49-.8,.9-1.23,1.33-.25,.26-.54,.38-.81,.38-.21,0-.41-.08-.58-.23-.42-.37-.39-.91,.01-1.45,1.36-1.81,2.71-3.63,4.07-5.44,.05-.07,.08-.14,.12-.22,.26-.43,.5-.91-.06-1.25-.14-.08-.25-.12-.36-.12-.33,0-.54,.33-.78,.64-.82,1.05-1.66,2.08-2.56,3.05-.28,.31-.56,.45-.83,.45-.31,0-.61-.18-.92-.54-1.63-1.87-2-4.05-1.32-6.37,.8-2.71,2.46-4.79,4.92-6.2,2.19-1.26,4.31-2.61,5.97-4.57,.22-.26,.49-.39,.76-.39m-3.56,11.97c.45,0,.79-.34,.79-.78,0-.43-.33-.77-.77-.77h-.04c-.47,.02-.73,.28-.76,.74-.03,.45,.31,.8,.76,.81h.01M12.96,0h0c-.58,0-1.12,.26-1.52,.74-1.62,1.92-3.79,3.25-5.7,4.35C3.04,6.64,1.23,8.92,.36,11.88c-.8,2.72-.27,5.24,1.52,7.31,.51,.58,1.07,.88,1.68,.88,.22,0,.44-.04,.65-.12-.35,.47-.7,.93-1.05,1.4-.73,.97-.68,2.09,.12,2.8,.36,.31,.79,.48,1.24,.48,.54,0,1.08-.24,1.51-.68l.23-.23c.38-.37,.77-.76,1.1-1.22,.4-.56,.83-.79,1.62-.91,3.09-.44,5.39-2.38,6.82-5.79,.76-1.81,.85-3.71,.93-5.56l.02-.4v-.11c-.01-.18-.02-.37-.03-.57-.03-.47-.06-.98-.11-1.48-.23-2.29-.8-4.41-1.71-6.32-.4-.83-1.14-1.35-1.95-1.35h0Z"/></g></g></g></svg>