<?xml version="1.0" encoding="UTF-8"?><svg xmlns="http://www.w3.org/2000/svg" viewBox="0 0 20.52 23.76"><defs><style>.d{fill:#f6f6f6;}.e{fill:#7f4895;}</style></defs><g id="a"/><g id="b"><g id="c"><g><path class="e" d="M12.36,23.26c-.65,0-1.4-.22-1.92-.56-1.96-1.28-3.92-2.64-5.8-3.96-1.01-.7-2.01-1.4-3.02-2.09-1.02-.7-1.37-1.7-.94-2.74C2.38,9.77,4.13,5.64,5.77,1.8c.35-.83,1.01-1.3,1.81-1.3,.3,0,.6,.07,.9,.2l.4,.17c2.89,1.24,5.88,2.53,8.75,3.97,.78,.39,1.1,1.59,1.34,2.46,.13,.5,.05,.99-.03,1.46,0,.06-.02,.12-.03,.19v.35c-.02,.34-.04,.67-.07,1.01-.05,.74-.11,1.51-.21,2.26-.23,1.74-1.38,2.95-3.08,3.23-.21,.03-.41,.05-.62,.05-1.37,0-2.63-.76-3.3-1.98-.81-1.49-.58-2.79,.74-4.22,.25-.27,.54-.65,.5-.93-.04-.23-.31-.5-.8-.78-.63-.36-1.11-.6-1.45-.6s-.7,.3-1.38,1.17c-2.87,3.69-2.8,4.83,.48,8.16,1.31,1.33,2.39,1.9,3.59,1.9,.35,0,.73-.05,1.11-.15,1.02-.26,2.08-.36,3.11-.45l.6-.06h.08c.29,0,.55,.11,.77,.21,.08,.04,.16,.07,.24,.1l.56,.19-.28,.52c-.04,.06-.06,.14-.09,.21-.1,.24-.22,.54-.51,.71l-1.06,.64c-1.49,.9-3.03,1.83-4.63,2.58-.24,.11-.52,.17-.85,.17Z"/><path class="d" d="M7.58,1c.23,0,.46,.05,.71,.16,3.07,1.32,6.14,2.63,9.12,4.13,.59,.29,.87,1.38,1.08,2.16,.15,.55-.07,1.2-.12,1.81h.05c-.09,1.09-.14,2.18-.28,3.25-.2,1.54-1.21,2.56-2.67,2.8-.18,.03-.36,.04-.54,.04-1.18,0-2.27-.64-2.86-1.72-.71-1.3-.51-2.36,.67-3.64,.96-1.04,.84-1.75-.42-2.47-.75-.43-1.27-.67-1.7-.67-.59,0-1.04,.43-1.77,1.37-3.04,3.91-2.93,5.33,.52,8.82,1.17,1.19,2.38,2.05,3.95,2.05,.39,0,.8-.05,1.24-.17,1.17-.3,2.4-.38,3.61-.49,.02,0,.03,0,.05,0,.27,0,.57,.2,.85,.29-.14,.25-.21,.6-.42,.73-1.86,1.11-3.7,2.28-5.65,3.19-.18,.08-.4,.12-.64,.12-.56,0-1.22-.2-1.64-.47-2.98-1.95-5.88-4.03-8.82-6.05-.8-.55-1.11-1.29-.76-2.14C2.81,10.05,4.52,6.02,6.23,1.99c.28-.66,.77-.99,1.35-.99m0-1c-.99,0-1.84,.6-2.27,1.6C3.67,5.45,1.92,9.57,.22,13.72c-.52,1.26-.1,2.51,1.12,3.34,1.01,.69,2.02,1.39,3.02,2.09,1.89,1.32,3.85,2.68,5.81,3.96,.59,.39,1.45,.64,2.19,.64,.4,0,.76-.07,1.07-.21,1.63-.76,3.19-1.7,4.69-2.61,.35-.21,.7-.42,1.05-.63,.43-.26,.6-.68,.71-.95,.02-.05,.04-.11,.07-.16l.57-1.04-1.12-.38c-.07-.02-.13-.05-.2-.08-.24-.11-.58-.26-.98-.26-.05,0-.1,0-.15,0l-.58,.05c-1.04,.09-2.13,.19-3.18,.47-.34,.09-.67,.13-.98,.13-1.07,0-2.01-.51-3.24-1.75-3.11-3.16-3.16-4-.44-7.5,.5-.65,.84-.98,.98-.98,.28,0,.97,.4,1.2,.54,.43,.25,.54,.4,.56,.43-.01,0-.07,.17-.37,.5-1.47,1.59-1.73,3.11-.81,4.79,.75,1.38,2.18,2.24,3.73,2.24,.23,0,.47-.02,.7-.06,1.9-.32,3.24-1.72,3.49-3.66,.1-.77,.16-1.55,.21-2.3,.02-.33,.05-.66,.07-.99l.07-.82c.06-.42,.09-.87-.03-1.33-.26-.98-.62-2.3-1.6-2.79C14.97,2.94,11.96,1.65,9.05,.4l-.37-.16c-.37-.16-.74-.24-1.1-.24h0Z"/></g></g></g></svg>