<?xml version="1.0" encoding="UTF-8"?><svg xmlns="http://www.w3.org/2000/svg" viewBox="0 0 19.14 24.68"><defs><style>.d{fill:#f6f6f6;}.e{fill:#bf3a2a;}</style></defs><g id="a"/><g id="b"><g id="c"><g><g><path class="e" d="M8.55,24.18c-.85,0-1.54-.05-2.19-.17-3.49-.62-6.06-4.05-5.85-7.82,.11-2.06,.92-4,2.55-6.11,.35-.46,.73-.69,1.12-.69,.29,0,.82,.13,1.12,1.03,.09,.28,.33,.46,.6,.46,.2,0,.4-.1,.56-.28,.32-.36,.58-.95,.72-1.59,.08-.38,.06-.82,.04-1.33-.01-.27-.02-.55-.02-.85-.09-1.35-.03-3.39,1.5-5.07,.34-.38,.68-.68,1.02-.91,.34-.23,.64-.34,.93-.34,.37,0,.87,.18,1.16,1.05,.12,.35,.21,.75,.27,1.18,.12,.92,.52,1.67,1.2,2.31l.65,.62c.57,.54,1.16,1.1,1.77,1.61,2.03,1.71,3.1,4.46,2.94,7.52-.17,3.31-1.78,6.38-4.18,8.01-1.21,.83-2.36,1.25-3.5,1.3l-.54,.02c-.62,.03-1.24,.06-1.86,.06Zm-2.1-6.59c0,1.28,.45,2.08,1.39,2.44,.34,.13,.71,.2,1.1,.2,1.29,0,2.48-.73,2.89-1.77,.86-2.18,.56-4.33-.89-6.37-.01-.01-.06-.03-.11-.05-.05,.1-.09,.2-.12,.29-.07,.25-.12,.51-.18,.77-.1,.5-.21,1.01-.43,1.5-.27,.59-.78,.95-1.38,.95-.42,0-.86-.18-1.23-.5-.12-.11-.21-.16-.25-.19-.02,.03-.06,.09-.1,.2-.25,.58-.43,1.18-.63,1.81-.04,.14-.08,.27-.13,.41l.06,.32Z"/><path class="d" d="M10.65,1c.31,0,.53,.23,.68,.7,.12,.35,.19,.72,.24,1.09,.14,1.03,.59,1.9,1.35,2.61,.81,.75,1.6,1.53,2.44,2.24,4.33,3.66,3.35,11.65-1.2,14.74-.98,.67-2.05,1.16-3.24,1.21-.79,.03-1.59,.08-2.38,.08-.71,0-1.41-.04-2.1-.16-3.31-.58-5.63-3.84-5.44-7.3,.12-2.24,1.12-4.11,2.45-5.83,.25-.33,.5-.49,.73-.49,.26,0,.49,.23,.64,.68,.17,.51,.6,.8,1.07,.8,.32,0,.66-.14,.94-.45,.43-.48,.7-1.18,.84-1.82,.14-.66,.03-1.37,.03-2.29-.1-1.58,.08-3.31,1.37-4.74,.28-.31,.59-.6,.93-.83,.25-.17,.46-.25,.65-.25m-1.92,14.04c-.3,0-.61-.13-.9-.38-.24-.21-.45-.33-.62-.33-.21,0-.38,.16-.53,.52-.37,.86-.61,1.78-.9,2.68l.17,.06c0,1.5,.57,2.47,1.71,2.91,.41,.16,.85,.23,1.28,.23,1.41,0,2.84-.78,3.36-2.09,.96-2.42,.55-4.73-.95-6.84-.15-.21-.5-.27-.76-.4-.12,.26-.28,.52-.36,.79-.2,.73-.27,1.52-.58,2.2-.2,.44-.55,.65-.93,.65M10.65,0h0c-.39,0-.79,.14-1.21,.43-.37,.25-.73,.57-1.11,.98-1.65,1.81-1.72,3.97-1.63,5.44,0,.3,.01,.58,.02,.84,.02,.49,.04,.88-.03,1.21-.12,.57-.34,1.07-.61,1.37-.06,.07-.13,.11-.19,.11s-.1-.04-.12-.12c-.41-1.24-1.25-1.37-1.59-1.37-.38,0-.96,.15-1.52,.88C.97,11.96,.13,14,.01,16.16c-.22,4.02,2.54,7.68,6.27,8.34,.68,.12,1.4,.17,2.27,.17,.63,0,1.27-.03,1.88-.06l.54-.02c1.23-.05,2.46-.5,3.76-1.38,2.53-1.72,4.22-4.94,4.4-8.4,.17-3.22-.97-6.11-3.12-7.93-.59-.5-1.17-1.05-1.73-1.58-.22-.21-.44-.42-.67-.63-.59-.55-.93-1.21-1.04-2.01-.06-.46-.16-.89-.29-1.27-.4-1.21-1.19-1.39-1.63-1.39h0Zm-1.92,16.04c.8,0,1.49-.46,1.84-1.24,.24-.54,.36-1.08,.46-1.61v-.03c.92,1.65,1.03,3.37,.34,5.11-.34,.86-1.34,1.46-2.43,1.46-.33,0-.64-.06-.92-.17-.5-.19-1.07-.59-1.07-1.98v-.45l.04-.13c.15-.48,.29-.94,.46-1.38,.4,.27,.84,.41,1.28,.41h0Z"/></g><g><path class="e" d="M4.21,7.59c-1.08-.03-1.9-.93-1.87-2.05,.03-1.25,.96-2.3,2.02-2.3,.51,0,.96,.21,1.3,.57,.4,.43,.62,1.05,.6,1.71-.04,1.25-.84,2.08-1.98,2.08h-.06Z"/><path class="d" d="M4.36,3.73h.02c.81,.01,1.41,.78,1.38,1.76-.04,.98-.62,1.6-1.48,1.6h-.05c-.8-.02-1.4-.69-1.38-1.54,.02-.97,.74-1.82,1.52-1.82m0-1c-1.33,0-2.48,1.28-2.52,2.79-.04,1.4,1,2.53,2.35,2.56h.08c1.41,0,2.43-1.05,2.48-2.57,.03-.79-.24-1.55-.74-2.07-.43-.46-1.01-.71-1.63-.72h-.03Z"/></g></g></g></g></svg>