<?xml version="1.0" encoding="UTF-8"?><svg xmlns="http://www.w3.org/2000/svg" viewBox="0 0 22.63 24.58"><defs><style>.d{fill:#f6f6f6;}.e{fill:#f1c410;}</style></defs><g id="a"/><g id="b"><g id="c"><g><path class="e" d="M8.87,24.08c-.83,0-1.38-.35-1.65-1.03-.36-.95,.29-1.58,.57-1.85,.98-.96,1.32-2.05,1.03-3.34-.25-1.13-1.24-1.95-2.39-1.99h0c-1.19,0-2.11,.68-2.43,1.73-.2,.65-.03,1.31,.43,1.69,.12,.1,.22,.14,.27,.14,.04,0,.08-.04,.12-.07,.07-.07,.09-.13,.09-.16,0-.03-.03-.08-.11-.15-.51-.43-.6-1-.26-1.67,.34-.67,1.05-1.1,1.83-1.1,.08,0,.16,0,.24,.01,.88,.1,1.63,.81,1.83,1.73,.27,1.25-.3,2.57-1.43,3.27-.73,.46-1.52,.69-2.34,.69-.67,0-1.36-.15-2.06-.46-.74-.32-1.27-.92-1.63-1.83-1.31-3.32,.21-7.02,3.53-8.6,4.54-2.16,7.84-4.15,10.68-6.43,1.17-.94,2.26-2.06,3.3-3.14l.3-.31c.45-.47,.94-.71,1.42-.71,.36,0,1.03,.15,1.49,1.17,.6,1.34,.62,2.8,.06,4.33-.45,1.22-1.23,2.33-2.31,3.28-1.96,1.73-3.95,3.05-6.08,4.04-.26,.12-.31,.19-.32,.2l.09,.16s.13-.01,.32-.12c.42-.23,.83-.46,1.25-.68,1.13-.61,2.3-1.24,3.38-1.95,.55-.36,.9-.5,1.24-.5,1,0,1.07,1.23,1.1,1.63,.17,2.66-1.05,4.77-3.34,5.8-.69,.31-1.43,.5-2.15,.67l-.55,.14c-.14,.04-.36,.1-.41,.14l.03,.15s.05,.01,.14,.01c.07,0,.14,0,.21-.01,.22-.03,.44-.05,.66-.08,.45-.06,.9-.12,1.35-.15h.13c.28,0,.79,.04,1.09,.37,.35,.37,.21,1.06,.09,1.33-.98,2.23-2.72,3.45-5.16,3.62-.24,.02-.47,.02-.71,.02-.19,0-.67,0-.72,0l-.42,.02h-1.04c-.21,0-.42,0-.64,0h-.09Z"/><path class="d" d="M20.18,1c.41,0,.77,.29,1.03,.87,.59,1.31,.53,2.63,.04,3.95-.45,1.22-1.21,2.23-2.18,3.08-1.81,1.59-3.77,2.94-5.96,3.96-.42,.2-.76,.44-.52,.94,.13,.27,.31,.36,.51,.36,.18,0,.38-.08,.56-.18,1.56-.87,3.16-1.68,4.66-2.65,.4-.26,.72-.42,.96-.42,.35,0,.55,.32,.6,1.16,.15,2.37-.88,4.34-3.05,5.32-.82,.37-1.74,.55-2.62,.78-.44,.11-.85,.22-.77,.78,.06,.41,.34,.51,.66,.51,.09,0,.18,0,.26-.02,.66-.08,1.32-.19,1.98-.23,.03,0,.07,0,.1,0,.26,0,.58,.06,.72,.21,.13,.14,.1,.56,0,.79-.9,2.05-2.5,3.17-4.73,3.33-.22,.02-.45,.02-.67,.02-.38,0-.76-.01-1.14-.01v.03c-.34,0-.69,0-1.03,0-.22,0-.44,0-.66,0-.03,0-.05,0-.08,0-.53,0-.97-.16-1.18-.71-.21-.56,.06-.94,.45-1.31,1.08-1.05,1.5-2.33,1.17-3.81-.31-1.36-1.49-2.33-2.86-2.38-.03,0-.07,0-.1,0-1.32,0-2.44,.82-2.82,2.09-.25,.84-.02,1.71,.59,2.22,.19,.16,.39,.26,.59,.26,.16,0,.32-.07,.47-.22,.32-.33,.32-.72-.05-1.04-.38-.33-.33-.69-.14-1.07,.26-.51,.8-.82,1.38-.82,.06,0,.12,0,.18,.01,.67,.08,1.24,.63,1.4,1.34,.23,1.04-.23,2.13-1.21,2.74-.68,.42-1.37,.61-2.08,.61-.62,0-1.24-.15-1.87-.42-.68-.29-1.1-.87-1.37-1.55-1.2-3.06,.22-6.51,3.28-7.97,3.8-1.81,7.48-3.85,10.78-6.49,1.31-1.05,2.48-2.28,3.65-3.49,.36-.37,.72-.56,1.06-.56m0-1c-.43,0-1.08,.15-1.77,.87l-.29,.3c-1.04,1.07-2.12,2.18-3.27,3.11-2.81,2.26-6.08,4.22-10.58,6.37C.76,12.31-.9,16.37,.49,19.88c.41,1.03,1.04,1.74,1.9,2.11,.77,.33,1.53,.5,2.26,.5s1.38-.15,2.02-.45c-.09,.34-.1,.74,.08,1.2,.24,.62,.79,1.35,2.11,1.35h.1c.21,0,.42,0,.63,0h2.03s.09,0,.14,0c.25,0,.49,0,.74-.02,2.6-.18,4.53-1.54,5.58-3.92,.2-.46,.32-1.34-.18-1.88-.2-.21-.45-.34-.7-.42l.04-.02c2.49-1.12,3.81-3.41,3.63-6.29-.1-1.67-.9-2.04-1.45-2.09,.1-.09,.21-.18,.31-.27,1.15-1.01,1.97-2.18,2.45-3.48,.61-1.66,.59-3.24-.07-4.71-.57-1.27-1.46-1.46-1.94-1.46h0Z"/></g></g></g></svg>