<?xml version="1.0" encoding="utf-8"?>
<!-- Generator: Adobe Illustrator 25.0.0, SVG Export Plug-In . SVG Version: 6.00 Build 0)  -->
<svg version="1.1" id="Layer_1" xmlns="http://www.w3.org/2000/svg" xmlns:xlink="http://www.w3.org/1999/xlink" x="0px" y="0px"
	 viewBox="0 0 73 73" style="enable-background:new 0 0 73 73;" xml:space="preserve">
<style type="text/css">
	.st0{fill:#F1F2F2;}
	.st1{fill:#333333;}
	.st2{fill:#939598;}
	.st3{opacity:0.5;fill:#F1F2F2;}
</style>
<path class="st0" d="M66.8,17.7c-0.1-3.2-1.3-5.9-3.4-8c-2.2-2.2-4.9-3.3-8-3.4h-0.1h-0.1H17.8h-0.1h-0.1c-3.2,0.1-5.9,1.3-8,3.4
	c-2.2,2.2-3.3,4.9-3.4,8v0.1v0.1v37.3v0.1v0.1c0.1,3.2,1.3,5.9,3.4,8c2.2,2.2,4.9,3.3,8,3.4h0.1h0.1h37.3h0.1h0.1
	c3.2-0.1,5.9-1.3,8-3.4c2.2-2.1,3.3-4.9,3.4-8v-0.1v-0.1V17.8L66.8,17.7L66.8,17.7z"/>
<g>
	<path class="st1" d="M36.5,31.2c-0.1,0-0.3,0-0.4,0c0.3,0.5,0.4,1.1,0.4,1.7c0,1-0.4,1.8-1,2.4c-0.6,0.6-1.5,1-2.4,1
		c-0.6,0-1.2-0.2-1.7-0.4c0,0.1,0,0.3,0,0.4c0,1.5,0.5,2.7,1.5,3.7s2.2,1.5,3.7,1.5s2.7-0.5,3.7-1.5s1.5-2.2,1.5-3.7
		s-0.5-2.7-1.5-3.7S38,31.3,36.5,31.2z"/>
	<path class="st2" d="M46.9,28.8c-1.3-1.2-2.8-2.2-4.5-3.1c-1.7-0.8-3.7-1.3-5.9-1.3s-4.2,0.5-5.9,1.3c-1.7,0.8-3.2,1.9-4.5,3.1
		s-2.3,2.4-3.1,3.7c-0.8,1.3-1.5,2.4-1.9,3.4c-0.1,0.4-0.1,0.9,0,1.3c0.4,1,1.1,2.1,1.9,3.4c0.8,1.2,1.9,2.4,3.1,3.7
		c1.3,1.2,2.8,2.2,4.5,3.1c1.7,0.8,3.7,1.3,5.9,1.3s4.2-0.5,5.9-1.3s3.2-1.9,4.5-3.1c1.3-1.2,2.3-2.4,3.1-3.7s1.5-2.4,1.9-3.4
		c0.1-0.4,0.1-0.9,0-1.3c-0.4-1-1.1-2.1-1.9-3.4C49.2,31.2,48.2,30,46.9,28.8z M42,42c-1.5,1.4-3.3,2.2-5.5,2.3
		c-2.2-0.1-4-0.8-5.5-2.3c-1.4-1.5-2.2-3.3-2.3-5.5c0.1-2.2,0.8-4,2.3-5.5c1.5-1.4,3.3-2.2,5.5-2.3c2.2,0.1,4,0.8,5.5,2.3
		c1.4,1.5,2.2,3.3,2.3,5.5C44.2,38.7,43.4,40.5,42,42z"/>
</g>
<path class="st1" d="M65.3,7.7C63.6,6,61.5,5.1,59,5H14c-2.5,0.1-4.6,1-6.3,2.7S5.1,11.5,5,14v45c0.1,2.5,1,4.6,2.7,6.3
	C9.4,67,11.5,67.9,14,68h45c2.5-0.1,4.6-1,6.3-2.7c1.7-1.7,2.6-3.8,2.7-6.3V14C67.9,11.5,67,9.4,65.3,7.7z M59,23h-9v2.5
	c0.2,0.2,0.4,0.3,0.6,0.5c1.7,1.6,3.1,3.3,4.2,5c0.2,0.3,0.4,0.7,0.6,1H59v9h-3.6c-0.2,0.3-0.4,0.6-0.6,1c-1.1,1.7-2.5,3.3-4.2,5
	c-0.2,0.2-0.4,0.3-0.6,0.5V50h9v9h-9v-9h-3.5c-0.7,0.4-1.3,0.8-2,1.1c-1.1,0.5-2.2,0.9-3.5,1.2V59h-9v-6.7c-1.2-0.3-2.4-0.7-3.5-1.2
	c-0.7-0.3-1.4-0.7-2-1.1H23v9h-9v-9h9v-2.5c-0.2-0.2-0.4-0.3-0.6-0.5c-1.7-1.7-3.1-3.3-4.2-5c-0.2-0.3-0.4-0.7-0.6-1H14v-9h3.6
	c0.2-0.3,0.4-0.6,0.6-1c1.1-1.7,2.5-3.4,4.2-5c0.2-0.2,0.4-0.3,0.6-0.5V23h-9v-9h9v9h3.5c0.7-0.4,1.3-0.8,2-1.1
	c1.1-0.5,2.2-0.9,3.5-1.2V14h9v6.7c1.2,0.3,2.4,0.7,3.5,1.2c0.7,0.3,1.4,0.7,2,1.1H50v-9h9V23z"/>
<path class="st3" d="M68.9,4.1c-2.6-2.6-5.9-4-9.7-4.1h-0.1H59H14h-0.1h-0.1C10,0.1,6.7,1.6,4.1,4.1C1.5,6.7,0.1,10,0,13.8v0.1V14
	v45v0.1v0.1c0.1,3.8,1.6,7.1,4.1,9.7c2.6,2.6,5.9,4,9.7,4.1h0.1H14h45h0.1h0.1c3.8-0.1,7.1-1.6,9.7-4.1c2.6-2.5,4-5.9,4.1-9.7v-0.1
	V59V14v-0.2C72.9,10,71.4,6.7,68.9,4.1z M68,59c-0.1,2.5-1,4.6-2.7,6.3S61.5,67.9,59,68H14c-2.5-0.1-4.6-1-6.3-2.7
	C6,63.6,5.1,61.5,5,59V14c0.1-2.5,1-4.6,2.7-6.3C9.4,6,11.5,5.1,14,5h45c2.5,0.1,4.6,1,6.3,2.7C67,9.4,67.9,11.5,68,14V59z"/>
</svg>
