<?xml version="1.0" encoding="utf-8"?>
<!-- Generator: Adobe Illustrator 25.0.0, SVG Export Plug-In . SVG Version: 6.00 Build 0)  -->
<svg version="1.1" id="Layer_1" xmlns="http://www.w3.org/2000/svg" xmlns:xlink="http://www.w3.org/1999/xlink" x="0px" y="0px"
	 viewBox="0 0 74.3 90" style="enable-background:new 0 0 74.3 90;" xml:space="preserve">
<style type="text/css">
	.st0{fill:#F1F2F2;}
</style>
<g>
	<g>
		<path class="st0" d="M4.2,57.1V54c0-0.1,0-0.1,0.1-0.2c0.1-0.1,0.1-0.1,0.1-0.1s0-0.1-0.1-0.1c0-0.1-0.1-0.1-0.1-0.1v-0.1v-0.1
			c0,0,0-0.1,0.1-0.1V53v-0.2l0.1-0.1c0-0.1,0-0.1,0-0.1s0-0.1,0.1-0.1c0-0.1,0-0.1,0.1-0.1l0.1-0.1c0,0,0-0.1,0.1-0.1
			c0,0,0.1-0.1,0.2-0.2c-0.1,0-0.1-0.1-0.1-0.2L5,51.7h0.1c0.1-0.1,0.1-0.1,0.2-0.2c0,0,0,0,0.1,0c0,0,0.1,0,0.1-0.1l0.1-0.1
			l0.1-0.1c0,0,0.1,0,0.1-0.1c0.1,0,0.1,0,0.2,0c0,0,0.1-0.1,0.3-0.1l0.1-0.1c0.1,0,0.1,0,0.1-0.1c0,0,0,0,0.1,0s0.1,0,0.2,0
			s0.2,0,0.3,0s0.2,0,0.2,0h0.1c0.1,0,0.1,0,0.1,0h0.1h0.1h0.1h0.1H8h0.1h0.1c0,0,0.1,0.1,0.1,0c0.1,0,0.2,0,0.2,0
			c0.1,0,0.1,0.1,0.2,0.1c0,0,0,0,0.1,0.1c0,0,0.1,0,0.1,0.1H9c0,0,0,0,0.1,0s0.1,0,0.1,0.1c0,0,0.1,0.1,0.2,0.1s0.1,0.1,0.2,0.1
			l0,0l0,0l0,0c0.2,0.2,0.2,0.3,0.2,0.3s0,0.1,0.1,0.1C10,51.9,10,51.9,10,52c0.1,0.1,0.2,0.2,0.2,0.3c0,0,0,0.1,0.1,0.1
			s0.1,0.1,0.1,0.1v0.1c0,0.1,0,0.3-0.1,0.4c0,0,0,0-0.1,0.1c-0.1,0-0.1,0.1-0.1,0.1s-0.1,0-0.2,0c-0.1,0-0.3,0-0.6,0
			c-0.2,0-0.3,0-0.4-0.1C8.8,53,8.7,53,8.6,52.9c0,0-0.1-0.1-0.2-0.1c-0.1-0.1-0.2-0.1-0.2-0.2c0,0-0.1,0-0.2,0c-0.1,0-0.1,0-0.2,0
			c-0.1,0-0.3,0-0.4,0s-0.3,0-0.5,0s-0.3,0-0.4,0H6.4c-0.1,0-0.2,0.1-0.3,0.2c-0.1,0-0.1,0.1-0.2,0.3c0,0,0,0-0.1,0.1v0.1
			c0,0,0,0.1-0.1,0.2v0.2v5.4c0,0.2,0,0.4-0.1,0.4v0.2C5.9,60,6,60.1,6,60.2v0.1c0,0,0.1,0.1,0.1,0.2c0,0.1,0.1,0.1,0.1,0.1l0.3,0.3
			c0.2,0,0.4,0.1,0.6,0.1c0,0,0.2,0,0.5,0H8c0.1,0,0.2,0,0.2,0s0.1,0,0.2-0.1c0.1,0,0.2-0.1,0.2-0.1c0.1-0.1,0.2-0.2,0.3-0.3
			s0.2-0.2,0.2-0.2c0.1-0.1,0.3-0.2,0.5-0.2h0.7c0.3,0,0.4,0.1,0.5,0.3c0,0,0,0,0,0.1c0,0,0,0,0,0.1l0,0c0,0,0,0.1-0.1,0.1
			c0,0.1,0,0.1,0,0.1s0,0.1-0.1,0.2c0,0.1-0.1,0.1-0.1,0.2c0,0,0,0,0,0.1s0,0.1-0.1,0.1l-0.1,0.1c0,0.1,0,0.1-0.1,0.1l0,0l0,0l0,0
			l0,0L10,61.8l-0.1,0.1L9.8,62l-0.1,0.1l-0.1,0.1c0,0-0.1,0.1-0.2,0.1c-0.1,0-0.2,0.1-0.2,0.1c-0.1,0.1-0.2,0.1-0.3,0.1
			c0,0.1-0.1,0.1-0.3,0.1c0,0-0.1,0-0.1,0.1c-0.1,0-0.1,0-0.1,0H7.8H7.5H7.2H6.9H6.8H6.7H6.6c-0.1,0-0.1,0-0.3,0l0,0l-0.1-0.1H6.1
			c0,0-0.1-0.1-0.2-0.1s-0.1-0.1-0.2-0.1c0,0,0,0-0.1,0c0,0-0.1,0-0.1-0.1c0,0-0.1-0.1-0.2-0.1s-0.1-0.1-0.2-0.1
			C5,62,4.9,61.8,4.7,61.7c-0.1,0-0.1-0.1-0.1-0.1s0-0.1-0.1-0.1s-0.1-0.1-0.1-0.1c0-0.1,0-0.1-0.1-0.2c0-0.1-0.1-0.1-0.1-0.1
			s0-0.1,0-0.2s-0.1-0.1-0.1-0.1l0,0l0,0v-0.1c0-0.1,0-0.1,0-0.1S4,60.5,4,60.4v-3.3H4.2z M4.8,59L4.8,59c-0.1,0.1,0,0.2,0,0.2
			C4.9,59.1,4.9,59.1,4.8,59C4.9,59,4.9,59,4.8,59z M5.1,54.4L5.1,54.4C5.1,54.3,5.1,54.3,5.1,54.4C5.1,54.3,5,54.3,5.1,54.4H4.9
			H5.1L5.1,54.4z M5.1,55.2L5.1,55.2C5.1,55.1,5.1,55.1,5.1,55.2l-0.2-0.1c0,0,0,0,0,0.1C5,55.2,5,55.3,5.1,55.2
			C5.1,55.3,5.1,55.3,5.1,55.2C5.1,55.3,5.1,55.2,5.1,55.2z M5.7,54.1L5.7,54.1C5.8,54.1,5.8,54.1,5.7,54.1
			C5.8,54.1,5.8,54.1,5.7,54.1C5.8,54,5.8,54,5.8,53.9c0,0,0,0-0.1-0.1c-0.1,0-0.1,0-0.2,0l0,0.2c0,0,0,0,0,0.1s0,0.1,0.1,0.1
			L5.7,54.1L5.7,54.1z"/>
	</g>
	<g>
		<path class="st0" d="M13.1,60.5v-0.9c0-0.2,0-0.3,0.1-0.4c0,0,0,0,0-0.1c0-0.4,0-0.7,0-0.9v-0.1c0-0.1,0-0.1,0-0.2v-0.3v-0.3V57
			c0,0,0-0.1,0-0.2c0-0.1,0.1-0.1,0.1-0.2v-0.4v-0.4v-0.4V55v-0.4v-0.4v-0.4c0,0,0-0.1,0.1-0.1v-0.1c-0.1-0.1-0.1-0.2-0.1-0.3v-1.2
			c0-0.1,0-0.2,0.1-0.3c0,0,0-0.1,0-0.2v-0.3c0-0.1,0-0.2,0.1-0.2c0.1-0.1,0.3-0.2,0.4-0.2h0.8c0,0,0.1,0,0.1,0.1s0.1,0.1,0.1,0.1
			c0.1,0.1,0.2,0.2,0.2,0.3V52v0.9c0,0.2,0,0.3-0.1,0.3v0.1v1.1c0.1,0.1,0.1,0.2,0.1,0.3v0.4v0.4c0,0,0,0.1-0.1,0.2
			c0,0.1,0,0.1,0,0.2c0,0,0,0.1,0,0.3v0.4V57v0.3v0.3V58v0.3c0,0,0.1,0.1,0.1,0.2v0.7v1.1v0.3c0,0.1,0,0.2-0.1,0.2V61v1.5
			c0,0.1,0,0.2-0.1,0.2l-0.1,0.1l-0.1,0.1h-0.3c-0.1,0-0.2,0-0.2,0.1c-0.2,0.1-0.4,0-0.6-0.1c-0.1,0-0.1-0.1-0.2-0.2v-0.1V62v-0.1
			v-0.1c0,0,0-0.1-0.1-0.1c0,0,0,0,0-0.1v-1.1H13.1z M13.8,59.1c0-0.1,0-0.1-0.1-0.1c0,0-0.1,0-0.1,0.1v0.1
			C13.7,59.1,13.7,59.2,13.8,59.1L13.8,59.1z M14.6,54c0-0.1,0-0.1-0.1-0.1c0,0-0.1,0-0.1,0.1C14.4,54,14.4,54.1,14.6,54
			C14.6,54.1,14.6,54,14.6,54z"/>
	</g>
	<g>
		<path class="st0" d="M21.9,55.9v-1.3v-0.1c0,0,0-0.1,0-0.2c0,0,0-0.1,0.1-0.1v-0.1V52v-0.1c0-0.1,0-0.1,0-0.1v-0.3
			c0,0,0-0.1,0-0.2c0-0.1,0.1-0.1,0.1-0.2V51c0,0,0.1,0,0.1-0.1l0.1-0.1c0,0,0.1,0,0.2,0s0.1-0.1,0.2-0.1h0.6c0.1,0,0.2,0,0.2,0
			c0.1,0.1,0.2,0.2,0.3,0.3c0.1,0.1,0.1,0.2,0.1,0.3c0,0,0,0.1,0,0.2c0,0.1,0,0.2,0,0.2c0,0.2,0,0.3-0.1,0.3v0.7l0.1,0.1
			c0,0.1,0,0.1,0,0.2c0,0.1,0,0.1,0,0.2c0,0.2,0,0.5,0,0.7c0,0.3,0,0.6,0,0.9c0,0.3,0,0.6,0,0.7v0.1c0,0.1,0,0.1,0,0.2
			c0,0,0,0.1-0.1,0.1V56v0.1v0.1v1.6c0,0,0,0.1-0.1,0.2c0,0.1,0,0.1,0,0.2s0,0.2,0,0.4V59v0.1c0,0.1,0,0.1,0,0.1v0.1
			c0,0.2,0,0.3,0.1,0.3V60c0,0.6,0,1.1,0,1.4c0,0,0,0.1-0.1,0.2c0,0.1-0.1,0.1,0,0.2c0,0.1,0,0.1,0,0.2c0,0.1,0,0.2,0,0.2
			s0,0.1-0.1,0.3c0,0-0.1,0.1-0.2,0.2c-0.1,0.1-0.2,0.1-0.3,0.1h-0.3c0,0-0.1,0-0.2,0s-0.1,0-0.2,0c-0.3-0.1-0.4-0.2-0.4-0.3
			s-0.1-0.1-0.2-0.2c0,0,0-0.1-0.1-0.1s0-0.1-0.1-0.1c0,0,0,0-0.1-0.1c0-0.1,0-0.1-0.1-0.1c0-0.1-0.1-0.2-0.1-0.3
			c-0.1-0.1-0.1-0.2-0.1-0.3c0,0,0,0-0.1-0.1v-0.1c0,0,0-0.1-0.1-0.2v-0.1c0-0.1-0.1-0.1-0.1-0.1s0-0.1,0-0.2c0-0.1-0.1-0.1-0.1-0.1
			s0,0,0-0.1c0,0,0-0.1-0.1-0.1c0-0.1-0.1-0.1-0.1-0.1s0-0.1-0.1-0.1c0-0.1,0-0.1,0-0.2c0,0,0,0,0-0.1l-0.1-0.1c0-0.1,0-0.1-0.1-0.1
			c0-0.1,0-0.2-0.1-0.2c0,0,0-0.1,0-0.2c0-0.1-0.1-0.1-0.1-0.2L20,58.8c0-0.1,0-0.1-0.1-0.1c0,0,0-0.1-0.1-0.1s0-0.1,0-0.2v-0.1
			l-0.1-0.1v-0.1c0-0.1,0-0.1-0.1-0.1c0-0.1-0.1-0.1-0.1-0.3s-0.1-0.2-0.1-0.3c-0.1-0.2-0.1-0.3-0.2-0.4l-0.1-0.4L19,56.5
			c0-0.1,0-0.1-0.1-0.1c0-0.1,0-0.1,0-0.2c0-0.1-0.1-0.1-0.1-0.1s0,0-0.1-0.1l0,0c0,0,0,0,0,0.1c0,0.3,0,0.6,0,0.7
			c0,0.2,0,0.3-0.1,0.3c0,0,0,0,0,0.1V59c0.1,0.1,0.1,0.2,0.1,0.4v0.4v0.4v0.4c0,0,0,0.1-0.1,0.2c0,0.1,0,0.1,0,0.2v0.1v0.1
			c0,0.1,0,0.1,0,0.1v0.4v0.4v0.4c0,0.1,0,0.1-0.1,0.1c-0.1,0.1-0.2,0.2-0.2,0.2H18c-0.2,0-0.3,0.1-0.3,0.1h-0.3
			c-0.2,0-0.3-0.1-0.4-0.2c-0.1-0.1-0.2-0.3-0.2-0.4v-1.8c0-0.1,0-0.2,0.1-0.2c0,0,0-0.1,0-0.2v-1.9c0,0,0-0.1-0.1-0.2
			c0-0.1,0-0.1,0-0.2v-0.4V57v-0.4c0,0,0-0.1,0.1-0.2c0-0.1,0-0.1,0-0.2V56v-0.3v-0.4V55v-0.3v-0.1l-0.1-0.1v-0.7v-0.1
			c0.1-0.1,0.1-0.2,0-0.3c0-0.1-0.1-0.1-0.1-0.2v-1.9c0-0.1,0-0.1,0-0.1s0,0,0.1-0.1s0-0.1,0.1-0.1c0,0,0,0,0.1-0.1c0,0,0,0,0.1-0.1
			c0,0,0,0,0.1-0.1l0.1-0.1c0.4,0,0.7,0,1,0c0,0,0.1,0,0.1,0.1l0.1,0.1c0.2,0,0.3,0.1,0.4,0.2c0.1,0.1,0.2,0.3,0.2,0.4
			c0,0,0,0.1,0.1,0.1c0,0.1,0,0.1,0,0.1v0.1c0.1,0.1,0.1,0.2,0.1,0.3c0.1,0,0.1,0.1,0.1,0.2l0.1,0.1c0,0,0,0.1,0.1,0.1
			c0,0.1,0.1,0.3,0.3,0.6c0,0.1,0,0.1,0,0.2c0,0.1,0.1,0.1,0.1,0.2c0,0.1,0.1,0.1,0.1,0.2c0,0,0,0.1,0.1,0.2
			c0.1,0.1,0.1,0.2,0.1,0.2l0.1,0.1c0,0.1,0,0.1,0.1,0.1c0,0,0,0.1,0.1,0.2c0,0.1,0,0.1,0,0.1v0.1v0.1c0,0,0,0,0,0.1s0,0,0,0.1
			c0,0,0,0,0,0.1c0,0,0,0.1,0.1,0.1c0,0.1,0,0.1,0,0.2c0,0,0,0.1,0.1,0.1c0,0.1,0,0.1,0.1,0.1c0,0,0,0,0,0.1v0.2l0.1,0.1
			c0,0.1,0,0.1,0,0.1s0,0,0,0.1c0,0,0,0.1,0.1,0.1v0.1v0.1c0,0,0,0.1,0.1,0.1s0,0.1,0,0.1s0,0,0.1,0.1c0,0,0,0.1,0.1,0.1
			c0,0,0,0.1,0,0.2c0,0.1,0.1,0.1,0.1,0.1s0,0.1,0.1,0.1c0,0.1,0.1,0.1,0.1,0.1c0,0.1,0.1,0.1,0.1,0.1s0.1,0,0.1-0.1
			C21.9,57.3,21.9,55.9,21.9,55.9z M17.8,53.8C17.8,53.8,17.9,53.8,17.8,53.8c0.1-0.1,0.1-0.2,0-0.2c0,0-0.1,0-0.1,0.1
			C17.7,53.8,17.7,53.8,17.8,53.8z M17.9,58.9c-0.1,0-0.1,0-0.1,0.1l0.1,0.1C17.9,59,18,59,17.9,58.9C18,58.9,17.9,58.9,17.9,58.9z
			 M18.1,54.3c0-0.1,0-0.1-0.1-0.1h-0.1l-0.1,0.1v0.1c0,0,0,0,0.1,0.1s0,0,0.1,0.1l0.1-0.1C18.1,54.4,18.1,54.3,18.1,54.3z M18.2,55
			L18.2,55c-0.1-0.1-0.2-0.1-0.2-0.1c-0.1,0.1-0.1,0.2,0,0.3l0,0c0,0,0.1,0,0.1-0.1c0,0,0,0,0-0.1C18.2,55.1,18.2,55.1,18.2,55z
			 M18.2,53.6C18.2,53.5,18.2,53.5,18.2,53.6c-0.1-0.1-0.2-0.1-0.2,0C18,53.6,18.1,53.6,18.2,53.6C18.2,53.7,18.2,53.6,18.2,53.6z
			 M18.4,55.8L18.4,55.8c0-0.1,0-0.1-0.1-0.1c0,0-0.1,0-0.1,0.1v0.1c0,0,0,0,0.1,0C18.3,55.9,18.3,55.9,18.4,55.8L18.4,55.8z
			 M18.4,54.8c-0.1,0-0.1,0-0.1,0.1c0,0,0,0.1,0.1,0.1C18.4,55,18.4,54.9,18.4,54.8L18.4,54.8z M18.4,54.5L18.4,54.5
			c0.1,0,0.1,0,0.1-0.1c0,0,0-0.1-0.1-0.1h-0.1c0,0,0,0,0,0.1S18.3,54.5,18.4,54.5L18.4,54.5z M19,53.5L19,53.5L19,53.5L19,53.5
			c0-0.1,0-0.1-0.1-0.1c0,0,0,0-0.1,0c0,0-0.1,0-0.1,0.1c0,0,0,0.1-0.1,0.2c0,0-0.1,0.1-0.2,0.1c0,0,0,0,0,0.1s0,0.1,0,0.1
			s-0.1,0.1-0.1,0.2l0,0c0,0,0,0,0.1,0c0,0,0.1-0.1,0.2-0.1h0.1h0.1h0.1c0,0,0,0,0-0.1s0-0.2,0-0.2C19,53.7,19,53.6,19,53.5z
			 M18.5,55.6c0.1,0,0.2,0,0.2,0s0,0,0-0.1c-0.1-0.2-0.2-0.3-0.3-0.3l0,0l0,0c0,0.1,0,0.2,0,0.2C18.4,55.6,18.5,55.6,18.5,55.6z
			 M18.8,55.1L18.8,55.1L18.8,55.1c0-0.1,0-0.1-0.1-0.1l0,0l0,0c-0.1,0-0.1,0.1-0.1,0.1C18.7,55.2,18.7,55.2,18.8,55.1L18.8,55.1
			L18.8,55.1L18.8,55.1z M19,54.6L19,54.6c0-0.1,0-0.1-0.1-0.1h-0.1v0.1l0.1,0.1C19,54.7,19,54.7,19,54.6L19,54.6z M19.1,54.2
			L19,54.3c0,0,0,0,0,0.1c0,0,0,0,0.1,0l0,0l0.1-0.1c0,0,0,0,0-0.1c0,0-0.1,0-0.2,0.1l0,0h-0.1l0,0l0,0l0,0
			C18.9,54.4,19,54.4,19.1,54.2z M19.2,55.1c0.1,0,0.1,0,0.1,0s0.1,0,0.1-0.1l-0.1-0.1c0-0.1-0.1-0.1-0.1-0.1h-0.1
			c0,0,0,0.1-0.1,0.1c0,0.1-0.1,0.1-0.1,0.2c0,0.1,0,0.1,0.1,0.1h0.2V55.1z M21.6,58.9c0,0-0.1,0-0.2,0.1c0,0.1,0,0.1,0.1,0.1
			s0.1,0.1,0,0.1v0.1c0,0,0.1,0,0.2,0s0.1,0,0.1,0.1s0,0.1,0.1,0.1c0,0,0.1,0,0.1-0.1s0-0.1,0-0.1v-0.1v-0.1V59c0,0-0.1,0-0.1-0.1
			C21.8,58.9,21.7,58.8,21.6,58.9z M22,60.6c0.1,0,0.1,0,0.2,0c0,0,0,0,0-0.1c0,0,0-0.1-0.1-0.2c0,0-0.1,0-0.2,0s-0.1,0-0.1,0.1
			c0,0,0,0.1,0.1,0.1C21.9,60.6,21.9,60.6,22,60.6z M21.9,59.8C21.9,59.8,21.8,59.8,21.9,59.8c-0.1,0.1-0.1,0.2,0,0.2
			S22,60,21.9,59.8C22,59.8,22,59.8,21.9,59.8z M22,60.8L22,60.8c-0.1,0-0.1,0-0.1,0l0,0c0,0,0,0,0,0.1c0,0,0,0,0,0.1l0,0
			c0,0,0,0,0.1,0l0.1-0.1C22.2,60.9,22.2,60.9,22,60.8L22,60.8z M22,58.7L22,58.7C22,58.8,22,58.8,22,58.7c0,0.1,0.1,0.1,0.2,0.2
			v-0.1l0,0c0,0,0,0,0.1,0h0.1c0.1,0,0.1-0.1,0-0.1l0,0c-0.1,0-0.2,0-0.2,0h-0.1C22,58.6,22,58.6,22,58.7L22,58.7z M22.2,59.7
			L22.2,59.7c-0.1,0.2-0.1,0.3-0.1,0.3c0.1,0.1,0.2,0.1,0.2,0.1c0.1,0,0.1-0.1,0-0.2v-0.1c0,0,0,0,0-0.1
			C22.4,59.8,22.3,59.7,22.2,59.7z M22.7,59.5C22.7,59.4,22.7,59.4,22.7,59.5c-0.2-0.1-0.3,0-0.3,0.1v0.1c0,0,0,0.1,0.1,0.1l0,0
			c0,0,0-0.1,0.1-0.1C22.6,59.5,22.7,59.5,22.7,59.5z M22.9,61L22.9,61c-0.1-0.2-0.3-0.2-0.4,0c0,0,0,0,0,0.1
			C22.6,61.2,22.7,61.1,22.9,61C22.8,61,22.9,61,22.9,61z M22.7,59L22.7,59c0.1-0.1,0.2-0.1,0.2-0.2c0,0,0,0,0-0.1s-0.1-0.1-0.2-0.1
			c0,0-0.1,0-0.1,0.1C22.5,58.9,22.6,58.9,22.7,59L22.7,59L22.7,59z M22.9,57.9c-0.1,0-0.1,0-0.1,0s0,0,0,0.1s0,0.1,0.1,0.1
			c0,0,0,0,0.1,0S22.9,58,22.9,57.9L22.9,57.9z M23,59.9C23,59.9,23,59.9,23,59.9c0-0.1,0-0.1-0.1-0.1s-0.1,0-0.1,0l0,0
			c0,0.1,0,0.2,0.2,0.2C23,60.1,23,60,23,59.9C23,60,23,60,23,59.9z M22.9,57.5L22.9,57.5c0.1,0,0.1,0,0.1-0.1c0,0,0-0.1-0.1-0.1
			l0,0c0,0-0.1,0-0.1,0.1S22.8,57.5,22.9,57.5L22.9,57.5z M23,57.6L23,57.6L23,57.6L23,57.6C23,57.7,23,57.7,23,57.6
			C23.1,57.6,23.1,57.6,23,57.6C23.1,57.6,23,57.6,23,57.6z M23.4,59.3h-0.1c0,0,0,0,0,0.1l0.1,0.1c0.1,0,0.1,0,0.1,0l0.1-0.1v-0.1
			H23.4z M23.6,61.9C23.6,61.8,23.6,61.8,23.6,61.9c-0.1-0.1-0.2-0.1-0.2,0c0,0,0,0.1,0.1,0.1L23.6,61.9z"/>
	</g>
	<g>
		<path class="st0" d="M30.8,55.9v-1.3v-0.1c0,0,0-0.1,0-0.2c0,0,0-0.1,0.1-0.1v-0.1V52v-0.1c0-0.1,0-0.1,0-0.1v-0.3
			c0,0,0-0.1,0-0.2c0-0.1,0.1-0.1,0.1-0.2V51c0,0,0.1,0,0.1-0.1l0.1-0.1c0,0,0.1,0,0.2,0s0.1-0.1,0.2-0.1h0.6c0.1,0,0.2,0,0.2,0
			c0.1,0.1,0.2,0.2,0.3,0.3s0.1,0.2,0.1,0.3c0,0,0,0.1,0,0.2c0,0.1,0,0.2,0,0.2c0,0.2,0,0.3-0.1,0.3v0.7l0.1,0.1c0,0.1,0,0.1,0,0.2
			c0,0.1,0,0.1,0,0.2c0,0.2,0,0.5,0,0.7c0,0.3,0,0.6,0,0.9c0,0.3,0,0.6,0,0.7v0.1c0,0.1,0,0.1,0,0.2c0,0,0,0.1-0.1,0.1V56v0.1v0.1
			v1.6c0,0,0,0.1-0.1,0.2c0,0.1,0,0.1,0,0.2s0,0.2,0,0.4V59v0.1c0,0.1,0,0.1,0,0.1v0.1c0,0.2,0,0.3,0.1,0.3V60c0,0.6,0,1.1,0,1.4
			c0,0,0,0.1-0.1,0.2c0,0.1-0.1,0.1,0,0.2c0,0.1,0,0.1,0,0.2c0,0.1,0,0.2,0,0.2s0,0.1-0.1,0.3c0,0-0.1,0.1-0.2,0.2
			c-0.1,0.1-0.2,0.1-0.3,0.1h-0.3c0,0-0.1,0-0.2,0s-0.1,0-0.2,0c-0.3-0.1-0.4-0.2-0.4-0.3s-0.1-0.1-0.2-0.2c0,0,0-0.1-0.1-0.1
			s0-0.1-0.1-0.1c0,0,0,0-0.1-0.1c0-0.1,0-0.1-0.1-0.1c0-0.1-0.1-0.2-0.1-0.3c-0.1-0.1-0.1-0.2-0.1-0.3c0,0,0,0-0.1-0.1v-0.1
			c0,0,0-0.1-0.1-0.2v-0.1c0-0.1-0.1-0.1-0.1-0.1s0-0.1,0-0.2c0-0.1-0.1-0.1-0.1-0.1s0,0,0-0.1c0,0,0-0.1-0.1-0.1
			c0-0.1-0.1-0.1-0.1-0.1s0-0.1-0.1-0.1c0-0.1,0-0.1,0-0.2c0,0,0,0,0-0.1l-0.1-0.1c0-0.1,0-0.1-0.1-0.1c0-0.1,0-0.2-0.1-0.2
			c0,0,0-0.1,0-0.2c0-0.1-0.1-0.1-0.1-0.2l-0.1-0.1c0-0.1,0-0.1-0.1-0.1c0,0,0-0.1-0.1-0.1s0-0.1,0-0.2v-0.1l-0.1-0.1v-0.1
			c0-0.1,0-0.1-0.1-0.1c0-0.1-0.1-0.1-0.1-0.3s-0.1-0.2-0.1-0.3c-0.1-0.2-0.1-0.3-0.2-0.4L28,56.6l-0.1-0.1c0-0.1,0-0.1-0.1-0.1
			c0-0.1,0-0.1,0-0.2c0-0.1-0.1-0.1-0.1-0.1s0,0-0.1-0.1l0,0c0,0,0,0,0,0.1c0,0.3,0,0.6,0,0.7c0,0.2,0,0.3-0.1,0.3c0,0,0,0,0,0.1V59
			c0.4,0,0.4,0.1,0.4,0.3v0.4v0.4v0.4c0,0,0,0.1-0.1,0.2c0,0.1,0,0.1,0,0.2V61v0.1c0,0.1,0,0.1,0,0.1v0.4V62v0.4
			c0,0.1,0,0.1-0.1,0.1c-0.1,0.1-0.2,0.2-0.2,0.2h-0.3c-0.2,0-0.3,0.1-0.3,0.1h-0.3c-0.2,0-0.3-0.1-0.4-0.2
			c-0.1-0.1-0.2-0.3-0.2-0.4v-1.8c0-0.1,0-0.2,0.1-0.2c0,0,0-0.1,0-0.2v-1.9c0,0,0-0.1-0.1-0.2c0-0.1,0-0.1,0-0.2v-0.4V57v-0.4
			c0,0,0-0.1,0.1-0.2c0-0.1,0-0.1,0-0.2V56v-0.3v-0.4V55v-0.3v-0.1L26,54.5v-0.7v-0.1c0.1-0.1,0.1-0.2,0-0.3c0-0.1-0.1-0.1-0.1-0.2
			v-1.9c0-0.1,0-0.1,0-0.1s0,0,0.1-0.1s0-0.1,0.1-0.1c0,0,0,0,0.1-0.1c0,0,0,0,0.1-0.1c0,0,0,0,0.1-0.1l0.1-0.1c0.4,0,0.7,0,1,0
			c0,0,0.1,0,0.1,0.1l0.1,0.1c0.2,0,0.3,0.1,0.4,0.2c0.1,0.1,0.2,0.3,0.2,0.4c0,0,0,0.1,0.1,0.1c0,0.1,0,0.1,0,0.1v0.1
			c0.1,0.1,0.1,0.2,0.1,0.3c0.1,0,0.1,0.1,0.1,0.2l0.1,0.1c0,0,0,0.1,0.1,0.1c0,0.1,0.1,0.3,0.3,0.6c0,0.1,0,0.1,0,0.2
			c0,0.1,0.1,0.1,0.1,0.2c0,0.1,0.1,0.1,0.1,0.2c0,0,0,0.1,0.1,0.2c0.1,0.1,0.1,0.2,0.1,0.2l0.1,0.1c0,0.1,0,0.1,0.1,0.1
			c0,0,0,0.1,0.1,0.2c0,0.1,0,0.1,0,0.1v0.1v0.1c0,0,0,0,0,0.1s0,0,0,0.1c0,0,0,0,0,0.1c0,0,0,0.1,0.1,0.1c0,0.1,0,0.1,0,0.2
			c0,0,0,0.1,0.1,0.1c0,0.1,0,0.1,0.1,0.1c0,0,0,0,0,0.1v0.2l0.1,0.1c0,0.1,0,0.1,0,0.1s0,0,0,0.1c0,0,0,0.1,0.1,0.1v0.1v0.1
			c0,0,0,0.1,0.1,0.1s0,0.1,0,0.1s0,0,0.1,0.1c0,0,0,0.1,0.1,0.1c0,0,0,0.1,0,0.2c0,0.1,0.1,0.1,0.1,0.1s0,0.1,0.1,0.1
			c0,0.1,0.1,0.1,0.1,0.1c0,0.1,0.1,0.1,0.1,0.1s0.1,0,0.1-0.1v-1.4H30.8z M26.7,53.8L26.7,53.8c0.1-0.1,0.1-0.2,0-0.2
			c0,0-0.1,0-0.1,0.1C26.6,53.8,26.6,53.8,26.7,53.8z M26.8,58.9c-0.1,0-0.1,0-0.1,0.1l0.1,0.1C26.8,59,26.8,59,26.8,58.9L26.8,58.9
			z M27,54.3c0-0.1,0-0.1-0.1-0.1h-0.1l-0.1,0.1v0.1c0,0,0,0,0.1,0.1s0,0,0.1,0.1l0.1-0.1C27,54.4,27,54.3,27,54.3z M27.1,55
			L27.1,55c-0.1-0.1-0.2-0.1-0.2-0.1c-0.1,0.1-0.1,0.2,0,0.3l0,0c0,0,0.1,0,0.1-0.1c0,0,0,0,0-0.1C27.1,55.1,27.1,55.1,27.1,55z
			 M27.1,53.6C27.1,53.5,27.1,53.5,27.1,53.6c-0.1-0.1-0.2-0.1-0.2,0C26.9,53.6,26.9,53.6,27.1,53.6C27,53.7,27.1,53.6,27.1,53.6z
			 M27.2,55.8L27.2,55.8c0-0.1,0-0.1-0.1-0.1c0,0-0.1,0-0.1,0.1v0.1c0,0,0,0,0.1,0C27.2,55.9,27.2,55.9,27.2,55.8L27.2,55.8z
			 M27.2,54.8c-0.1,0-0.1,0-0.1,0.1c0,0,0,0.1,0.1,0.1C27.3,55,27.3,54.9,27.2,54.8C27.3,54.8,27.3,54.8,27.2,54.8z M27.3,54.5
			L27.3,54.5c0.1,0,0.1,0,0.1-0.1c0,0,0-0.1-0.1-0.1h-0.1c0,0,0,0,0,0.1C27.1,54.5,27.2,54.5,27.3,54.5L27.3,54.5z M27.9,53.5
			L27.9,53.5L27.9,53.5L27.9,53.5c0-0.1,0-0.1-0.1-0.1c0,0,0,0-0.1,0c0,0-0.1,0-0.1,0.1c0,0,0,0.1-0.1,0.2c0,0-0.1,0.1-0.2,0.1
			c0,0,0,0,0,0.1s0,0.1,0,0.1s-0.1,0.1-0.1,0.2l0,0c0,0,0,0,0.1,0c0,0,0.1-0.1,0.2-0.1h0.1h0.1h0.1c0,0,0,0,0-0.1s0-0.2,0-0.2
			C27.8,53.7,27.9,53.6,27.9,53.5z M27.4,55.6c0.1,0,0.2,0,0.2,0s0,0,0-0.1c-0.1-0.2-0.2-0.3-0.3-0.3l0,0l0,0c0,0.1,0,0.2,0,0.2
			C27.3,55.6,27.4,55.6,27.4,55.6z M27.6,55.1L27.6,55.1L27.6,55.1c0-0.1,0-0.1-0.1-0.1l0,0l0,0c-0.1,0-0.1,0.1-0.1,0.1
			C27.5,55.2,27.5,55.2,27.6,55.1L27.6,55.1L27.6,55.1L27.6,55.1z M27.9,54.6L27.9,54.6c0-0.1,0-0.1-0.1-0.1h-0.1v0.1l0.1,0.1
			C27.8,54.7,27.9,54.7,27.9,54.6L27.9,54.6z M28,54.2l-0.1,0.1c0,0,0,0,0,0.1c0,0,0,0,0.1,0l0,0l0.1-0.1c0,0,0,0,0-0.1
			c0,0-0.1,0-0.2,0.1l0,0h-0.1l0,0l0,0l0,0C27.8,54.4,27.9,54.4,28,54.2z M28.1,55.1c0.1,0,0.1,0,0.1,0s0.1,0,0.1-0.1l-0.1-0.1
			c0-0.1-0.1-0.1-0.1-0.1H28c0,0,0,0.1-0.1,0.1c0,0.1-0.1,0.1-0.1,0.2c0,0.1,0,0.1,0.1,0.1h0.2V55.1z M30.5,58.9c0,0-0.1,0-0.2,0.1
			c0,0.1,0,0.1,0.1,0.1s0.1,0.1,0,0.1v0.1c0,0,0.1,0,0.2,0s0.1,0,0.1,0.1s0,0.1,0.1,0.1c0,0,0.1,0,0.1-0.1s0-0.1,0-0.1v-0.1v-0.1V59
			c0,0-0.1,0-0.1-0.1C30.6,58.9,30.6,58.8,30.5,58.9z M30.9,60.6c0.1,0,0.1,0,0.2,0c0,0,0,0,0-0.1c0,0,0-0.1-0.1-0.2
			c0,0-0.1,0-0.2,0s-0.1,0-0.1,0.1c0,0,0,0.1,0.1,0.1C30.7,60.6,30.8,60.6,30.9,60.6z M30.8,59.8C30.7,59.8,30.7,59.8,30.8,59.8
			c-0.1,0.1-0.1,0.2,0,0.2C30.8,60,30.9,60,30.8,59.8C30.9,59.8,30.8,59.8,30.8,59.8z M30.9,60.8L30.9,60.8c-0.1,0-0.1,0-0.1,0l0,0
			c0,0,0,0,0,0.1c0,0,0,0,0,0.1l0,0c0,0,0,0,0.1,0l0.1-0.1C31.1,60.9,31,60.9,30.9,60.8L30.9,60.8z M30.9,58.7L30.9,58.7
			C30.9,58.8,30.9,58.8,30.9,58.7c0,0.1,0.1,0.1,0.2,0.2v-0.1l0,0c0,0,0,0,0.1,0h0.1c0.1,0,0.1-0.1,0-0.1l0,0c-0.1,0-0.2,0-0.2,0H31
			C30.9,58.6,30.9,58.6,30.9,58.7L30.9,58.7z M31.1,59.7L31.1,59.7C31,59.9,31,60,31,60c0.1,0.1,0.2,0.1,0.2,0.1
			c0.1,0,0.1-0.1,0-0.2v-0.1c0,0,0,0,0-0.1C31.3,59.8,31.2,59.7,31.1,59.7z M31.6,59.5C31.6,59.4,31.5,59.4,31.6,59.5
			c-0.2-0.1-0.3,0-0.3,0.1v0.1c0,0,0,0.1,0.1,0.1l0,0c0,0,0-0.1,0.1-0.1C31.5,59.5,31.6,59.5,31.6,59.5z M31.7,61L31.7,61
			c-0.1-0.2-0.3-0.2-0.4,0c0,0,0,0,0,0.1C31.5,61.2,31.6,61.1,31.7,61L31.7,61z M31.5,59L31.5,59c0.1-0.1,0.2-0.1,0.2-0.2
			c0,0,0,0,0-0.1s-0.1-0.1-0.2-0.1c0,0-0.1,0-0.1,0.1C31.4,58.9,31.4,58.9,31.5,59L31.5,59L31.5,59z M31.7,57.9c-0.1,0-0.1,0-0.1,0
			s0,0,0,0.1s0,0.1,0.1,0.1c0,0,0,0,0.1,0S31.8,58,31.7,57.9C31.8,57.9,31.8,57.9,31.7,57.9z M31.9,59.9
			C31.9,59.9,31.9,59.9,31.9,59.9c0-0.1,0-0.1-0.1-0.1s-0.1,0-0.1,0l0,0c0,0.1,0,0.2,0.2,0.2C31.8,60.1,31.9,60,31.9,59.9
			C31.9,60,31.9,60,31.9,59.9z M31.8,57.5L31.8,57.5c0.1,0,0.1,0,0.1-0.1c0,0,0-0.1-0.1-0.1h-0.1c0,0-0.1,0-0.1,0.1
			C31.7,57.5,31.7,57.5,31.8,57.5L31.8,57.5z M31.9,57.6C31.9,57.6,31.8,57.6,31.9,57.6C31.8,57.6,31.8,57.6,31.9,57.6L31.9,57.6
			C31.9,57.7,31.9,57.7,31.9,57.6C31.9,57.6,32,57.6,31.9,57.6L31.9,57.6z M32.3,59.3L32.3,59.3C32.2,59.3,32.2,59.3,32.3,59.3v0.2
			c0.1,0,0.1,0,0.1,0l0.1-0.1v-0.1H32.3z M32.5,61.9C32.5,61.8,32.4,61.8,32.5,61.9c-0.1-0.1-0.2-0.1-0.2,0c0,0,0,0.1,0.1,0.1
			C32.4,62,32.5,61.9,32.5,61.9z"/>
	</g>
	<g>
		<path class="st0" d="M38.3,50.9L38.3,50.9c0.2,0,0.2,0,0.3,0l0,0h0.1c0.1,0,0.1,0,0.2,0c0.1,0,0.2,0,0.2,0h0.3
			c0.2,0,0.4,0.1,0.6,0.3c0.1,0.1,0.1,0.2,0.2,0.3c0,0,0,0.1,0,0.2c0,0.1,0,0.1,0,0.2c0,0.1,0,0.1,0.1,0.3c0,0.1,0.1,0.2,0.1,0.3
			s0.1,0.3,0.1,0.5c0,0.1,0,0.2,0.1,0.3c0,0.2,0.1,0.3,0.1,0.4c0,0,0,0.2,0.1,0.5c0,0.1,0,0.2,0,0.3c0,0,0,0.1,0,0.2
			c0,0.1,0,0.1,0,0.1s0,0.1,0,0.2c0,0.1,0,0.2,0,0.2l0.1,0.4c0,0.1,0.1,0.2,0.1,0.4v0.1c0,0.1,0,0.1,0.1,0.2v0.1v0.1
			c0,0,0,0.2,0.1,0.4c0,0.1,0.1,0.3,0.1,0.4c0,0,0,0.1,0,0.2c0,0.1,0,0.2,0.1,0.3V58c0,0,0,0,0,0.1l0,0c0,0,0,0.3,0.1,0.7
			c0,0.1,0.1,0.4,0.2,0.6v0.1c0,0.1,0,0.1,0,0.1c0,0.1,0,0.2,0.1,0.3c0,0,0,0.1,0,0.2c0,0.1,0,0.2,0.1,0.2c0,0.1,0,0.1,0,0.2
			c0,0,0,0,0,0.1c0,0,0,0,0,0.1c0,0,0,0.1,0,0.2c0,0.1,0,0.1,0,0.2c0,0.1,0,0.2,0.1,0.3v0.1c0,0.1,0,0.1,0,0.2c0,0.1,0,0.1,0,0.1
			v0.1c0,0.1,0,0.1,0,0.1s0,0.1,0.1,0.3c0,0.1,0,0.3,0,0.3c0,0.1,0,0.1-0.1,0.2c-0.1,0.1-0.2,0.2-0.3,0.2s-0.1,0-0.3,0s-0.2,0-0.2,0
			s-0.1,0-0.2,0c-0.1,0-0.2,0-0.2,0c-0.1,0-0.2,0-0.3-0.1c-0.2-0.2-0.3-0.4-0.3-0.5s-0.1-0.3-0.2-0.6l-0.1-0.4
			c0-0.1-0.1-0.3-0.1-0.6c-0.1-0.3-0.1-0.5-0.1-0.5c0-0.1-0.1-0.1-0.1-0.2L39.5,60c0,0-0.1-0.1-0.2-0.1c-0.1,0-0.2,0-0.3,0.1
			c0,0-0.1,0-0.3,0.1c-0.1,0-0.2,0-0.3,0.1c0,0,0,0-0.1,0h-0.1c0,0,0,0-0.1,0c0,0,0,0-0.1,0s-0.2,0-0.2,0s-0.1,0-0.2,0
			c-0.1,0-0.1,0-0.2,0c-0.2,0-0.3,0.1-0.5,0.2c-0.1,0.1-0.2,0.3-0.3,0.5c-0.1,0.5-0.2,0.8-0.2,0.9c0,0,0,0.2-0.1,0.4
			c0,0.2-0.1,0.3-0.2,0.4c-0.1,0.1-0.2,0.2-0.4,0.2c-0.1,0-0.2,0-0.3,0l-0.5,0.1c-0.2,0-0.3,0-0.4-0.1c-0.1-0.1-0.1-0.2-0.2-0.3
			c0-0.1,0-0.3,0.1-0.6c0,0,0-0.1,0.1-0.2s0-0.2,0.1-0.2c0-0.1,0-0.2,0.1-0.4c0,0,0-0.1,0-0.2c0-0.1,0-0.2,0.1-0.3v-0.1
			c0-0.1,0-0.1,0-0.1s0,0,0-0.1s0-0.1,0-0.1v-0.1c0-0.1,0-0.1,0-0.1l0,0l0.1-0.1v-0.1v-0.1c0-0.2,0.1-0.4,0.1-0.4s0,0,0-0.1
			c0,0,0-0.1,0-0.2v-0.1c0-0.1,0-0.1,0-0.1s0,0,0-0.1s0-0.1,0-0.1s0-0.2,0.1-0.4c0,0,0-0.1,0.1-0.2c0-0.1,0-0.2,0-0.2
			c0-0.1,0-0.2,0.1-0.3s0-0.2,0-0.3s0-0.2,0.1-0.3s0-0.2,0.1-0.2c0-0.1,0-0.2,0-0.2s0-0.1,0.1-0.2v-0.1v-0.1V56c0-0.1,0-0.1,0-0.3
			c0,0,0-0.1,0.1-0.2c0-0.1,0-0.2,0.1-0.3c0-0.1,0.1-0.3,0.1-0.5c0.1-0.3,0.1-0.5,0.1-0.6c0.1-0.3,0.1-0.4,0.1-0.5v-0.1
			c0-0.1,0-0.1,0-0.2c0-0.1,0-0.1,0-0.2c0,0,0-0.1,0-0.2c0-0.1,0-0.2,0-0.2c0-0.1,0-0.2,0.1-0.3c0-0.1,0.1-0.3,0.1-0.3V52v-0.1
			c0,0,0,0,0-0.1s0,0,0-0.1l0.1-0.4c0.1-0.1,0.1-0.2,0.2-0.2c1.2-0.1,1.3-0.1,1.3-0.1s0,0,0.1,0l0,0L38.3,50.9L38.3,50.9z
			 M36.9,59.4L36.9,59.4C37,59.4,37,59.3,36.9,59.4c0.1-0.1,0.1-0.1,0.1-0.2h-0.1C36.9,59.2,36.8,59.2,36.9,59.4
			C36.7,59.3,36.7,59.4,36.9,59.4C36.8,59.4,36.8,59.4,36.9,59.4z M36.9,58.8C36.8,58.8,36.8,58.8,36.9,58.8c-0.1,0.1,0,0.2,0,0.2
			c0.1,0,0.1,0,0.2,0c0,0,0.1,0,0.1-0.1s0-0.1-0.1-0.1c0,0,0,0-0.1,0C37,58.9,37,58.9,36.9,58.8C36.9,58.9,36.9,58.8,36.9,58.8
			L36.9,58.8z M37,58.6L37,58.6C36.9,58.6,36.9,58.6,37,58.6C36.9,58.7,36.9,58.7,37,58.6C37,58.7,37,58.7,37,58.6L37,58.6L37,58.6
			L37,58.6L37,58.6z M37.1,58.2C37.1,58.1,37.1,58.1,37.1,58.2c-0.1-0.1-0.1-0.1-0.2,0c0,0,0,0,0,0.1C37,58.2,37,58.3,37.1,58.2
			L37.1,58.2z M37.9,59c0-0.1,0-0.2-0.1-0.2h-0.1c-0.1,0.1-0.1,0.1,0,0.2H37.9L37.9,59L37.9,59z M39.5,57.4c0-0.1,0-0.2,0-0.2
			c0-0.1,0-0.2-0.1-0.5c0-0.2-0.1-0.3-0.1-0.5c0,0,0,0,0-0.1l0,0c0-0.1,0-0.2-0.1-0.3c0-0.1-0.1-0.2-0.1-0.3c0-0.2-0.1-0.3-0.1-0.3
			c0-0.2,0-0.2,0-0.3c0,0-0.1-0.1-0.1-0.2c0-0.1,0-0.1,0-0.1v-0.1v-0.1v-0.1c0-0.1,0-0.1,0-0.1s0,0-0.1,0c0,0-0.1,0.1-0.1,0.3
			s-0.1,0.3-0.1,0.4c0,0.1,0,0.2-0.1,0.4c0,0.2-0.1,0.3-0.1,0.3v0.1v0.1c0,0,0,0,0,0.1V56c-0.1,0.1-0.1,0.5-0.2,1
			c-0.1,0.3-0.1,0.5-0.1,0.5l-0.2,0.4c0,0.1,0.1,0.2,0.2,0.2c0,0,0.1,0,0.3,0c0.3,0,0.5-0.1,0.7-0.1c0.1,0,0.2-0.1,0.3-0.2
			S39.5,57.6,39.5,57.4z M37.9,58.6C38,58.6,38,58.5,37.9,58.6L37.9,58.6L37.9,58.6L37.9,58.6L37.9,58.6z M38.1,52.4
			C38.1,52.4,38,52.4,38.1,52.4c-0.1,0.2-0.1,0.2,0,0.3h0.1c0,0,0.1,0,0.1-0.1c0,0,0-0.1,0-0.2C38.2,52.5,38.2,52.4,38.1,52.4
			L38.1,52.4z M38.3,52.3C38.4,52.3,38.4,52.3,38.3,52.3L38.3,52.3C38.4,52.2,38.4,52.2,38.3,52.3C38.3,52.2,38.3,52.2,38.3,52.3
			L38.3,52.3l-0.2-0.1H38c0,0,0,0,0,0.1C38.2,52.3,38.2,52.3,38.3,52.3z M38.3,53.2L38.3,53.2C38.4,53.2,38.4,53.2,38.3,53.2
			c0.1-0.1,0.1-0.2,0-0.2S38.2,53.1,38.3,53.2C38.1,53.2,38.2,53.2,38.3,53.2z M39,53C39.1,53,39.1,53,39,53L39,53l-0.1-0.2
			c0-0.1,0-0.1,0-0.2H39c0,0,0,0-0.1,0c0,0,0,0-0.1,0.1s-0.1,0.1-0.1,0.1s0,0-0.1,0s-0.1,0-0.1,0l0,0l-0.1,0.3v0.1h0.1l0,0l0,0
			c0,0,0,0,0-0.1V53C38.8,53.1,38.9,53,39,53z M38.6,51.7C38.7,51.7,38.7,51.6,38.6,51.7C38.6,51.6,38.6,51.6,38.6,51.7
			C38.6,51.6,38.6,51.6,38.6,51.7C38.6,51.6,38.6,51.7,38.6,51.7z M38.8,52.5c0-0.1,0-0.1-0.1-0.2c0,0,0,0-0.1,0l-0.1,0.1
			C38.6,52.5,38.6,52.6,38.8,52.5C38.8,52.6,38.8,52.5,38.8,52.5z M38.9,51.6L38.9,51.6C38.9,51.5,38.9,51.5,38.9,51.6
			C38.8,51.5,38.8,51.5,38.9,51.6C38.8,51.6,38.8,51.6,38.9,51.6C38.9,51.6,38.9,51.7,38.9,51.6C38.9,51.7,38.9,51.7,38.9,51.6z
			 M39.1,52.2C39,52.2,39,52.2,39.1,52.2c-0.1,0.1-0.1,0.2,0,0.2C39.1,52.4,39.1,52.3,39.1,52.2C39.1,52.3,39.1,52.3,39.1,52.2
			C39.1,52.3,39.1,52.2,39.1,52.2z M39.3,51.9L39.3,51.9C39.4,51.8,39.3,51.8,39.3,51.9C39.2,51.8,39.2,51.8,39.3,51.9
			C39.2,51.9,39.3,51.9,39.3,51.9z M39.3,52.2L39.3,52.2C39.4,52.2,39.4,52.2,39.3,52.2C39.4,52.1,39.4,52.1,39.3,52.2
			C39.3,52.1,39.3,52.1,39.3,52.2L39.3,52.2L39.3,52.2L39.3,52.2z M39.6,53.3c0-0.1,0-0.2-0.1-0.3h-0.1l-0.1,0.1c0,0,0,0,0,0.1
			c0,0,0,0,0,0.1c0,0,0,0,0,0.1l0,0C39.5,53.4,39.5,53.4,39.6,53.3C39.5,53.4,39.5,53.4,39.6,53.3C39.6,53.4,39.6,53.4,39.6,53.3z
			 M39.6,53C39.6,52.9,39.5,52.9,39.6,53c-0.1-0.1-0.1-0.1-0.2,0C39.4,53,39.5,53,39.6,53L39.6,53z M39.5,53.6
			C39.5,53.5,39.5,53.5,39.5,53.6C39.4,53.5,39.4,53.5,39.5,53.6C39.4,53.6,39.4,53.7,39.5,53.6C39.5,53.7,39.5,53.7,39.5,53.6
			C39.5,53.7,39.5,53.6,39.5,53.6z M39.7,59.2c0,0,0-0.1-0.1-0.2c-0.1,0-0.1,0-0.2,0c0,0,0,0,0,0.1s0,0,0,0.1
			C39.5,59.2,39.5,59.3,39.7,59.2C39.7,59.3,39.7,59.3,39.7,59.2L39.7,59.2z M40.1,58.8C40.1,58.9,40.1,58.9,40.1,58.8
			C40.2,58.9,40.2,58.9,40.1,58.8C40.2,58.8,40.2,58.7,40.1,58.8C40.1,58.7,40.1,58.8,40.1,58.8z M40.5,58.9
			C40.5,58.9,40.4,58.9,40.5,58.9c-0.1,0.1-0.1,0.2,0,0.2s0.1,0,0.1-0.1C40.6,58.9,40.6,58.9,40.5,58.9z M40.6,58
			C40.5,58,40.5,58,40.6,58C40.5,58,40.5,58.1,40.6,58L40.6,58C40.6,58.1,40.7,58.1,40.6,58l0.2,0.1C40.8,58.1,40.8,58.1,40.6,58
			L40.6,58z M40.8,57.6C40.8,57.5,40.8,57.5,40.8,57.6c-0.1-0.1-0.2-0.1-0.2,0C40.6,57.6,40.7,57.6,40.8,57.6L40.8,57.6z M40.7,58.4
			L40.7,58.4c-0.1,0.1,0,0.2,0,0.2s0,0,0.1,0s0,0,0-0.1C40.9,58.4,40.8,58.4,40.7,58.4C40.8,58.4,40.8,58.4,40.7,58.4z M40.8,57.7
			L40.8,57.7C40.8,57.8,40.8,57.8,40.8,57.7C40.9,57.8,40.9,57.8,40.8,57.7C40.9,57.7,40.9,57.7,40.8,57.7z M41.2,59.6L41.2,59.6
			L41.2,59.6c0.1,0,0.2,0,0.2,0v-0.1v-0.1c0,0-0.1,0-0.2,0s-0.1,0-0.1,0l0,0C41,59.5,41.1,59.6,41.2,59.6L41.2,59.6z M41.3,62
			L41.3,62C41.4,62,41.4,62,41.3,62c0.1,0,0.1,0,0.2,0l0,0l0,0l0,0H41.3L41.3,62L41.3,62C41.2,62,41.3,62,41.3,62z M42,61.2L42,61.2
			C41.9,61.2,41.9,61.2,42,61.2C41.9,61.3,41.9,61.3,42,61.2C42,61.3,42,61.3,42,61.2z"/>
	</g>
	<g>
		<path class="st0" d="M45,60.1c0-0.9,0-1.5,0-2V58v-0.1v-0.1c0,0,0-0.1-0.1-0.1v-0.3c0-0.1,0-0.2,0.1-0.3c0,0,0-0.1,0-0.2V54
			c0-0.2,0-0.3,0.1-0.4l0,0l0,0c0,0-0.1-0.1-0.1-0.2v-2v-0.1v-0.1c0,0,0-0.1,0.1-0.1c0-0.1,0.1-0.2,0.2-0.1c0,0,0.1-0.1,0.2-0.1h3.4
			H49c0.1,0,0.1,0.1,0.1,0.1s0.1,0,0.1,0.1c0.1,0,0.1,0,0.1,0h0.1l0.1,0.1h0.1h0.1l0,0c0,0.1,0.1,0.1,0.2,0.2s0.2,0.1,0.2,0.1
			c0.1,0,0.1,0.1,0.2,0.2c0.1,0.1,0.1,0.1,0.2,0.2c0.1,0.1,0.1,0.1,0.2,0.2c0,0.1,0,0.1,0.1,0.2s0.1,0.1,0.1,0.1s0,0.1,0.1,0.2
			c0,0.1,0.1,0.2,0.1,0.2l0,0c0,0.2,0,0.3,0.1,0.3c0,0.1,0,0.1,0,0.3v0.8c0,0.1,0,0.2-0.1,0.2v0.1v0.1v0.1c0,0,0,0,0,0.1
			c0,0,0,0,0,0.1c0,0,0,0,0,0.1c0,0,0,0,0,0.1c0,0,0,0,0,0.1c0,0,0,0,0,0.1v0.1c0,0,0,0.1-0.1,0.1v0.1c0,0,0,0.1-0.1,0.1l0,0l0,0
			c0,0,0,0.1-0.1,0.3c0,0,0,0,0,0.1c0,0,0,0,0,0.1l0.2,0.3l0,0l0,0l0,0l0.1,0.1l0.2,0.2c0,0,0,0.1,0.1,0.1c0.1,0.1,0.1,0.1,0.1,0.1
			s0,0.1,0.1,0.2c0,0.1,0.1,0.1,0.1,0.2c0,0,0,0,0.1,0.1c0,0.1,0.1,0.1,0,0.1v0.1c0,0.1,0.1,0.1,0.1,0.1v0.1c0,0.1,0,0.1,0,0.1
			c0.1,0.1,0.1,0.1,0.1,0.3c0,0.1,0,0.2,0,0.3c0,0,0,0.1,0,0.2s0,0.2,0,0.2s0,0.1,0.1,0.2v0.6C52,59.9,52,60,52,60.2
			c0,0,0,0.1-0.1,0.1s0,0.1,0,0.1v0.1l-0.1,0.1c0,0,0,0.1-0.1,0.1s0,0.1,0,0.2c0,0-0.1,0.1-0.1,0.2c0,0.1-0.1,0.2-0.1,0.2l-0.1,0.1
			c0,0.1-0.1,0.1-0.1,0.2L51,61.9l-0.3,0.3c0,0,0,0-0.1,0.1c-0.1,0-0.1,0.1-0.1,0.1s0,0-0.1,0.1c-0.1,0-0.1,0-0.1,0.1h-0.1l-0.1,0.1
			c0,0,0,0-0.1,0s-0.1,0-0.1,0l-0.1,0.1h-0.1c0,0-0.1,0-0.2,0c-0.1,0-0.1,0.1-0.2,0.1c0,0-0.2,0-0.4,0h-0.4h-0.4h-0.2
			c0,0.1-0.1,0.1-0.2,0.1c-0.2,0-0.2,0-0.3,0s-0.2,0-0.2-0.1h-0.8c0,0.1-0.1,0.1-0.4,0.1c-0.2,0-0.4,0-0.4,0h-0.1c0,0-0.1,0-0.1-0.1
			c0,0-0.1,0-0.1-0.1l0,0l0,0c-0.1-0.1-0.2-0.2-0.2-0.3C45,61.8,45,61.1,45,60.1z M45.6,59.1C45.6,59.1,45.7,59.1,45.6,59.1
			c0.1-0.1,0.1-0.2,0-0.2c0,0-0.1,0-0.1,0.1C45.5,59.1,45.5,59.1,45.6,59.1z M45.8,55.1C45.7,55.1,45.7,55.1,45.8,55.1
			C45.7,55.1,45.7,55.1,45.8,55.1c-0.1,0.1-0.1,0.2,0,0.3c0,0,0,0,0.1,0l0,0l0,0C45.9,55.1,45.9,55.1,45.8,55.1L45.8,55.1z
			 M46.1,56.9L46.1,56.9L46,56.7c0,0-0.1,0-0.1,0.1v0.1C46,57,46,57,46.1,56.9h0.1l0,0H46.1z M46,55.8L46,55.8
			C45.9,55.8,45.9,55.8,46,55.8c-0.1,0.1-0.1,0.2,0,0.3c0,0,0,0,0.1,0l0.1-0.1v-0.1L46,55.8L46,55.8z M46.4,55.6
			C46.4,55.5,46.4,55.5,46.4,55.6C46.4,55.5,46.4,55.5,46.4,55.6l-0.2-0.1c0,0,0,0,0,0.1c0,0,0,0.1,0.1,0.2c0,0,0,0,0.1,0
			C46.4,55.7,46.4,55.7,46.4,55.6L46.4,55.6z M46.4,53.9L46.4,53.9L46.4,53.9C46.3,53.9,46.3,53.9,46.4,53.9c-0.1,0.2,0,0.2,0.1,0.2
			c0.1,0,0.1,0,0.1-0.1C46.5,53.9,46.5,53.9,46.4,53.9L46.4,53.9z M46.7,56.8L46.7,56.8C46.7,56.9,46.7,56.9,46.7,56.8
			C46.7,56.9,46.7,56.9,46.7,56.8L46.7,56.8c0,0.2,0.1,0.2,0.1,0.2l0.1-0.1c0,0,0,0,0-0.1C46.9,56.8,46.8,56.8,46.7,56.8z
			 M46.8,54.3v1.1c0,0.2,0.1,0.4,0.3,0.5c0,0,0.1,0,0.2,0.1c0.1,0.1,0.1,0,0.2-0.1c0.1,0,0.2,0,0.2-0.1h0.1h0.1H48
			c0.1,0,0.1-0.1,0.1-0.1s0.1,0,0.1-0.1c0.1,0,0.1-0.1,0.1-0.1s0.1,0,0.1-0.1s0.1-0.1,0.1-0.1s0.1,0,0.1-0.1s0.1-0.1,0.1-0.1
			s0.1-0.1,0.2-0.2c0.1-0.2,0.2-0.3,0.3-0.3l0.1-0.1c0,0,0-0.1,0.1-0.2s0-0.1,0.1-0.1v-0.1V54v-0.1v-0.4c0-0.1,0-0.1,0-0.2
			c0-0.1-0.1-0.2-0.1-0.2L49.3,53c0-0.1,0-0.1-0.1-0.1c0,0,0,0-0.1-0.1c0,0,0-0.1-0.1-0.1c0,0,0-0.1-0.1-0.1h-0.1h-0.1
			c0-0.1-0.1-0.1-0.2-0.1h-1.6h-0.1l-0.1,0.1c-0.1,0.1-0.1,0.1-0.1,0.1s0,0,0,0.1c0,0,0,0.1-0.1,0.1c0,0,0,0.1,0,0.2v1.2H46.8z
			 M46.8,59.5v1.2c0,0.1,0,0.1,0.1,0.2c0,0,0.1,0.1,0.2,0.2c0,0.1,0.1,0.1,0.2,0.1c0.4,0,1,0,1.8,0c0.1,0,0.2,0,0.2-0.1h0.1
			c0,0,0.1-0.1,0.1,0l0.1-0.1c0.1,0,0.1-0.1,0.1-0.1l0.2-0.2l0.1-0.1l0.1-0.1c0,0,0-0.1,0.1-0.1v-0.1c0-0.1,0-0.1,0.1-0.1v-0.4
			c0,0,0-0.1,0-0.2c0-0.1,0.1-0.1,0.1-0.2v-0.6c0-0.1,0-0.2,0-0.2s-0.1-0.1-0.1-0.2l-0.1-0.1c0-0.1,0-0.1,0-0.1s0,0-0.1-0.1
			C50,58.1,50,58,50,58l0,0l0,0c-0.1-0.1-0.1-0.1-0.2-0.2l-0.1-0.1c0,0-0.1,0-0.1-0.1c-0.1-0.1-0.2-0.1-0.3-0.1c0,0-0.1,0-0.2,0
			c-0.1,0-0.2,0-0.2,0l-0.1,0.1h-0.1l-0.1,0.1h-0.1c0,0-0.1,0.1-0.2,0.1c-0.1,0-0.1,0-0.2,0.1h-0.2h-0.1c0,0-0.1,0.1-0.2,0.1h-0.1
			c0,0-0.1,0-0.1,0.1c-0.1,0-0.2,0.1-0.3,0.2c0,0,0,0-0.1,0.1C46.9,58,46.9,58,46.9,58s0,0,0,0.1v0.1c-0.1,0-0.1,0.2-0.1,0.3V59.5z
			 M47.3,56.6L47.3,56.6C47.3,56.5,47.3,56.5,47.3,56.6L47.3,56.6L47.3,56.6C47.2,56.6,47.2,56.6,47.3,56.6L47.3,56.6L47.3,56.6
			L47.3,56.6L47.3,56.6z M47.7,56.7L47.7,56.7L47.7,56.7L47.7,56.7C47.7,56.8,47.8,56.9,47.7,56.7C47.8,56.8,47.8,56.8,47.7,56.7
			L47.7,56.7C47.8,56.7,47.8,56.7,47.7,56.7L47.7,56.7z M49.4,55.4C49.4,55.3,49.4,55.3,49.4,55.4h-0.2
			C49.2,55.5,49.3,55.5,49.4,55.4C49.4,55.5,49.4,55.4,49.4,55.4z M49.5,56L49.5,56c-0.2,0-0.2,0.1-0.2,0.2c0,0.1,0.1,0.1,0.1,0.1
			c0.1,0,0.1,0,0.2,0l0.1-0.1c0,0,0,0,0-0.1C49.6,56.1,49.6,56,49.5,56z M49.9,56.4L49.9,56.4C49.8,56.4,49.8,56.4,49.9,56.4
			c-0.1,0.1-0.1,0.2,0,0.3c0,0,0,0,0.1,0l0,0l0,0c0,0,0,0,0-0.1C50,56.4,50,56.4,49.9,56.4L49.9,56.4z M50.3,54.8L50.3,54.8
			L50.3,54.8L50.3,54.8L50.3,54.8C50.2,54.8,50.2,54.8,50.3,54.8C50.2,54.8,50.2,54.9,50.3,54.8z M51.2,59.4c-0.1,0-0.1,0-0.2,0l0,0
			l0,0c0.1,0.1,0.2,0.1,0.4,0.1c0,0,0,0,0-0.1v-0.1C51.3,59.5,51.3,59.5,51.2,59.4L51.2,59.4z"/>
	</g>
	<g>
		<path class="st0" d="M56.9,50.9L56.9,50.9c0.2,0,0.2,0,0.3,0l0,0h0.1c0.1,0,0.1,0,0.2,0c0.1,0,0.2,0,0.2,0H58
			c0.2,0,0.4,0.1,0.6,0.3c0.1,0.1,0.1,0.2,0.2,0.3c0,0,0,0.1,0,0.2s0,0.1,0,0.2c0,0.1,0,0.1,0.1,0.3c0,0.1,0.1,0.2,0.1,0.3
			s0.1,0.3,0.1,0.5c0,0.1,0,0.2,0.1,0.3c0,0.2,0.1,0.3,0.1,0.4c0,0,0,0.2,0.1,0.5c0,0.1,0,0.2,0,0.3c0,0,0,0.1,0,0.2s0,0.1,0,0.1
			s0,0.1,0,0.2c0,0.1,0,0.2,0,0.2l0.1,0.4c0,0.1,0.1,0.2,0.1,0.4v0.1c0,0.1,0,0.1,0.1,0.2v0.1v0.1c0,0,0,0.2,0.1,0.4
			c0,0.1,0.1,0.3,0.1,0.4c0,0,0,0.1,0,0.2s0,0.2,0.1,0.3V58c0,0,0,0,0,0.1l0,0c0,0,0,0.3,0.1,0.7c0,0.1,0.1,0.4,0.2,0.6v0.1
			c0,0.1,0,0.1,0,0.1c0,0.1,0,0.2,0.1,0.3c0,0,0,0.1,0,0.2s0,0.2,0.1,0.2c0,0.1,0,0.1,0,0.2c0,0,0,0,0,0.1s0,0,0,0.1
			c0,0,0,0.1,0,0.2c0,0.1,0,0.1,0,0.2c0,0.1,0,0.2,0.1,0.3v0.1c0,0.1,0,0.1,0,0.2c0,0.1,0,0.1,0,0.1v0.1V62c0,0,0,0.1,0.1,0.3
			s0,0.3,0,0.3c0,0.1,0,0.1-0.1,0.2c-0.1,0.1-0.2,0.2-0.3,0.2s-0.1,0-0.3,0s-0.2,0-0.2,0s-0.1,0-0.2,0c-0.1,0-0.2,0-0.2,0
			c-0.1,0-0.2,0-0.3-0.1c-0.2-0.2-0.3-0.4-0.3-0.5s-0.1-0.3-0.2-0.6l-0.1-0.4c0-0.1-0.1-0.3-0.1-0.6c-0.1-0.3-0.1-0.5-0.1-0.5
			c0-0.1-0.1-0.1-0.1-0.2L58.1,60c0,0-0.1-0.1-0.2-0.1c-0.1,0-0.2,0-0.3,0.1c0,0-0.1,0-0.3,0.1s-0.2,0-0.3,0.1c0,0,0,0-0.1,0h-0.1
			c0,0,0,0-0.1,0c0,0,0,0-0.1,0s-0.2,0-0.2,0s-0.1,0-0.2,0c-0.1,0-0.1,0-0.2,0c-0.2,0-0.3,0.1-0.5,0.2c-0.1,0.1-0.2,0.3-0.3,0.5
			c-0.1,0.5-0.2,0.8-0.2,0.9c0,0,0,0.2-0.1,0.4c0,0.2-0.1,0.3-0.2,0.4c-0.1,0.1-0.2,0.2-0.4,0.2c-0.1,0-0.2,0-0.3,0l-0.5,0.1
			c-0.2,0-0.3,0-0.4-0.1c-0.1-0.1-0.1-0.2-0.2-0.3c0-0.1,0-0.3,0.1-0.6c0,0,0-0.1,0.1-0.2s0-0.2,0.1-0.2c0-0.1,0-0.2,0.1-0.4
			c0,0,0-0.1,0-0.2c0-0.1,0-0.2,0.1-0.3v-0.1c0-0.1,0-0.1,0-0.1s0,0,0-0.1s0-0.1,0-0.1v-0.1c0-0.1,0-0.1,0-0.1l0,0l0.1-0.1v-0.1
			v-0.1c0-0.2,0.1-0.4,0.1-0.4s0,0,0-0.1c0,0,0-0.1,0-0.2v-0.1c0-0.1,0-0.1,0-0.1s0,0,0-0.1s0-0.1,0-0.1s0-0.2,0.1-0.4
			c0,0,0-0.1,0.1-0.2c0-0.1,0-0.2,0-0.2c0-0.1,0-0.2,0.1-0.3s0-0.2,0-0.3s0-0.2,0.1-0.3s0-0.2,0.1-0.2c0-0.1,0-0.2,0-0.2
			s0-0.1,0.1-0.2v-0.1c0-0.1,0-0.1,0-0.1V56c0-0.1,0-0.1,0-0.3c0,0,0-0.1,0.1-0.2s0-0.2,0.1-0.3c0-0.1,0.1-0.3,0.1-0.5
			c0.1-0.3,0.1-0.5,0.1-0.6c0.1-0.3,0.1-0.4,0.1-0.5v-0.1c0-0.1,0-0.1,0-0.2c0-0.1,0-0.1,0-0.2c0,0,0-0.1,0-0.2c0-0.1,0-0.2,0-0.2
			c0-0.1,0-0.2,0.1-0.3c0-0.1,0.1-0.3,0.1-0.3V52v-0.1c0,0,0,0,0-0.1c0,0,0,0,0-0.1l0.1-0.4c0.1-0.1,0.1-0.2,0.2-0.2
			c0.1-0.1,0.2-0.1,0.3-0.1c0,0,0,0,0.1,0l0,0h1.3V50.9z M55.5,59.4L55.5,59.4C55.6,59.4,55.6,59.3,55.5,59.4
			c0.1-0.1,0.1-0.1,0.1-0.2h-0.1C55.5,59.2,55.4,59.2,55.5,59.4C55.4,59.3,55.4,59.4,55.5,59.4C55.4,59.4,55.4,59.4,55.5,59.4z
			 M55.5,58.8C55.4,58.8,55.4,58.8,55.5,58.8c-0.1,0.1,0,0.2,0,0.2c0.1,0,0.1,0,0.2,0c0,0,0.1,0,0.1-0.1s0-0.1-0.1-0.1
			c0,0,0,0-0.1,0S55.6,58.9,55.5,58.8C55.5,58.9,55.5,58.8,55.5,58.8L55.5,58.8z M55.6,58.6L55.6,58.6
			C55.5,58.6,55.5,58.6,55.6,58.6C55.5,58.7,55.5,58.7,55.6,58.6C55.6,58.7,55.6,58.7,55.6,58.6L55.6,58.6
			C55.7,58.6,55.7,58.6,55.6,58.6C55.7,58.6,55.6,58.6,55.6,58.6L55.6,58.6z M55.7,58.2C55.7,58.1,55.7,58.1,55.7,58.2
			c-0.1-0.1-0.1-0.1-0.2,0c0,0,0,0,0,0.1C55.6,58.2,55.6,58.3,55.7,58.2L55.7,58.2z M56.5,59c0-0.1,0-0.2-0.1-0.2h-0.1
			c-0.1,0.1-0.1,0.1,0,0.2H56.5L56.5,59L56.5,59z M58.1,57.4c0-0.1,0-0.2,0-0.2c0-0.1,0-0.2-0.1-0.5c0-0.2-0.1-0.3-0.1-0.5
			c0,0,0,0,0-0.1l0,0c0-0.1,0-0.2-0.1-0.3c0-0.1-0.1-0.2-0.1-0.3c0-0.2-0.1-0.3-0.1-0.3c0-0.2,0-0.2,0-0.3c0,0-0.1-0.1-0.1-0.2
			c0-0.1,0-0.1,0-0.1v-0.1v-0.1v-0.1v-0.1c0,0,0,0-0.1,0c0,0-0.1,0.1-0.1,0.3s-0.1,0.3-0.1,0.4c0,0.1,0,0.2-0.1,0.4
			c0,0.2-0.1,0.3-0.1,0.3v0.1v0.1c0,0,0,0,0,0.1V56c-0.1,0.1-0.1,0.5-0.2,1c-0.1,0.3-0.1,0.5-0.1,0.5l-0.1,0.4
			c0,0.1,0.1,0.2,0.2,0.2c0,0,0.1,0,0.3,0c0.3,0,0.5-0.1,0.7-0.1c0.1,0,0.2-0.1,0.3-0.2C58.1,57.7,58.1,57.6,58.1,57.4z M56.6,58.6
			C56.6,58.6,56.6,58.5,56.6,58.6L56.6,58.6L56.6,58.6C56.5,58.6,56.5,58.6,56.6,58.6L56.6,58.6z M56.7,52.4
			C56.7,52.4,56.6,52.4,56.7,52.4c-0.1,0.2-0.1,0.2,0,0.3h0.1c0,0,0.1,0,0.1-0.1c0,0,0-0.1,0-0.2C56.8,52.5,56.8,52.4,56.7,52.4
			L56.7,52.4z M56.9,52.3C57,52.3,57,52.3,56.9,52.3L56.9,52.3C57,52.2,57,52.2,56.9,52.3C56.9,52.2,56.9,52.2,56.9,52.3L56.9,52.3
			l-0.2-0.1h-0.1c0,0,0,0,0,0.1C56.8,52.3,56.8,52.3,56.9,52.3z M56.9,53.2L56.9,53.2C57,53.2,57,53.2,56.9,53.2
			c0.1-0.1,0.1-0.2,0-0.2S56.8,53.1,56.9,53.2C56.8,53.2,56.8,53.2,56.9,53.2z M57.6,53C57.7,53,57.7,53,57.6,53L57.6,53l-0.1-0.2
			c0-0.1,0-0.1,0-0.2h0.1c0,0,0,0-0.1,0c0,0,0,0-0.1,0.1s-0.1,0.1-0.1,0.1s0,0-0.1,0h-0.1l0,0L57,53.1v0.1h0.1l0,0l0,0
			c0,0,0,0,0-0.1V53C57.4,53.1,57.5,53,57.6,53z M57.2,51.7C57.3,51.7,57.3,51.6,57.2,51.7C57.2,51.6,57.2,51.6,57.2,51.7
			C57.2,51.6,57.2,51.6,57.2,51.7C57.2,51.6,57.2,51.7,57.2,51.7z M57.4,52.5c0-0.1,0-0.1-0.1-0.2c0,0,0,0-0.1,0l-0.1,0.1
			C57.2,52.5,57.2,52.6,57.4,52.5C57.4,52.6,57.4,52.5,57.4,52.5z M57.6,51.6L57.6,51.6C57.6,51.5,57.5,51.5,57.6,51.6
			C57.5,51.5,57.5,51.5,57.6,51.6C57.5,51.6,57.5,51.6,57.6,51.6C57.5,51.6,57.5,51.7,57.6,51.6C57.5,51.7,57.6,51.7,57.6,51.6z
			 M57.7,52.2C57.6,52.2,57.6,52.2,57.7,52.2c-0.1,0.1-0.1,0.2,0,0.2C57.7,52.4,57.7,52.3,57.7,52.2C57.7,52.3,57.7,52.3,57.7,52.2
			C57.7,52.3,57.7,52.2,57.7,52.2z M57.9,51.9C57.9,51.9,58,51.9,57.9,51.9C58,51.8,57.9,51.8,57.9,51.9
			C57.9,51.8,57.8,51.8,57.9,51.9C57.8,51.9,57.9,51.9,57.9,51.9z M57.9,52.2L57.9,52.2C58,52.2,58,52.2,57.9,52.2
			C58,52.1,58,52.1,57.9,52.2C57.9,52.1,57.9,52.1,57.9,52.2L57.9,52.2L57.9,52.2L57.9,52.2z M58.2,53.3c0-0.1,0-0.2-0.1-0.3H58
			l-0.1,0.1c0,0,0,0,0,0.1c0,0,0,0,0,0.1c0,0,0,0,0,0.1l0,0C58.1,53.4,58.1,53.4,58.2,53.3C58.1,53.4,58.2,53.4,58.2,53.3
			C58.2,53.4,58.2,53.4,58.2,53.3z M58.2,53C58.2,52.9,58.1,52.9,58.2,53c-0.1-0.1-0.1-0.1-0.2,0C58,53,58.1,53,58.2,53L58.2,53z
			 M58.2,53.6C58.2,53.5,58.1,53.5,58.2,53.6C58.1,53.5,58.1,53.5,58.2,53.6C58,53.6,58.1,53.7,58.2,53.6
			C58.1,53.7,58.1,53.7,58.2,53.6C58.2,53.7,58.2,53.6,58.2,53.6z M58.4,59.2c0,0,0-0.1-0.1-0.2c-0.1,0-0.1,0-0.2,0c0,0,0,0,0,0.1
			s0,0,0,0.1C58.2,59.2,58.2,59.3,58.4,59.2C58.3,59.3,58.3,59.3,58.4,59.2C58.3,59.2,58.4,59.2,58.4,59.2z M58.7,58.8
			C58.7,58.9,58.7,58.9,58.7,58.8C58.8,58.9,58.8,58.9,58.7,58.8C58.9,58.8,58.8,58.7,58.7,58.8C58.7,58.7,58.7,58.8,58.7,58.8z
			 M59.1,58.9L59.1,58.9c-0.1,0.1-0.1,0.2,0,0.2s0.1,0,0.1-0.1C59.2,58.9,59.2,58.9,59.1,58.9z M59.2,58C59.2,58,59.1,58,59.2,58
			C59.1,58,59.1,58.1,59.2,58L59.2,58C59.2,58.1,59.3,58.1,59.2,58l0.2,0.1C59.4,58.1,59.4,58.1,59.2,58C59.3,58,59.2,58,59.2,58z
			 M59.4,57.6C59.4,57.5,59.4,57.5,59.4,57.6c-0.1-0.1-0.2-0.1-0.2,0C59.2,57.6,59.3,57.6,59.4,57.6L59.4,57.6z M59.4,58.4
			C59.3,58.4,59.3,58.4,59.4,58.4c-0.1,0.1,0,0.2,0,0.2s0,0,0.1,0s0,0,0-0.1C59.5,58.4,59.5,58.4,59.4,58.4L59.4,58.4z M59.4,57.7
			L59.4,57.7C59.4,57.8,59.4,57.8,59.4,57.7C59.5,57.8,59.5,57.8,59.4,57.7C59.5,57.7,59.5,57.7,59.4,57.7z M59.9,59.6L59.9,59.6
			L59.9,59.6c0.1,0,0.2,0,0.2,0v-0.1v-0.1c0,0-0.1,0-0.2,0c-0.1,0-0.1,0-0.1,0l0,0C59.6,59.5,59.7,59.6,59.9,59.6L59.9,59.6z M60,62
			L60,62C60.1,62,60.1,62,60,62c0.1,0,0.1,0,0.2,0l0,0l0,0l0,0H60L60,62L60,62C59.8,62,59.9,62,60,62z M60.6,61.2L60.6,61.2
			C60.5,61.2,60.5,61.2,60.6,61.2C60.5,61.3,60.5,61.3,60.6,61.2C60.6,61.3,60.6,61.3,60.6,61.2z"/>
	</g>
	<g>
		<path class="st0" d="M65.3,60.8V62v0.3c0,0.1-0.1,0.2-0.1,0.2c0,0.1,0,0.1-0.1,0.1c0,0-0.1,0-0.1,0.1c-0.1,0-0.1,0.1-0.2,0.1h-0.1
			c-0.1,0-0.1,0-0.1,0h-0.3H64c0,0-0.1,0-0.1-0.1c0,0,0,0-0.1,0c0,0,0,0-0.1,0c0,0-0.1,0-0.1-0.1c0,0,0-0.1-0.1-0.1
			c0-0.1-0.1-0.1-0.1-0.1c0-0.1,0-0.2,0-0.3s0.1-0.2,0.1-0.3s0-0.2,0-0.3s0-0.2,0-0.3v-1v-1c0,0,0-0.1-0.1-0.1V59v-0.2v-0.3
			c0,0,0-0.1,0.1-0.2c0-0.1,0-0.1,0-0.2v-0.4v-0.4v-0.4v-0.4V56v-0.4v-0.4v-0.4v-0.4V54c0-0.1,0-0.2,0.1-0.3c0,0,0,0,0-0.1
			s0-0.1,0-0.1s-0.1-0.1-0.1-0.2v-1.9c0-0.2,0.1-0.4,0.3-0.5c0,0,0.1,0,0.2,0c0.1,0,0.1-0.1,0.1-0.1c0.2,0,0.3,0,0.4,0
			c0.2,0.1,0.4,0.1,0.4,0.1c0.1,0,0.2,0,0.4,0h0.4h0.1h0.1H66c0,0,0.1,0,0.1-0.1h0.4c0,0,0.1,0,0.1,0.1c0.1,0,0.1,0,0.2,0
			s0.2,0,0.3,0h0.3c0,0,0.1,0,0.1,0.1h0.1c0,0,0.1,0,0.2,0s0.1,0.1,0.1,0.1s0.1,0,0.2,0.1c0.1,0,0.1,0.1,0.1,0.1s0.1,0.1,0.3,0.2
			h0.1c0,0,0.1,0,0.1,0.1c0.1,0.1,0.1,0.2,0.3,0.3s0.2,0.2,0.2,0.2s0,0.1,0.1,0.1s0.1,0.1,0.1,0.1c0,0.1,0.1,0.3,0.2,0.5
			c0,0,0,0.1,0,0.2c0,0.1,0.1,0.1,0.1,0.2v0.1v0.1v0.2c0,0.1,0,0.1,0.1,0.2c0,0,0,0.1,0,0.3c0,0-0.1,0.1-0.1,0.3v1
			c0,0.2,0,0.3-0.1,0.3v0.1c0,0,0,0.1,0,0.2s0,0.1,0,0.1v0.1c0,0.1,0,0.1-0.1,0.1c0,0.1,0,0.1,0,0.1v0.1c0,0,0,0.1-0.1,0.1
			c-0.1,0.1-0.1,0.2-0.2,0.3c0,0,0,0.1-0.1,0.1c-0.1,0.1-0.2,0.2-0.3,0.2c-0.1,0.1-0.2,0.2-0.2,0.2s-0.1,0-0.2,0.1s-0.1,0.1-0.1,0.1
			c-0.1,0-0.1,0-0.2,0.1c0,0.1-0.1,0.1-0.1,0.1s0,0,0,0.1v0.3c0,0.2,0,0.3,0,0.3s0,0.1,0.1,0.2c0,0.1,0.1,0.1,0.1,0.2
			c0,0,0.1,0.1,0.1,0.2s0,0.1,0.1,0.2l0,0v0.1c0,0,0,0,0,0.1c0,0,0,0,0,0.1v0.1v0.1l0.1,0.1c0,0.1,0,0.1,0,0.1s0,0.1,0.1,0.2
			c0.1,0.1,0.1,0.2,0.1,0.2s0.1,0.1,0.1,0.2s0,0.1,0.1,0.2c0,0,0,0.1,0,0.2c0,0.1,0.1,0.1,0.1,0.2v0.1c0,0,0,0.1,0.1,0.1
			c0,0.1,0.1,0.1,0.1,0.2c0,0.1,0.1,0.2,0.2,0.3c0,0.1,0,0.1,0.1,0.3c0.1,0.1,0.1,0.2,0.1,0.3c0,0,0.1,0.2,0.1,0.4
			c0,0,0,0.1-0.1,0.1l-0.1,0.1h-0.1h-0.5l-0.1,0.1c-0.1,0-0.1,0-0.2,0s-0.1,0-0.2,0c0,0-0.1,0-0.1-0.1s-0.1,0-0.2,0l-0.2-0.5
			c-0.1-0.1-0.1-0.1-0.2-0.3c-0.1-0.1-0.1-0.2-0.1-0.2c0-0.1,0-0.2-0.1-0.2c0,0,0-0.1,0-0.2c0-0.1-0.1-0.1-0.1-0.2
			c0,0-0.1-0.1-0.1-0.2c0-0.1,0-0.1-0.1-0.2c0,0,0-0.1,0-0.2c0-0.1-0.1-0.1-0.1-0.2C67,60.5,67,60.4,67,60.4l-0.1-0.1v-0.1l0-0.1
			c0,0,0,0,0-0.1c0,0,0,0,0-0.1v-0.1l-0.1-0.1c0,0,0,0-0.1-0.1s0-0.1,0-0.2v-0.1v-0.1c0,0,0-0.1-0.1-0.2c-0.1-0.1-0.1-0.2-0.1-0.2
			c-0.2-0.2-0.3-0.2-0.5-0.2s-0.4,0.1-0.4,0.3V59v0.1v1.7H65.3z M64.2,59.2C64.2,59.2,64.2,59.1,64.2,59.2
			C64.3,59.1,64.3,59.1,64.2,59.2L64.2,59.2L64.2,59.2C64.1,59.1,64.1,59.1,64.2,59.2L64.2,59.2z M64.2,58.3
			C64.3,58.3,64.3,58.2,64.2,58.3c0.1-0.1,0.1-0.2,0-0.2c0,0-0.1,0-0.1,0.1C64.1,58.2,64.2,58.3,64.2,58.3z M65,53.9L65,53.9
			C64.9,53.9,64.9,53.9,65,53.9C64.8,54,64.8,54,65,53.9v0.2h0.1l0.1-0.1C65.1,53.9,65.1,53.9,65,53.9L65,53.9z M64.9,58.1
			L64.9,58.1L64.9,58.1C64.9,58.2,64.9,58.2,64.9,58.1L64.9,58.1C64.9,58.2,65,58.3,64.9,58.1C65,58.2,65,58.2,64.9,58.1L64.9,58.1
			C65.1,58.1,65,58.1,64.9,58.1L64.9,58.1z M65.2,57.8L65.2,57.8L65.2,57.8C65.1,57.7,65.1,57.8,65.2,57.8L65.2,57.8
			C65.1,57.9,65.1,57.9,65.2,57.8C65.2,57.9,65.2,57.9,65.2,57.8z M65.3,54.7v1.7v0.1l0.3,0.3h0.1c0.1,0,0.1,0,0.1,0h0.1l0.1-0.1
			c0.1,0,0.2,0,0.3-0.1c0,0,0,0,0.1,0s0.1,0,0.1-0.1l0.2-0.1c0.2-0.1,0.4-0.2,0.5-0.2s0.1-0.1,0.2-0.1s0.1-0.1,0.2-0.2
			s0.1-0.1,0.1-0.1c0.1-0.1,0.1-0.1,0.1-0.1s0,0,0.1-0.1c0,0,0,0,0-0.1c0,0,0,0,0-0.1s0-0.1,0-0.1l0.1-0.1v-1.7c0,0,0,0,0-0.1
			c0,0,0,0,0-0.1s-0.2-0.3-0.4-0.5c0,0-0.1-0.1-0.2-0.1s-0.2-0.1-0.2-0.1s-0.1,0-0.2,0h-1.1c-0.1,0-0.2,0-0.2,0
			c-0.1,0.1-0.2,0.1-0.3,0.2v0.1c0,0.1-0.1,0.1-0.1,0.1V54.7z M65.4,58.2L65.4,58.2L65.4,58.2C65.4,58.3,65.4,58.3,65.4,58.2
			L65.4,58.2c0.1,0,0.1,0,0.2,0c0,0,0,0,0-0.1L65.4,58.2C65.5,58.1,65.4,58.1,65.4,58.2L65.4,58.2z M65.9,57.3L65.9,57.3L65.9,57.3
			l-0.1,0.2c0.1,0,0.2,0,0.3-0.1c0,0,0,0,0-0.1H65.9z M66,57.8C66.1,57.8,66.1,57.8,66,57.8c0.1-0.2,0.1-0.2,0-0.2s-0.1,0-0.2,0.1
			v0.1C65.9,57.8,66,57.8,66,57.8z M66.8,57.4C66.8,57.3,66.8,57.3,66.8,57.4c-0.1-0.1-0.2-0.1-0.2,0C66.6,57.5,66.6,57.5,66.8,57.4
			C66.8,57.5,66.8,57.4,66.8,57.4z M66.8,58C66.8,57.9,66.8,57.9,66.8,58C66.7,58,66.7,58,66.8,58L66.8,58
			C66.7,58.1,66.8,58.1,66.8,58L66.8,58z M68.9,54.9C68.9,54.8,68.9,54.8,68.9,54.9C68.8,54.8,68.8,54.8,68.9,54.9
			C68.8,54.8,68.8,54.8,68.9,54.9C68.8,54.9,68.8,55,68.9,54.9C68.9,54.9,68.9,54.9,68.9,54.9z"/>
	</g>
</g>
<g>
	<path class="st0" d="M37.1,64.9C37,64.9,37,64.9,37.1,64.9v0.2C37,65,37.1,65,37.1,64.9L37.1,64.9z"/>
</g>
<g>
	<path class="st0" d="M37,65C37.1,65,37.1,65,37,65v-0.2C37,64.9,37,64.9,37,65C36.9,65,37,65,37,65z"/>
</g>
<g>
	<path class="st0" d="M37.2,65.3c-0.3,0-0.5,0-0.4,0.3C37,65.5,37.1,65.4,37.2,65.3z"/>
</g>
<g>
	<path class="st0" d="M34.9,74.1C34.8,74.1,34.8,74.1,34.9,74.1C34.8,74,34.7,74,34.7,74h-0.1l0,0v0.1l0,0l0,0c0,0,0,0.1,0.1,0
		C34.8,74.3,34.8,74.3,34.9,74.1L34.9,74.1z"/>
	<path class="st0" d="M35.1,74C35.1,73.9,35,73.9,35.1,74l-0.2,0.2l0,0l0,0H35c0,0,0,0,0.1,0c0,0.1,0.1,0.1,0.1,0.1
		c0,0.1,0.1,0.1,0.1,0l0.1-0.1C35.3,74.1,35.3,74,35.1,74L35.1,74z"/>
	<path class="st0" d="M34.6,73.8C34.6,73.8,34.7,73.8,34.6,73.8c0.1-0.1,0.1-0.2,0-0.2c0,0-0.1-0.1-0.1,0h-0.1v0.1v0.1
		C34.5,73.8,34.5,73.8,34.6,73.8L34.6,73.8L34.6,73.8z"/>
	<path class="st0" d="M35.4,73.4L35.4,73.4C35.4,73.4,35.4,73.5,35.4,73.4c-0.1,0.1-0.1,0.2-0.1,0.2v0.1h0.1h0.1l0,0c0,0,0,0,0.1,0
		l0,0C35.5,73.5,35.5,73.4,35.4,73.4z"/>
	<path class="st0" d="M35.7,74.6L35.7,74.6L35.7,74.6L35.7,74.6L35.7,74.6L35.7,74.6z"/>
	<path class="st0" d="M36.1,74.8L36.1,74.8C36,74.7,36,74.7,36.1,74.8c-0.1-0.1-0.1-0.1-0.2-0.1l0,0l0,0l0,0
		C36,74.9,36.1,74.9,36.1,74.8L36.1,74.8z"/>
	<path class="st0" d="M34.7,72.6L34.7,72.6C34.6,72.5,34.6,72.6,34.7,72.6C34.6,72.6,34.6,72.7,34.7,72.6
		C34.7,72.7,34.7,72.7,34.7,72.6z"/>
	<path class="st0" d="M34.5,73.2L34.5,73.2C34.6,73.2,34.6,73.2,34.5,73.2L34.5,73.2C34.6,73.2,34.6,73.2,34.5,73.2
		C34.6,73.1,34.6,73.1,34.5,73.2C34.5,73.1,34.4,73.1,34.5,73.2C34.4,73.1,34.4,73.2,34.5,73.2z"/>
	<path class="st0" d="M34.4,72.7L34.4,72.7C34.3,72.8,34.3,72.8,34.4,72.7C34.5,72.8,34.5,72.8,34.4,72.7
		C34.5,72.7,34.5,72.7,34.4,72.7z"/>
	<path class="st0" d="M36.9,75.5L36.9,75.5C36.9,75.4,36.9,75.4,36.9,75.5C36.9,75.4,36.9,75.4,36.9,75.5L36.9,75.5
		C36.8,75.5,36.8,75.5,36.9,75.5L36.9,75.5z"/>
	<path class="st0" d="M38.1,73.2L38.1,73.2C38,73.2,38,73.2,38.1,73.2L38.1,73.2L38.1,73.2z"/>
	<path class="st0" d="M38.2,73.7L38.2,73.7L38.2,73.7c-0.1,0.2,0,0.2,0.1,0.1l0.1-0.1l0,0l0,0H38.2z"/>
	<path class="st0" d="M38.4,73.5L38.4,73.5C38.4,73.5,38.3,73.5,38.4,73.5C38.3,73.5,38.3,73.5,38.4,73.5
		C38.3,73.6,38.4,73.7,38.4,73.5L38.4,73.5C38.4,73.6,38.4,73.6,38.4,73.5L38.4,73.5z"/>
	<path class="st0" d="M38.8,78L38.8,78C38.8,78.1,38.9,78.1,38.8,78L38.8,78L38.8,78L38.8,78C39,78,38.9,77.9,38.8,78
		C38.9,77.9,38.8,77.9,38.8,78z"/>
	<path class="st0" d="M38.7,73.6C38.6,73.6,38.6,73.6,38.7,73.6C38.6,73.6,38.7,73.7,38.7,73.6c0,0.1,0,0.2,0.1,0.2l0,0l0,0
		C38.8,73.8,38.7,73.7,38.7,73.6L38.7,73.6L38.7,73.6z"/>
	<path class="st0" d="M36.1,75.1C36.1,75.2,36.1,75.2,36.1,75.1c0,0.1,0,0.1,0,0.2s0.1,0,0.1,0l0,0L36.1,75.1L36.1,75.1
		C36.3,75.1,36.3,75.1,36.1,75.1C36.2,75.1,36.2,75.1,36.1,75.1z"/>
	<path class="st0" d="M34.9,73.6C34.9,73.5,34.8,73.5,34.9,73.6C34.8,73.5,34.8,73.6,34.9,73.6C34.8,73.6,34.8,73.6,34.9,73.6
		C34.8,73.6,34.9,73.6,34.9,73.6z"/>
	<path class="st0" d="M36.7,76.1L36.7,76.1C36.7,76,36.7,76,36.7,76.1C36.7,76,36.7,76,36.7,76.1L36.7,76.1L36.7,76.1
		C36.6,76,36.6,76,36.7,76.1C36.6,76.1,36.7,76.1,36.7,76.1L36.7,76.1z"/>
	<path class="st0" d="M39,72.1L39,72.1v0.2h0.1c0.1,0,0.1-0.1,0.1-0.1C39.2,72.1,39.1,72.1,39,72.1C39.1,72.1,39,72.1,39,72.1z"/>
	<path class="st0" d="M38.8,71.9C38.8,72,38.9,72,38.8,71.9C38.9,72,38.9,72,39,72c0,0,0,0,0-0.1s0-0.2,0.1-0.2c0,0,0,0,0.1-0.1l0,0
		c0,0,0,0-0.1,0H39c0,0,0,0-0.1,0.1C38.9,71.7,38.8,71.7,38.8,71.9L38.8,71.9C38.8,71.9,38.8,71.9,38.8,71.9z"/>
	<path class="st0" d="M37.7,73.4L37.7,73.4C37.7,73.4,37.7,73.5,37.7,73.4C37.7,73.5,37.8,73.5,37.7,73.4
		C37.8,73.5,37.8,73.4,37.7,73.4L37.7,73.4L37.7,73.4z"/>
	<path class="st0" d="M38.9,73.2C38.9,73.1,38.9,73.1,38.9,73.2C39,73.1,39,73.1,38.9,73.2C38.9,73.1,38.9,73.1,38.9,73.2
		c-0.1-0.1-0.2-0.1-0.2,0c0,0,0,0,0,0.1c0,0,0,0-0.1,0c0,0-0.1-0.1-0.2,0h-0.1c0,0,0,0-0.1,0s-0.1,0-0.1,0.1v0.1c0,0,0,0,0.1,0l0,0
		v0.1l0,0h0.1c0,0,0,0,0.1,0s0.1,0,0.1,0s0,0,0.1,0c0,0,0.1,0,0.1-0.1C38.8,73.2,38.8,73.2,38.9,73.2L38.9,73.2z"/>
	<path class="st0" d="M27.3,74.9c0,0,0-0.2,0-0.3c0-0.1,0-0.2-0.1-0.3l0,0l0,0c0,0,0-0.1,0-0.2s0-0.1-0.1-0.2c0-0.1,0-0.2-0.1-0.2
		c0-0.1,0-0.2,0-0.2v-0.1v-0.1c0,0,0,0,0-0.1v-0.1V73v-0.1l0,0c0,0,0,0.1-0.1,0.2c0,0.1,0,0.2-0.1,0.3c0,0.1,0,0.2-0.1,0.3
		c0,0.1,0,0.2-0.1,0.2V74v0.1c0,0,0,0,0,0.1c0,0,0,0,0,0.1s-0.1,0.3-0.2,0.7c-0.1,0.2-0.1,0.3-0.1,0.4v0.3c0,0.1,0.1,0.1,0.1,0.2
		c0,0,0.1,0,0.2,0c0.2,0,0.4-0.1,0.5-0.1s0.1,0,0.2-0.1s0.1-0.2,0.1-0.3C27.3,75,27.3,74.9,27.3,74.9z"/>
	<path class="st0" d="M34.9,73C35,73,35,73,34.9,73c0.1,0,0.2-0.1,0.2-0.1l0,0c0,0,0,0,0-0.1v-0.1v-0.1v-0.1c0,0,0-0.1-0.1-0.1l0,0
		c-0.1,0-0.1,0-0.1,0l0,0c0,0,0,0-0.1,0.1s0,0-0.1,0.1c0,0,0,0-0.1,0l0,0l0,0v0.1v0.1v0.1C34.8,73.1,34.8,73.1,34.9,73L34.9,73z"/>
	<path class="st0" d="M34.9,73.9C34.8,73.9,34.8,73.9,34.9,73.9C34.8,73.9,34.8,74,34.9,73.9c-0.1,0.1-0.1,0.1-0.1,0.2v0.1l0,0
		C34.9,74.1,34.9,74,34.9,73.9L34.9,73.9z"/>
	<path class="st0" d="M35.3,73.2C35.3,73.2,35.3,73.1,35.3,73.2L35.3,73.2L35.3,73.2z"/>
	<path class="st0" d="M35.2,73.3L35.2,73.3C35.2,73.3,35.1,73.3,35.2,73.3c-0.1,0.1-0.1,0.1,0,0.2C35.2,73.4,35.3,73.4,35.2,73.3
		C35.3,73.4,35.3,73.3,35.2,73.3L35.2,73.3z"/>
	<path class="st0" d="M34.8,73.3L34.8,73.3C34.9,73.3,34.9,73.3,34.8,73.3C34.9,73.2,34.9,73.2,34.8,73.3L34.8,73.3
		C34.8,73.2,34.8,73.2,34.8,73.3L34.8,73.3L34.8,73.3z"/>
	<path class="st0" d="M34.9,73.6L34.9,73.6L34.9,73.6L34.9,73.6L34.9,73.6L34.9,73.6L34.9,73.6L34.9,73.6C35,73.6,35,73.6,34.9,73.6
		L34.9,73.6z"/>
	<path class="st0" d="M35.3,73.2L35.3,73.2L35.3,73.2C35.2,73.2,35.2,73.2,35.3,73.2C35.2,73.2,35.2,73.2,35.3,73.2L35.3,73.2z"/>
	<path class="st0" d="M35.3,73.2L35.3,73.2C35.3,73.2,35.4,73.2,35.3,73.2C35.4,73.2,35.4,73.2,35.3,73.2
		C35.4,73.2,35.4,73.2,35.3,73.2C35.4,73.1,35.3,73.1,35.3,73.2L35.3,73.2z"/>
	<path class="st0" d="M34.4,76.4C34.4,76.5,34.4,76.5,34.4,76.4C34.5,76.5,34.5,76.5,34.4,76.4C34.5,76.4,34.5,76.4,34.4,76.4
		L34.4,76.4z"/>
	<path class="st0" d="M50.4,72.8L50.4,72.8C50.3,72.8,50.3,72.8,50.4,72.8c0,0.1,0,0.1,0,0.2c0,0,0,0,0.1,0s0.1,0,0.1,0l0,0
		C50.5,72.8,50.5,72.8,50.4,72.8z"/>
	<path class="st0" d="M38.8,72.6C38.8,72.7,38.7,72.7,38.8,72.6C38.7,72.6,38.7,72.6,38.8,72.6C38.7,72.5,38.7,72.5,38.8,72.6
		L38.8,72.6c-0.1-0.1-0.1-0.1-0.2-0.1l0,0l0,0c0,0-0.1,0-0.2,0.1l0,0c0,0,0.1,0.1,0.2,0C38.7,72.6,38.7,72.6,38.8,72.6
		C38.7,72.6,38.7,72.7,38.8,72.6c0.1,0.1,0.1,0.2,0.1,0.2s0,0,0.1,0c0,0,0.1,0,0.2-0.1h0.1v-0.1C39,72.6,38.9,72.6,38.8,72.6z"/>
	<path class="st0" d="M18.2,73.8L18.2,73.8L18.2,73.8C18.2,73.8,18.3,73.8,18.2,73.8C18.3,73.8,18.3,73.8,18.2,73.8
		C18.3,73.8,18.3,73.8,18.2,73.8z"/>
	<path class="st0" d="M50,66.1C50,66,50,66,50,66.1c-0.1-0.2-0.1-0.3-0.2-0.4C49.8,65.8,49.8,66,50,66.1z"/>
	<path class="st0" d="M49.7,66.7c0,0.3,0.4,0.2,0.4,0.3c0,0.2-0.2,0.3,0,0.5c0.1,0.1,0.1,0.3-0.3,0.4c-0.1,0.6-0.7,0.3-1.4,0
		c0-0.2,0-0.3,0-0.6c0.2,0,0.4,0,0.5,0c0.4,0,0.4,0,0.3-0.6v-0.1H24.6c0,0.1,0,0.3,0,0.5C24.4,67,24.1,66.9,24,67
		c-0.3,0.3-0.3-0.2-0.7,0c-0.3,0.4-1,0.8-1.7,0.9c0.1-0.1,0.3-0.3,0.4-0.4c0.3-0.3,0.6-0.6,1-0.9H0.5c0.7,4,2.9,8.3,7.7,12.6
		c12.3,11,27.1,10.8,28.3,10.7c0.1,0,0.3,0,0.6,0c3.1,0,16.4-0.6,27.8-10.7c4.8-4.2,6.9-8.5,7.7-12.6L49.7,66.7L49.7,66.7z
		 M4.8,66.1c-0.1,0-0.3,0-0.4,0V66C4.5,66,4.7,66,4.8,66.1L4.8,66.1z M21.8,66.6C21.8,66.6,21.8,66.7,21.8,66.6
		c0,0.1-0.1,0.2-0.1,0.2v-0.1C21.7,66.6,21.8,66.6,21.8,66.6z M12.5,72.3h0.1c0,0.1,0,0.3,0,0.4h-0.1C12.5,72.6,12.5,72.4,12.5,72.3
		z M8.2,70.7h0.1c0,0.1,0,0.3,0,0.4H8.2C8.2,71,8.2,70.9,8.2,70.7z M7.1,72.9c0.2-0.2,0.4-0.4,0.6-0.6C7.7,72.8,7.5,72.9,7.1,72.9z
		 M8.1,70c-0.1,0.2-0.2,0.4-0.3,0.6C7.5,70.2,7.9,70.1,8.1,70z M8.2,72.5c-0.1,0-0.2,0.1-0.3,0.1c0-0.1,0-0.2,0.1-0.3
		c0.1,0,0.2,0,0.3,0c0,0,0,0,0.1,0.1C8.3,72.4,8.2,72.5,8.2,72.5z M8.6,70C8.6,70.1,8.6,70,8.6,70c0-0.1,0-0.1,0.1-0.1
		c0,0,0,0,0.1,0.1C8.7,70,8.7,70,8.6,70z M8.8,65.9L8.8,65.9c0-0.1,0-0.1,0.1-0.1L9,65.9C8.9,65.9,8.9,65.9,8.8,65.9z M11.8,70.7
		c-0.1,0-0.2-0.1-0.2-0.1c0-0.1,0-0.2,0.1-0.3l0.1,0.1C11.8,70.5,11.8,70.6,11.8,70.7z M12.6,77.1L12.5,77c0,0,0,0,0.1-0.1
		C12.6,76.9,12.6,76.9,12.6,77.1C12.6,77,12.6,77,12.6,77.1z M13.3,77.7c-0.1,0-0.1,0-0.1-0.1c0,0,0,0,0.1-0.1
		C13.3,77.6,13.3,77.6,13.3,77.7C13.3,77.6,13.3,77.7,13.3,77.7z M13.3,76.7c0.1-0.1,0.2-0.2,0.3-0.3c0.1,0.3,0.2,0.6,0.4,1.1
		C13.7,77.4,13.7,77.3,13.3,76.7z M14.1,76.4C14.1,76.4,14,76.3,14.1,76.4c0-0.1,0-0.1,0.1-0.1c0,0,0,0,0.1,0.1
		C14.2,76.3,14.1,76.4,14.1,76.4z M15,71c-0.3-0.4,0.1-0.5,0.3-0.6C15.2,70.6,15.1,70.8,15,71z M15.6,75.5L15.6,75.5
		c-0.1-0.1,0-0.2,0-0.2s0,0,0.1,0.1C15.7,75.4,15.7,75.5,15.6,75.5z M15.9,74.7h-0.1c0-0.1,0-0.3,0-0.4h0.1
		C15.9,74.4,15.9,74.5,15.9,74.7z M16.3,76.8C16.2,76.8,16.2,76.8,16.3,76.8c0-0.1,0-0.1,0.1-0.1c0,0,0,0,0.1,0.1
		C16.4,76.8,16.3,76.8,16.3,76.8z M17.1,74C17.1,74,17.1,73.9,17.1,74c0-0.1,0-0.1,0.1-0.1c0,0,0,0,0.1,0.1
		C17.2,73.9,17.2,74,17.1,74z M19.9,78.9L19.8,79l-0.1,0.1c0,0-0.1,0-0.2,0.1s-0.1,0.1-0.1,0.1c-0.2,0.1-0.3,0.2-0.3,0.2
		s-0.1,0-0.2,0s-0.1,0-0.2,0h-0.1c-0.1,0-0.1,0-0.1,0s-0.1,0-0.3,0h-0.3h-0.3h-0.3h-0.1h-0.1c-0.1,0-0.2,0-0.2,0s-0.1-0.1-0.2-0.1
		l-0.2-0.1c0,0,0,0-0.1-0.1s-0.1-0.1-0.1-0.1L16.2,79c-0.1,0-0.1,0-0.1-0.1c-0.1-0.1-0.1-0.1-0.2-0.2l-0.2-0.2l0,0
		c0,0,0-0.1-0.1-0.1l-0.1-0.1c-0.1-0.2-0.1-0.3-0.2-0.3v-0.1c0-0.1,0-0.1,0-0.1v-0.1v-0.1v-0.1c0-0.1,0-0.1,0-0.1s0,0,0-0.1v-0.1
		c0,0,0-0.1,0-0.2v0v-0.2v-4.1v-0.1c0.1-0.1,0.1-0.2,0-0.3l0,0l0,0c0,0,0.1-0.1,0.1-0.2l0,0l0.1-0.1c0-0.1,0-0.1,0-0.1
		s0-0.1,0.1-0.1c0-0.1,0-0.1,0-0.1c0.1-0.1,0.1-0.2,0.1-0.2s0.1-0.1,0.2-0.2l0.2-0.2l0.2-0.2h0.1h0.1c0,0,0,0,0.1,0
		c0.1-0.1,0.1-0.1,0.2-0.1c0,0,0,0,0.1,0c0,0,0,0,0.1,0h0.1c0,0,0,0,0.1,0h0.1h0.1c0,0,0,0,0.1,0h0.1c0,0,0.1,0,0.2,0h0.4
		c0,0,0,0,0.1,0h0.1h0.3l0.1,0.1c0.1,0,0.1,0,0.1,0H19c0.1,0,0.1,0,0.1,0.1c0,0,0.1,0,0.2,0.1h0.1c0,0,0.1,0,0.1,0.1l0.2,0.1
		c0.1,0.1,0.2,0.2,0.2,0.2c0,0.1,0.1,0.1,0.1,0.2c0.1,0.1,0.1,0.1,0.1,0.2c0,0,0,0.1,0.1,0.3c0.1,0.1,0.1,0.2,0.1,0.2s0,0.1,0,0.3
		l0,0l0,0c0,0,0,0-0.1,0h-0.1c0,0,0,0-0.1,0h-0.5c-0.1,0-0.1,0-0.1,0l-0.1-0.1c-0.1,0-0.1,0-0.1,0s-0.1-0.1-0.2-0.1
		c0,0-0.1,0-0.1-0.1l-0.1-0.1c0,0-0.1,0-0.2-0.1c0,0-0.1-0.1-0.2-0.1S18.3,72,18.3,72s0,0-0.1,0h-0.3c0,0,0,0-0.1,0h-0.1h-0.1h-0.1
		h-0.1h-0.1c-0.2-0.2-0.4,0-0.4,0.2c0,0-0.1,0.1-0.1,0.2v2.5v2.5v0.1l0.1,0.1c0,0.1,0,0.1,0,0.1c0.1,0.1,0.2,0.2,0.3,0.3
		c0,0,0,0,0.1,0l0,0c0,0,0,0,0.1,0.1h0.1c0,0,0,0,0.1,0c0,0,0,0,0.1,0c0,0,0,0,0.1,0s0.1,0,0.1,0h0.5c0,0,0,0,0.1,0s0.1,0,0.1,0
		s0.1,0,0.1-0.1c0,0,0.1,0,0.1-0.1l0.1-0.1c0,0,0.1-0.1,0.1-0.2s0.1-0.1,0.1-0.2c0,0,0,0,0-0.1c0,0,0-0.1,0.1-0.2c0,0,0-0.1,0-0.2
		v-0.6v-0.1c0,0,0,0-0.1-0.1S19,76,19,76h-0.1h-0.1c-0.1,0-0.2,0-0.2-0.1h-0.3c-0.1,0-0.1,0-0.1-0.1s-0.1-0.1-0.1-0.1s0,0,0-0.1
		v-0.1v-0.1v-0.1c0,0,0-0.1-0.1-0.1v-0.3c0,0,0,0,0-0.1v-0.1c0,0,0,0,0.1-0.1c0,0,0-0.1,0.1-0.1h0.1c0.1,0,0.1,0,0.1,0s0,0,0.1,0
		s0,0,0,0s0,0,0.1,0c0,0,0,0,0.1,0h0.7h0.1c0.1,0,0.1,0,0.1,0s0.1,0,0.1-0.1h0.6l0.1,0.1c0.1,0,0.1,0,0.1,0s0.1,0.1,0.2,0.2
		c0,0,0,0,0,0.1v0.1c0,0.1,0,0.1,0,0.1s0,0.1-0.1,0.1c0,0.1,0,0.2,0,0.2c0,0.1,0,0.2,0,0.2s0,0.1,0,0.2v1.1c0,0.1,0,0.2,0,0.2
		l-0.1,0.1c0,0.1,0,0.1-0.1,0.2c0,0,0,0,0,0.1v0.1c-0.1,0.3-0.2,0.5-0.2,0.5l-0.1,0.1c0,0.1-0.1,0.1-0.1,0.1
		C20,78.8,20,78.9,19.9,78.9z M21.4,74c-0.4,0-0.3-0.3-0.2-0.4c0-0.1,0.2-0.1,0.3-0.2c0,0.1,0.1,0.1,0.1,0.2
		C21.2,73.7,21.9,73.9,21.4,74z M21,72.4C21,72.4,20.9,72.4,21,72.4c-0.1,0.1-0.2,0-0.2,0s0,0,0.1-0.1C20.9,72.3,20.9,72.4,21,72.4z
		 M20.5,74.3c0,0.1,0,0.2-0.1,0.3c-0.1,0-0.2,0-0.3,0c0,0,0,0-0.1-0.1l0.1-0.1C20.3,74.4,20.4,74.4,20.5,74.3z M21.8,80.3
		c0.1-0.2,0.1-0.3,0.2-0.4c0,0,0.2,0,0.5,0.1C22.2,80.1,22,80.2,21.8,80.3z M22.5,73.9c0.1,0,0.1-0.1,0.2-0.1s0.1,0.1,0.2,0.1
		c-0.1,0-0.1,0-0.3,0.1C22.6,74,22.6,73.9,22.5,73.9z M22.8,81.2c0-0.1-0.1-0.2-0.1-0.3c0,0,0.1-0.1,0.2-0.1c0,0.1,0,0.2,0,0.3
		C22.9,81.1,22.8,81.1,22.8,81.2z M23.1,84.2H23C23,84.2,23.1,84.2,23.1,84.2C23.1,84.1,23.1,84.1,23.1,84.2L23.1,84.2z M24.4,83.1
		c0,0.2,0.1,0.4,0.1,0.5c-0.1-0.1-0.2-0.2-0.2-0.3C24.2,83.3,24.3,83.2,24.4,83.1z M24.6,83.8l-0.1-0.1l0.1-0.1
		C24.6,83.6,24.6,83.7,24.6,83.8L24.6,83.8z M24.5,68.3c0-0.1-0.1-0.1-0.1-0.2s0.1-0.1,0.1-0.2c0,0.1,0,0.1,0.1,0.3
		C24.7,68.2,24.6,68.3,24.5,68.3z M31.1,85.1C31.1,85.2,31.2,85.2,31.1,85.1c0.1,0.1,0,0.2,0,0.2L31,85.2
		C31.1,85.2,31.1,85.2,31.1,85.1z M30.3,71.6c0.2-0.2,0.4-0.3,0.6-0.5c0.3,0.6-0.3,0.7-0.4,1.1C30.4,71.9,30,71.8,30.3,71.6z
		 M29.4,68.7c0.1,0.2,0.1,0.4,0.2,0.5C29.3,69.3,29.2,69.1,29.4,68.7z M29.1,67.3l0.1,0.1l-0.1,0.1C29.1,67.4,29.1,67.4,29.1,67.3
		L29.1,67.3z M28.7,70.1C28.7,70.1,28.8,70.1,28.7,70.1c0.1,0.1,0,0.2,0,0.2s0,0-0.1-0.1C28.7,70.2,28.7,70.1,28.7,70.1z M28.6,66
		c0,0.3,0,0.5,0,0.8h-0.1c0-0.3,0-0.5-0.1-0.8C28.4,66,28.5,66,28.6,66z M28,68.2c0.1,0,0.3,0.3,0.4,0.5c-0.1,0-0.1,0.1-0.2,0.1
		c-0.4-0.1-0.8-0.2-1.2-0.3c0-0.1-0.1-0.2,0-0.2C27.3,67.9,27.7,68.1,28,68.2z M26.9,67.4c-0.1,0-0.2,0.1-0.3,0.1
		c0,0-0.1-0.1-0.2-0.2C26.6,67.3,26.7,67.3,26.9,67.4z M27.1,67.7c0,0-0.1,0.1-0.1,0.3c0-0.2-0.1-0.4-0.1-0.5
		C26.9,67.6,27,67.6,27.1,67.7z M26.7,68c-0.1,0.2-0.1,0.2-0.1,0.3c0-0.1-0.1-0.1-0.1-0.2c0,0,0-0.1,0.1-0.2
		C26.6,68,26.7,68,26.7,68z M25.7,73.4c0.1,0,0.8,0,0.9,0c0,0.1-0.1,0.2-0.1,0.2c-0.1,0-0.8,0-0.9-0.1
		C25.6,73.5,25.6,73.4,25.7,73.4z M25.7,76C25.7,76,25.7,76.1,25.7,76c0,0.1,0,0.1-0.1,0.1c0,0,0,0-0.1-0.1
		C25.6,76.1,25.7,76,25.7,76z M29.4,77.8c1,1.4,0.8,1.6,0.8,1.6c-0.1,0.1-0.2,0.1-0.2,0.1s-0.1,0-0.2,0s-0.1,0-0.1,0s-0.1,0-0.2,0
		s-0.1,0-0.2,0s-0.2,0-0.2-0.1c-0.2-0.1-0.3-0.3-0.3-0.4s-0.1-0.3-0.2-0.5l-0.1-0.3c0-0.1,0-0.2-0.1-0.4c0-0.3-0.1-0.4-0.1-0.4
		s0-0.1-0.1-0.1L28,77.2c0,0-0.1,0-0.2,0s-0.1,0-0.3,0.1c0,0-0.1,0-0.2,0s-0.2,0-0.2,0s0,0-0.1,0h-0.1c0,0,0,0-0.1,0l0,0
		c-0.1,0-0.1,0-0.1,0h-0.1c-0.1,0-0.1,0-0.1,0c-0.1,0-0.3,0.1-0.4,0.2s-0.2,0.2-0.2,0.4c-0.1,0.4-0.2,0.6-0.2,0.7c0,0,0,0.1-0.1,0.3
		c0,0.1-0.1,0.2-0.1,0.3c-0.1,0.1-0.2,0.2-0.3,0.2c-0.1,0-0.2,0-0.3,0h-0.4c-0.1,0-0.2,0-0.3-0.1c-0.1,0-0.1-0.1-0.1-0.2
		c0,0,0-0.2,0.1-0.5v-0.1c0-0.1,0-0.1,0-0.2s0-0.2,0.1-0.3c0,0,0-0.1,0-0.2s0-0.2,0.1-0.2v-0.1v-0.1c0,0,0,0,0-0.1v-0.1
		c0,0,0,0,0-0.1V77l0,0c0,0,0,0,0-0.1v-0.1c0,0,0,0,0-0.1c0-0.2,0.1-0.3,0.1-0.3l0,0c0,0,0-0.1,0-0.2c0,0,0,0,0-0.1s0-0.1,0-0.1
		s0,0,0-0.1v-0.1c0,0,0-0.2,0.1-0.4c0,0,0-0.1,0-0.2s0-0.1,0-0.1c0-0.1,0-0.1,0-0.2s0-0.2,0-0.2c0-0.1,0-0.1,0-0.2s0-0.2,0-0.2
		c0-0.1,0-0.2,0-0.2s0-0.1,0-0.2v-0.1v-0.1v-0.1c0,0,0-0.1,0-0.2c0,0,0-0.1,0-0.2s0-0.2,0-0.2c0-0.1,0.1-0.2,0.1-0.4
		c0.1-0.3,0.1-0.4,0.1-0.4c0.1-0.2,0.1-0.4,0.1-0.4l0,0c0,0,0-0.1,0-0.2s0-0.1,0-0.1v-0.1c0-0.1,0-0.1,0-0.2c0,0,0-0.1,0.1-0.2
		c0-0.1,0-0.2,0-0.3c0,0,0,0,0-0.1c0,0,0,0,0-0.1l0,0l0,0l0.1-0.3c0-0.1,0.1-0.2,0.2-0.2c0.1-0.1,0.2-0.1,0.2-0.1l0,0l0,0h0.2
		c0,0,0,0,0.1,0s0.1,0,0.1,0l0,0c0,0,0,0,0.1,0c0,0,0.7,0,0.8,0s0.2,0,0.2,0h0.2c0.2,0,0.3,0.1,0.4,0.2c0,0.1,0.1,0.1,0.1,0.2v0.1
		c0,0.1,0,0.1,0,0.1s0,0.1,0.1,0.2c0,0.1,0,0.2,0.1,0.2c0,0.1,0,0.2,0.1,0.4c0,0,0,0.1,0.1,0.3c0,0.1,0.1,0.2,0.1,0.3
		c0,0,0,0.1,0.1,0.4c0,0.1,0,0.2,0,0.2v0.1c0,0.1,0,0.1,0,0.1s0,0.1,0,0.2s0,0.1,0,0.2l0.1,0.3c0,0.1,0,0.2,0.1,0.3v0.1
		c0,0.1,0,0.1,0.1,0.2c0,0,0,0,0,0.1v0.1c0,0,0,0.1,0.1,0.4c0,0.1,0,0.2,0.1,0.3c0,0,0,0.1,0,0.2s0,0.2,0.1,0.2v0.1l0,0l0,0
		c0,0,0,0.2,0.1,0.5c0,0.1,0,0.3,0.1,0.5L29.4,77.8z M31.1,86c-0.1,0-0.2,0-0.3-0.1l0.1-0.1c0.1,0,0.2,0,0.3,0
		C31.2,85.9,31.1,86,31.1,86z M32.2,86c-0.1-0.2-0.5-0.3-0.2-0.7C32.1,85.5,32.5,85.6,32.2,86z M37.3,84.4c0-0.1-0.1-0.1-0.1-0.2
		c0,0,0-0.1,0.1-0.2c0.1,0,0.2,0.1,0.2,0.1C37.3,84.3,37.3,84.4,37.3,84.4z M38.7,81.6L38.7,81.6c-0.1-0.1-0.1-0.1,0-0.2
		C38.8,81.5,38.8,81.5,38.7,81.6C38.8,81.6,38.8,81.6,38.7,81.6z M40.3,71.6v0.8v0.2c0,0.1,0,0.1-0.1,0.2v0.1c0,0,0,0.1,0,0.2
		s0,0.1,0,0.2s0,0.1,0,0.2v0.1c0,0.1,0,0.1,0,0.2c0,0,0,0.1,0.1,0.1V74v1c0,0.1,0,0.1,0,0.2c0,0,0,0,0,0.1v1.2c0,0.1,0,0.2,0.1,0.2
		v0.2c0,0.1,0,0.2-0.1,0.2c0,0,0,0,0,0.1v0.1c0,0,0,0,0,0.1c0,0,0,0,0,0.1v1.8v0.1c0,0,0,0,0,0.1v0.1c0,0,0,0-0.1,0.1
		c0,0,0,0-0.1,0.1H40h-0.3c-0.1,0-0.1,0-0.1,0.1c0,0-0.1,0-0.2,0c0,0-0.1-0.1-0.2-0.1c-0.1,0-0.1-0.1-0.2-0.1
		c-0.1-0.1-0.1-0.2-0.1-0.2c0-0.1,0-0.2,0-0.2v-0.1c0,0-0.1,0-0.1-0.1V79v-0.1c0-0.1,0-0.2,0.1-0.2v-0.1v-0.2v-0.1v-0.1v-0.7
		c0-0.1,0-0.1,0.1-0.1v-0.1c0,0-0.1-0.1-0.1-0.2s0-0.2,0-0.2s0.1-0.1,0.1-0.3V76c0,0,0,0,0-0.1v-0.1c0,0,0-0.1,0-0.2s0-0.2,0.1-0.2
		c0,0,0,0,0-0.1L39,75.2v-0.3c0,0,0.1-0.1,0.1-0.3v-0.3c0,0,0,0-0.1-0.1c0,0,0,0-0.1,0l-0.1,0.2v0.1v0.1v0.1v0.1l-0.1,0.1
		c0,0.1,0,0.1,0,0.1v0.1v0.1v0.1c0,0,0,0.1-0.1,0.1l0,0l0,0c0,0,0,0.1,0,0.2s0,0.1,0,0.2c-0.1,0.1-0.1,0.1-0.1,0.2c0,0,0,0,0,0.1
		v0.1c0,0,0,0,0,0.1v0.1v0.1c0,0.1,0,0.1,0,0.1c-0.1,0-0.1,0.1-0.1,0.2v0.1V77c0,0,0,0,0,0.1s0,0.1,0,0.1s0,0,0,0.1l0,0h-0.1
		c-0.1,0-0.1,0-0.1,0s-0.1,0.1-0.1,0c-0.1,0-0.1,0-0.1,0s0-0.1-0.1,0c-0.1,0-0.1,0-0.1,0c-0.1,0-0.1,0-0.3,0c-0.1,0-0.2,0-0.3,0
		c0,0-0.1,0-0.2-0.1c0,0-0.1-0.1-0.1-0.2v-0.1c0,0,0,0,0-0.1v-0.1c0,0,0,0,0-0.1v-0.1l0,0l-0.1-0.1c0,0,0-0.1-0.1-0.1v-0.1
		c0,0,0,0,0-0.1s0-0.1,0-0.1s0,0,0-0.1v-0.1c0,0,0,0,0-0.1v-0.1c0,0,0,0,0-0.1v-0.1v-0.1v-0.1v-0.1V75c0,0,0,0,0-0.1v-0.1
		c0,0,0,0,0-0.1v-0.1c0,0,0-0.1-0.1-0.1l0,0l0,0l0,0v0.3V75c0,0.1,0,0.2-0.1,0.2v0.4l0.1,0.1v0.1v0.1v0.9c0,0.1,0,0.2-0.1,0.2v0.3
		c0,0,0.1,0.1,0.1,0.2v0.6v0.1c0,0.1,0,0.1,0,0.2s0,0.1-0.1,0.1v0.4c0,0.1,0,0.1-0.1,0.2c0,0-0.1,0-0.1,0.1c0,0-0.1,0.1-0.1,0h-0.1
		l0,0l0,0c0,0-0.1-0.1-0.2-0.1h-0.3c-0.1,0-0.1,0-0.2-0.1l-1.5,0.3l-0.1-0.1v-1.3c0-0.1,0-0.1,0.1-0.2v-0.1c0-0.7,0-1.3,0-1.7v-0.1
		c0-0.1,0-0.1,0-0.2c0,0,0-0.1,0-0.3V75c0,0,0,0,0-0.1v-0.1c0,0,0-0.1,0-0.2v-0.3v-0.2v-0.2v-0.1v-0.1c0,0,0-0.1,0-0.3v-0.2V73v-0.3
		c0-0.2,0-0.3,0.1-0.3c0-0.1,0-0.2,0-0.2s0-0.1,0-0.2c0-0.7,0-1.2,0-1.5c0,0,0-0.1,0.1-0.3c0-0.1,0.1-0.1,0.3-0.1h0.5
		c0.1,0,0.2,0,0.2,0s0,0,0.1,0c0,0,0.1,0,0.1,0.1h0.1l0.1,0.1l0.1,0.1l0,0v0.1v0.1v0.1v0.1c0,0,0,0.1,0.1,0.2l0,0v0.1
		c0,0.1,0,0.1,0,0.1v0.1c0,0.1,0,0.1,0,0.1l0.1,0.1c0,0.1,0,0.1,0,0.1v0.1c0,0.1,0,0.1,0,0.1v0.1V72c0,0,0,0,0,0.1s0,0.1,0,0.1
		s0,0.1,0.1,0.1v0.1c0,0.1,0,0.1,0,0.1s0,0,0,0.1v0.1c0,0,0,0,0,0.1v0.1c0,0,0,0,0,0.1s0.1,0.1,0.1,0.1s0,0,0,0.1l0,0l0.1,0.1
		c0,0.1,0,0.1,0,0.1v0.1c0,0,0,0,0,0.1c0,0,0,0,0,0.1v0.1c0,0,0,0.1,0.1,0.2c0,0.1,0.1,0.1,0.1,0.2v0.1c0,0,0,0,0,0.1c0,0,0,0,0,0.1
		l0,0c0,0,0,0,0.1,0c0.1-0.1,0.1-0.2,0.1-0.2l0,0l0,0c0-0.1,0.1-0.1,0.1-0.1s0,0,0-0.1V74l0,0c0,0,0,0,0-0.1l0,0
		c0-0.1,0.1-0.2,0.1-0.2l0.1-0.1c0-0.1,0-0.1,0-0.1s0-0.1,0.1-0.1c0-0.1,0-0.1,0-0.1s0,0,0-0.1c0,0,0-0.1,0.1-0.1V73v-0.1
		c0.1-0.1,0.1-0.1,0.1-0.2c0,0,0.1-0.1,0.1-0.2v-0.1v-0.1l0.1-0.1c0-0.1,0-0.1,0-0.1s0,0,0-0.1c0,0,0,0,0-0.1c0,0,0,0,0-0.1l0,0
		l0.1-0.1v-0.1v-0.1c0-0.1,0-0.1,0.1-0.1c0-0.1,0-0.2,0.1-0.2v-0.1V71c0,0,0,0,0-0.1v-0.1c0,0,0,0,0.1-0.1v-0.1l0,0l0,0l0,0
		c0,0,0,0,0-0.1v-0.1c0,0,0,0,0-0.1c0.1-0.1,0.1-0.1,0.3-0.2c0,0,0,0,0.1,0c0.3,0,0.6,0,0.8,0c0.1,0,0.1,0,0.1,0s0,0,0.1,0.1
		c0,0,0.1,0,0.1,0.1c0.1,0.1,0.1,0.1,0.1,0.2C40.3,70.7,40.3,71.1,40.3,71.6z M40.6,82.6L40.6,82.6c0.1,0,0.1,0.1,0.2,0.2h-0.1
		C40.7,82.7,40.7,82.6,40.6,82.6z M40.9,82.9L40.9,82.9v-0.2C40.9,82.8,41,82.8,40.9,82.9C41,82.9,41,82.9,40.9,82.9z M41.1,71.2
		c-0.1-0.1-0.1-0.3-0.2-0.4c-0.3-0.3-0.3-0.3,0-0.6c0.2,0.1,0.4,0.2,0.6,0.3C41.1,70.5,41.7,71.1,41.1,71.2z M42,71L42,71
		c-0.1-0.1-0.1-0.1,0-0.2C42,70.8,42.1,70.8,42,71C42.1,70.9,42,70.9,42,71z M47.5,74.9C47.5,74.9,47.4,74.9,47.5,74.9l-0.1,0.4
		c0,0.1,0,0.2-0.1,0.2c-0.1,0.1-0.2,0.1-0.2,0.1h-1.4h-0.1h-0.1h-0.1v0.1c0,0,0,0,0,0.1v0.1c0,0.4,0,0.8,0,1.2c0,0,0,0,0,0.1v0.1
		v0.1c0,0,0,0.1-0.1,0.1V78c0,0.1,0,0.1,0.1,0.2c0,0,0,0.1,0.1,0.1l0.1,0.1l0.1,0.1h1.4c0,0,0.1,0,0.2,0.1c0.1,0,0.1,0.1,0.2,0.3V79
		c0,0.1,0,0.2,0.1,0.2v0.2l0,0l0,0c0,0,0,0.1-0.1,0.2l0,0c0,0,0,0-0.1,0h-0.1c0,0,0,0-0.1,0h-0.1c0,0-0.1,0-0.2,0h-1.1
		c-0.1,0-0.2,0-0.2,0s0,0-0.1,0h-0.1c0,0,0,0-0.1,0h-0.2h-1c-0.1,0-0.1,0-0.2-0.1l0,0l0,0l0,0c0,0-0.1-0.1-0.1-0.2v-2.6v-1.9
		c-0.1-0.1-0.2-0.2-0.2-0.3c0.4-0.2-0.1-0.4,0-0.7c0-0.2-0.1-0.4-0.2-0.8c0.2,0.1,0.3,0.2,0.5,0.3v-0.2V73c0,0,0,0,0-0.1
		c0,0,0,0,0-0.1c0,0,0,0,0-0.1v-0.3v-0.1v-0.1c0,0,0,0,0-0.1V72v-1.7c0,0,0-0.1,0.1-0.1c0.1-0.1,0.2-0.2,0.4-0.2c0.6,0,1.5,0,2.7,0
		c0.1,0,0.1,0,0.1,0s0,0,0.1,0c0,0,0,0,0.1,0c0,0,0.1,0,0.1,0.1c0,0,0,0,0,0.1v0.7c0,0.1,0,0.1,0,0.1s0,0,0,0.1v0.1c0,0,0,0-0.1,0.1
		l-0.1,0.1h-0.4h-1.3c-0.1,0-0.1,0-0.2,0c0,0-0.1,0.1-0.1,0.2s-0.1,0.1-0.1,0.2c0,0.2,0,0.5,0,0.9s0,0.7,0,0.9c0,0.1,0,0.1,0,0.1
		s0,0,0,0.1v0.1l0.1,0.1l0.1,0.1h1.5h0.2c0,0,0,0,0.1,0l0,0c0.1,0,0.2,0.1,0.3,0.2c0,0.1,0.1,0.2,0.1,0.2s0,0,0,0.1
		C47.5,74.8,47.5,74.8,47.5,74.9C47.5,74.8,47.5,74.8,47.5,74.9z M46.3,71.9L46.3,71.9c0.1,0,0.1,0.1,0.2,0.2h-0.1
		C46.4,72,46.3,72,46.3,71.9z M46.6,72.2L46.6,72.2V72C46.6,72.1,46.6,72.1,46.6,72.2C46.7,72.2,46.6,72.2,46.6,72.2z M47,72.9
		C47,72.9,46.9,72.8,47,72.9C47,72.8,47,72.8,47,72.9c0.1-0.1,0.1-0.1,0.2,0C47.1,72.8,47,72.9,47,72.9z M63.2,72.3L63.2,72.3v0.2
		C63.1,72.4,63.1,72.4,63.2,72.3C63.1,72.3,63.1,72.3,63.2,72.3z M58.1,69.1c-0.1,0.3-0.1,0.4-0.2,0.5c0-0.1-0.1-0.2-0.1-0.3
		C57.8,69.3,57.9,69.3,58.1,69.1z M52.8,68.4c0.1,0.2,0.3,0.2,0.3,0.3c0,0.1-0.1,0.2-0.2,0.3c0,0-0.2-0.1-0.2-0.2
		C52.6,68.7,52.7,68.6,52.8,68.4z M50,84.9C50,84.9,50,84.8,50,84.9C50,84.8,50,84.8,50,84.9L50,84.9z M50.1,80.7
		c-0.1,0-0.2,0-0.3,0c0,0,0,0-0.1-0.1l0.1-0.1c0.1,0,0.2-0.1,0.3-0.1C50.2,80.5,50.2,80.7,50.1,80.7z M56.2,77.3L56.2,77.3
		L56.2,77.3L56.2,77.3v0.2c0,0.1,0,0.1,0,0.1s0,0.1,0,0.2v0.1c0,0.1-0.1,0.2-0.2,0.4l0,0c0,0,0,0,0,0.1l-0.1,0.1
		c0,0.1,0,0.1-0.1,0.1c-0.2,0.1-0.3,0.3-0.4,0.4c0,0-0.1,0-0.1,0.1c0,0-0.1,0-0.1,0.1c0,0-0.1,0.1-0.2,0.1c-0.1,0.1-0.2,0.1-0.2,0.1
		c-0.1,0.1-0.1,0.1-0.2,0.1h-0.1c-0.1,0-0.1,0-0.1,0s-0.1,0-0.3,0h-0.3h-0.6c-0.1,0-0.2,0-0.2,0s0,0-0.1,0s-0.1,0-0.1,0s0,0-0.1,0
		h-0.1l0,0c0,0,0,0-0.1,0h-0.1c0,0,0,0-0.1,0h-0.1l-0.1-0.1c-0.2-0.3-0.2-0.3-0.2-0.4c-0.2-0.2-0.3-0.3-0.3-0.3s0,0-0.1-0.1
		c0,0,0-0.1-0.1-0.1c0,0-0.1-0.1-0.1-0.2c0,0,0,0,0-0.1v-0.1c0,0,0,0,0-0.1c0,0-0.1-0.1-0.1-0.3c0,0,0-0.1-0.1-0.3
		c0-0.1,0.1-0.2,0.2-0.3c0.1-0.1,0.2-0.1,0.2-0.1c0.1,0,0.3,0,0.4,0c0,0,0.1,0,0.2,0c0.1,0,0.1,0,0.1,0l0,0l0.1,0.1
		c0.1,0,0.1,0.1,0.1,0.1l0.1,0.1c0.1,0.1,0.2,0.3,0.3,0.3s0.1,0.1,0.1,0.1c0.1,0,0.2,0,0.2,0.1h0.2h0.6h0.2c0,0,0,0,0-0.1
		c0,0,0,0,0.1,0h0.1c0,0,0.1,0,0.1-0.1c0,0,0.1,0,0.1-0.1l0.1-0.1l0.1-0.1l0.1-0.1c0-0.1,0-0.1,0.1-0.1V77c0-0.1,0-0.1,0-0.1
		s0,0,0-0.1l0,0v-0.4v-0.1v-0.1v-0.1c0,0,0,0,0-0.1c0,0,0,0,0-0.1c0,0-0.1-0.1-0.1-0.2c0,0-0.1-0.1-0.2-0.2c0,0,0,0-0.1-0.1
		l-0.1-0.1c0,0-0.1,0-0.1-0.1l-0.1-0.1c0,0-0.1,0-0.1-0.1S54,74.9,54,74.9c-0.1,0-0.2-0.1-0.2-0.1l-0.2-0.1
		c-0.2-0.1-0.3-0.2-0.4-0.2c-0.1-0.1-0.2-0.1-0.2-0.1s0,0-0.1,0c0,0-0.1,0-0.1-0.1c0,0,0,0-0.1-0.1h-0.1c0,0,0,0-0.1,0h-0.1
		c0,0-0.1-0.1-0.2-0.1c-0.1,0-0.1-0.1-0.2-0.1l-0.3-0.3l-0.1-0.1c0,0,0,0-0.1-0.1v-0.1c0,0,0,0,0-0.1c0,0,0-0.1-0.1-0.1v-0.1V73
		c0,0,0,0,0-0.1v-0.1c0,0,0-0.1-0.1-0.2c0-0.1-0.1-0.2-0.1-0.3v-0.1c0-0.1,0-0.1,0-0.1c0-0.1,0-0.2,0.1-0.3v-0.1
		c0-0.1,0-0.1-0.1-0.1l0,0l0,0v-0.1v-0.1c0-0.1,0-0.2,0.1-0.2c0.1-0.1,0.1-0.2,0.1-0.2s0,0,0.1-0.1s0-0.1,0-0.1l0.1-0.1
		c0-0.1,0-0.1,0.1-0.1c0,0,0.1,0,0.1-0.1l0.1-0.1c0-0.1,0.1-0.1,0.1-0.1c0.2-0.2,0.3-0.3,0.3-0.3c0.1,0,0.2-0.1,0.3-0.2l0,0h0.1h0.1
		c0,0,0.1,0,0.3-0.1h0.2c0.2,0,0.3,0,0.3,0h0.1h0.1h0.1c0,0,0,0,0.1,0c0,0,0,0,0.1,0h0.1c0.1,0,0.1,0,0.1,0c0.1,0,0.2,0,0.2,0.1
		c0,0,0,0,0.1,0s0.1,0,0.1,0.1c0,0,0,0,0.1,0h0.1c0,0,0,0,0,0.1H55c0,0,0,0,0.1,0s0.2,0.1,0.3,0.2c0,0,0.1,0,0.1,0.1
		c0,0,0.1,0,0.1,0.1c0,0,0,0.1,0.1,0.1c0,0,0,0,0.1,0.1c0,0,0,0,0.1,0.1l0,0l0,0c0,0,0,0.1,0.1,0.1l0.1,0.1c0,0.1,0.1,0.2,0.1,0.3
		c0,0,0,0,0,0.1v0.1l0,0l0,0c0,0,0,0,0,0.1s0,0.1,0,0.1s0,0,0,0.1s0,0.1,0,0.1v0.1V72c0,0,0,0.1-0.1,0.1c0,0-0.1,0-0.1,0.1h-0.1
		h-0.6h-0.1h-0.1c0,0,0,0-0.1-0.1s-0.1-0.1-0.1-0.2c0,0,0,0-0.1-0.1l-0.1-0.1c0-0.1,0-0.1-0.1-0.1c0,0-0.1,0-0.1-0.1l0,0
		c0,0.1,0,0.2,0.2,0.3c-0.5,0.3-0.9-0.1-1.3-0.3c0-0.1,0.1-0.1,0.1-0.2c-0.1,0-0.2,0-0.3,0h-0.1c-0.1,0-0.1,0-0.1,0s0,0-0.1,0
		c0,0,0,0,0,0.1c0,0,0,0-0.1,0c0,0,0,0-0.1,0c0,0,0,0-0.1,0.1l0,0l0,0l-0.1,0.1v0.1l0,0l0,0v0.1v0.5c0,0,0,0.1,0,0.2s0,0.1,0,0.1
		s0,0.1,0.1,0.1c0,0,0,0.1,0.1,0.1c0,0,0.1,0,0.1,0.1c0,0,0,0,0.1,0.1c0,0,0,0,0.1,0.1s0.2,0.1,0.2,0.1s0.1,0,0.1,0.1l0.1,0.1
		c0,0,0,0,0.1,0h0.1c0,0,0,0,0,0.1l0.2,0.1c0.1,0,0.1,0.1,0.3,0.1c0.1,0.1,0.2,0.1,0.3,0.1c0,0,0,0,0.1,0c0,0,0.1,0,0.1,0.1
		c0.1,0,0.1,0.1,0.2,0.1l0,0c0-0.2,0.1-0.5-0.3-0.7c1.2-0.1,1.2-0.1,1.7,0.5c-0.4,0.2-0.7,0.4-1.1,0.4c0.1,0,0.1,0.1,0.2,0.1
		c0.1,0.1,0.3,0.3,0.4,0.4c0.1,0.1,0.2,0.2,0.2,0.3c0,0,0,0.1,0.1,0.1s0.1,0.1,0.1,0.1s0.1,0.1,0.1,0.2v0.1c0,0.1,0,0.1,0,0.1
		c0.1,0.1,0.1,0.2,0.1,0.2s0,0,0.1,0.1V76v0.1c0,0.1,0.1,0.2,0.1,0.2v0.1v0.1v0.1v0.1C56.3,77.2,56.3,77.2,56.2,77.3L56.2,77.3z
		 M54.9,69.6c-0.1,0-0.2-0.1-0.2-0.1c0-0.1,0-0.2,0.1-0.3l0.1,0.1C55,69.4,55,69.5,54.9,69.6z M57.8,69.7c-0.1,0.2-0.2,0.4-0.4,0.7
		C57.4,70,57.2,69.6,57.8,69.7z M58,70.9c-0.1-0.1-0.2-0.3-0.3-0.6c0.3,0.1,0.5,0.2,0.8,0.3C58.4,70.7,58.2,70.8,58,70.9z
		 M60.4,72.5L60.4,72.5v-0.2C60.3,72.3,60.4,72.4,60.4,72.5C60.4,72.4,60.4,72.4,60.4,72.5z M63.2,77.9c-0.3,0-0.5,0-0.9,0
		C62.8,77.5,62.8,77.5,63.2,77.9C63.3,77.9,63.3,77.9,63.2,77.9z M64.2,67.2c-0.1,0-0.2,0-0.3-0.1c0-0.1,0-0.3,0-0.3
		c0.3-0.1,0.4-0.2,0.5-0.6C64.7,66.8,64.5,67.1,64.2,67.2z M64.7,74.4L64.7,74.4v-0.2C64.7,74.3,64.7,74.3,64.7,74.4
		C64.8,74.4,64.7,74.4,64.7,74.4z M64.9,66.6C64.9,66.6,64.8,66.5,64.9,66.6c-0.1-0.1,0-0.2,0-0.2S64.9,66.4,64.9,66.6L64.9,66.6z
		 M65.3,72.9c-0.1,0-0.2,0-0.3-0.1l0.1-0.1c0.1,0,0.2,0,0.3,0C65.4,72.8,65.4,72.9,65.3,72.9z M66.3,73.1c-0.4-0.1,0-0.4,0-0.7
		c0.1,0.2,0.2,0.4,0.3,0.6C66.4,73.1,66.3,73.2,66.3,73.1z M69.3,66.8C69.3,66.9,69.4,66.9,69.3,66.8c0,0.1,0,0.2,0,0.2V66.8
		C69.2,66.9,69.2,66.9,69.3,66.8z M67.9,73.1c0-0.1-0.1-0.2-0.1-0.3c0,0,0.1-0.1,0.2-0.1C68,72.8,68,72.9,67.9,73.1
		C68.1,73.1,68,73.1,67.9,73.1z M68.9,67.4L68.9,67.4L68.9,67.4C68.8,67.3,68.9,67.3,68.9,67.4C68.9,67.3,68.9,67.3,68.9,67.4z
		 M69.3,69c0,0-0.1-0.1-0.2-0.2c0.3,0.1,0.4,0.1,0.5,0.2C69.5,68.9,69.4,69,69.3,69z M69.9,69.4L69.9,69.4v-0.2
		C69.9,69.3,70,69.3,69.9,69.4C70,69.4,69.9,69.4,69.9,69.4z M70.3,67.9C70.3,67.9,70.3,67.8,70.3,67.9
		C70.3,67.8,70.3,67.8,70.3,67.9c0.1-0.1,0.1-0.1,0.2,0C70.4,67.8,70.4,67.9,70.3,67.9z M70.7,65.6c0.2-0.1,0.3-0.5,0.7-0.2
		C71.1,65.5,71.1,65.9,70.7,65.6z"/>
	<path class="st0" d="M18,76.5C18.1,76.5,18.1,76.5,18,76.5c0.1,0,0.1,0,0.1,0C18.2,76.4,18.1,76.4,18,76.5
		C18.1,76.4,18,76.4,18,76.5z"/>
	<path class="st0" d="M18.6,72.9C18.6,72.9,18.6,73,18.6,72.9c0.1,0.1,0.1,0,0.1,0S18.7,72.8,18.6,72.9L18.6,72.9z"/>
	<path class="st0" d="M39.3,76.8C39.3,76.9,39.3,76.9,39.3,76.8C39.4,76.9,39.4,76.9,39.3,76.8C39.5,76.8,39.4,76.8,39.3,76.8
		C39.4,76.8,39.3,76.8,39.3,76.8z"/>
	<path class="st0" d="M43.5,73.8L43.5,73.8L43.5,73.8C43.6,73.8,43.6,73.8,43.5,73.8C43.6,73.7,43.6,73.7,43.5,73.8
		C43.6,73.7,43.6,73.7,43.5,73.8C43.5,73.7,43.5,73.7,43.5,73.8C43.5,73.7,43.5,73.8,43.5,73.8L43.5,73.8z"/>
	<path class="st0" d="M43.7,74.9C43.7,75,43.7,75,43.7,74.9C43.8,75,43.8,75,43.7,74.9C43.8,74.9,43.8,74.9,43.7,74.9L43.7,74.9z"/>
	<path class="st0" d="M43.4,76.5L43.4,76.5C43.5,76.5,43.5,76.5,43.4,76.5C43.5,76.4,43.4,76.4,43.4,76.5
		C43.4,76.4,43.3,76.4,43.4,76.5z"/>
	<path class="st0" d="M39.1,76L39.1,76C39.1,76.1,39.1,76.1,39.1,76h0.2h-0.1C39.1,76,39.1,76,39.1,76z"/>
	<path class="st0" d="M39.1,72.5C39,72.5,39,72.4,39.1,72.5c-0.1-0.1-0.1-0.2-0.2-0.2l0,0c0,0.1,0,0.1,0,0.1S39,72.5,39.1,72.5
		c0.1,0,0.1,0.1,0.2,0.1s0,0,0,0c0.1-0.1,0.1-0.1,0.1-0.1v-0.1L39.1,72.5L39.1,72.5z"/>
	<path class="st0" d="M39.1,73.6L39.1,73.6C39.1,73.7,39.1,73.7,39.1,73.6L39.1,73.6C39.2,73.7,39.2,73.7,39.1,73.6L39.1,73.6
		C39.2,73.6,39.2,73.6,39.1,73.6z"/>
	<path class="st0" d="M39.2,72.9L39.2,72.9C39.1,72.8,39.1,72.8,39.2,72.9C39.1,72.9,39.1,73,39.2,72.9C39.2,73,39.2,73,39.2,72.9z"
		/>
	<path class="st0" d="M44.9,74.8L44.9,74.8L44.9,74.8C45,74.8,45,74.8,44.9,74.8L44.9,74.8C45,74.8,45,74.8,44.9,74.8L44.9,74.8z"/>
	<path class="st0" d="M43.8,74.2C43.7,74.2,43.7,74.2,43.8,74.2C43.7,74.3,43.7,74.3,43.8,74.2C43.7,74.3,43.7,74.3,43.8,74.2
		L43.8,74.2L43.8,74.2L43.8,74.2C43.8,74.3,43.8,74.3,43.8,74.2L43.8,74.2z"/>
	<path class="st0" d="M43.9,72.8C43.9,72.9,43.9,72.9,43.9,72.8L43.9,72.8c0.1,0.1,0.1,0.1,0.2,0.1l0,0v-0.1
		C44,72.8,43.9,72.8,43.9,72.8z"/>
</g>
<path class="st0" d="M69.2,40.2c2.4-3.5,3.5-6.9,4.8-13.8c1.3-7.5-2.8-14.9-4.8-16.3c-0.6-0.4-1.4-0.6-2.1-0.4
	c-1.8,0.4-3.3,2.6-3.5,3.1c0,0-2.2,3.7-6.6,5.2c-3.7,1.3-7.6-2.5-8.2-3.1C48,13.6,42,4.2,40.9,2.4C39.4,0.2,38.1,0,37.4,0h-0.5
	c-0.7-0.1-2,0.2-3.5,2.4c-1.2,1.8-7.1,11.2-7.9,12.5c-0.6,0.6-4.6,4.4-8.3,3.1c-4.4-1.6-6.6-5.2-6.6-5.2c-0.3-0.4-1.7-2.7-3.5-3.1
	c-0.8-0.2-1.5,0-2.1,0.4c-2,1.4-6.1,8.8-4.8,16.3c1.2,6.9,2.3,10.3,4.7,13.8L5,40.4c1.9,2.9,2,3-0.3,7.7l-0.2,0.5h64.9l-0.2-0.5
	c-2.3-4.7-2.2-4.9-0.3-7.7L69.2,40.2z M50.2,19c0.1,0.3-0.1,0.3-0.5,0.2C49.9,19.1,50.1,19.1,50.2,19z M49.4,17.2
	c0.1,0.1,0.1,0.1,0.2,0.2c-0.1,0.1-0.2,0.2-0.3,0.3c-0.1-0.1-0.2-0.1-0.2-0.2C49.2,17.3,49.4,17.2,49.4,17.2z M42.4,7.1L42.4,7.1
	c0,0.1-0.1,0.1-0.3,0.1c0-0.1,0-0.1,0-0.2C42.3,7.1,42.3,7.1,42.4,7.1z M41.6,6.6c-0.3,0.3-0.6,0.6-0.9,0.9
	c-0.1-0.3-0.2-0.6-0.3-0.8c0.2-0.2,0.4-0.4,0.7-0.6C41.3,6.3,41.4,6.4,41.6,6.6z M41,6c-0.4,0-0.8,0-1.3,0C40.7,5.4,40.9,5.4,41,6z
	 M40.4,6.7C40.3,6.7,40.3,6.7,40.4,6.7c-0.1,0-0.2-0.1-0.2-0.1h0.1C40.3,6.5,40.4,6.6,40.4,6.7z M15.8,19.4
	c-0.1-0.2-0.2-0.3-0.2-0.5C15.8,18.8,16.1,18.8,15.8,19.4z M4.5,15.1c0.1,0.2,0.1,0.3,0.2,0.4C4.5,15.7,4.4,15.5,4.5,15.1z
	 M2.8,26.1L2.8,26.1c-0.1-0.1-0.1-0.3-0.1-0.4h0.1C2.8,25.8,2.8,25.9,2.8,26.1z M3.7,33C3.7,32.9,3.7,32.9,3.7,33
	C3.7,32.9,3.7,32.9,3.7,33C3.7,32.9,3.7,33,3.7,33z M3.9,32.1L3.9,32.1v-0.2C3.9,32,3.9,32,3.9,32.1L3.9,32.1z M15,43.3
	c0.2-0.3,0.3-0.6,0.5-1c0.1,0.2,0.3,0.3,0.3,0.5C15.7,43.1,15.6,43.3,15,43.3z M17.6,42.7c-0.1-0.2-0.2-0.4-0.2-0.5
	C17.7,42.1,17.8,42.3,17.6,42.7z M18.3,38.5l-0.1-0.1c0.1,0,0.2-0.1,0.3-0.1c0,0,0.1,0.1,0.1,0.2C18.5,38.5,18.4,38.5,18.3,38.5z
	 M18.2,36.4C18.2,36.3,18.2,36.3,18.2,36.4c0.1,0,0.1,0,0.1,0.1c0,0,0,0-0.1,0.1C18.2,36.5,18.2,36.4,18.2,36.4z M20.6,43.9
	c-0.2,0.1-0.3-0.1-0.3-0.3c0-0.1,0.1-0.2,0.2-0.3c0.1,0.1,0.2,0.2,0.4,0.3C20.7,43.7,20.7,43.9,20.6,43.9z M22.2,34.3l-0.1-0.1
	l0.1-0.1C22.2,34.2,22.2,34.2,22.2,34.3C22.3,34.3,22.2,34.3,22.2,34.3z M23.5,36.4c-0.5-0.6-0.5-0.7,0-1
	C23.5,35.8,23.5,36,23.5,36.4z M22.9,33.8c0.4-0.2,0.5,0.1,0.7,0.3C23.2,34.3,23.1,33.9,22.9,33.8z M24.3,40.4L24.3,40.4
	c0-0.1,0-0.1,0.1-0.1l0.1,0.1C24.4,40.4,24.4,40.4,24.3,40.4z M25,45.2c-0.1-0.1-0.2-0.2-0.5-0.4c0.3,0,0.4,0,0.5,0s0.1,0.2,0.2,0.3
	C25.2,45.1,25.1,45.3,25,45.2z M25.4,35.2c0-0.1-0.1-0.2-0.1-0.3c0,0,0.1-0.1,0.2-0.1c0,0.1,0,0.2,0,0.3
	C25.5,35.1,25.5,35.1,25.4,35.2z M25.6,40.3c0.2,0.1,0.4,0.2,0.7,0.3C25.6,40.7,25.6,40.7,25.6,40.3z M26.4,41.7h-0.1
	c0-0.1,0-0.3,0-0.4h0.1C26.4,41.5,26.4,41.6,26.4,41.7z M26.3,40.4C26.3,40.4,26.2,40.4,26.3,40.4c-0.1-0.1,0-0.2,0-0.2l0.1,0.1
	C26.4,40.4,26.3,40.4,26.3,40.4z M26.4,40c0-0.1-0.1-0.1-0.1-0.2c0,0,0-0.1,0.1-0.2c0.1,0,0.2,0.1,0.2,0.1
	C26.4,39.9,26.4,39.9,26.4,40z M27,47.8l-0.1-0.1l0.1-0.1C27,47.7,27,47.7,27,47.8C27.1,47.8,27,47.8,27,47.8z M27.5,35.3
	c0,0.1-0.2,0.1-0.3,0.3c-0.1-0.2-0.2-0.3-0.3-0.4c0.1-0.1,0.2-0.1,0.3-0.2C27.4,35,27.6,35,27.5,35.3z M27.6,40
	C27.6,40,27.5,39.9,27.6,40c0-0.1,0-0.1,0.1-0.1c0,0,0,0,0.1,0.1C27.7,39.9,27.6,40,27.6,40z M28.9,39.8c0.4,0.1,0.6,0,0.8,0.1
	c0.2,0.1,0.2,0.4,0.4,0.7c-0.3,0-0.5,0.1-0.6,0C29.3,40.4,29.1,40.2,28.9,39.8z M29.5,40.9c0.5,0,0.6,0.2,0.6,0.6
	C29.9,41.3,29.7,41.1,29.5,40.9z M33.1,46.7L33.1,46.7v-0.2C33.1,46.6,33.1,46.6,33.1,46.7C33.2,46.7,33.1,46.7,33.1,46.7z
	 M39.8,44.8c0.1,0,0.3,0,0.3,0.1c0.1,0,0,0.2,0,0.3C40,45,39.9,44.9,39.8,44.8z M43.2,43.4c0.1-0.3,0.1-0.5,0.1-0.6s0.2,0,0.5-0.1
	C43.5,43,43.4,43.2,43.2,43.4z M44.2,44.8C44.1,44.7,44.1,44.7,44.2,44.8C44.2,44.7,44.2,44.7,44.2,44.8c0.1-0.1,0.1-0.1,0.2,0
	C44.3,44.7,44.2,44.7,44.2,44.8z M44.4,41.4c0,0,0.2,0,0.4,0c-0.2,0.3-0.3,0.6-0.4,0.8c0,0.1-0.1,0.2-0.2,0.3
	C43.9,42,44.3,41.7,44.4,41.4z M44.8,43.3c-0.1,0.2,0,0.6,0,1c-0.2-0.5-0.4-0.8-0.6-1.1c0.1-0.1,0.2-0.3,0.3-0.5
	C44.9,42.7,44.9,42.9,44.8,43.3z M45.8,42.4L45.8,42.4c-0.1-0.1-0.1-0.3-0.1-0.4h0.1C45.8,42.1,45.8,42.3,45.8,42.4z M50.1,34.4
	c-0.1,0.1-0.3,0.5-0.9,0.5l-4.4-0.6c-0.5-0.1-1,0-1.5,0.2L37.4,37c-0.2,0.1-0.4,0.1-0.7,0l-6-2.5c-0.4-0.1-0.7-0.2-1.1-0.2
	c-0.1,0-0.3,0-0.4,0l-4.4,0.6c-0.5,0.1-0.8-0.3-0.9-0.5c-0.1-0.1-0.2-0.6,0.2-0.9c2.4-2.3,4.4-4.8,6.3-7.1c0.2-0.2,0.4-0.3,0.6-0.3
	h1.9c-0.1-0.3,0.2-0.6,0.6-0.7c0.1,0.2,0.2,0.5,0.3,0.7H43c0.2,0,0.5,0.1,0.6,0.3c1.9,2.3,3.9,4.7,6.3,7.1
	C50.3,33.8,50.1,34.3,50.1,34.4z M31.7,25.5C31.7,25.5,31.7,25.4,31.7,25.5c0.1,0,0.1,0,0.1,0.1l-0.1,0.1
	C31.7,25.6,31.7,25.5,31.7,25.5z M55.1,45.2L55.1,45.2V45C55.1,45.1,55.2,45.1,55.1,45.2C55.2,45.2,55.2,45.2,55.1,45.2z M55.7,46.8
	C55.7,46.7,55.7,46.7,55.7,46.8c-0.1-0.1,0-0.2,0-0.2l0.1,0.1C55.8,46.7,55.8,46.7,55.7,46.8z M55.8,46.2c0,0,0-0.1-0.1-0.2
	c0.1,0,0.1-0.1,0.2-0.1c0.1,0,0.1,0.1,0.2,0.1C56,46.1,55.9,46.1,55.8,46.2z M59.4,44.7c0,0.2,0,0.3,0,0.5c-0.1,0-0.1,0-0.2,0
	c0-0.4,0-0.8,0-1.2l0.1-0.1c0,0.2,0,0.3,0,0.5c0.1-0.1,0.2-0.1,0.2-0.2C59.5,44.4,59.4,44.5,59.4,44.7z M66.3,46L66.3,46L66.3,46
	C66.2,45.9,66.3,45.9,66.3,46C66.3,45.9,66.3,46,66.3,46z M66.4,45.9c0-0.1-0.1-0.2-0.1-0.3c0,0,0.1-0.1,0.2-0.2
	C66.5,45.6,66.5,45.8,66.4,45.9z M66.7,38.6l-0.1,0.2c-0.6,0.8-1,1.6-1.4,2.2c-2.6-1-5-2.2-7.1-3.6c-2.2-1.4-4.3-3.1-6.4-5
	c-0.1-0.1-0.2-0.3-0.3-0.4c-2.3-2.3-4.3-4.7-6.2-7c-0.5-0.7-1.3-1-2.2-1H31.1c-0.8,0-1.6,0.4-2.2,1c-1.9,2.3-3.9,4.7-6.2,7
	c-0.2,0.2-0.4,0.5-0.5,0.7c-0.2,0.2-0.4,0.4-0.6,0.5l0,0c0,0.1,0,0.1-0.1,0.1c0,0,0,0-0.1-0.1c-1.7,1.5-3.5,2.8-5.3,4
	c-2.1,1.4-4.6,2.6-7.2,3.6c-0.3-0.7-0.8-1.4-1.4-2.3l-0.1-0.2c-2.1-3.2-3.1-6.1-4.3-12.7c-0.4-2.2-0.2-4.4,0.3-6.3l0,0
	c0,0,0-0.1,0.1-0.1c0.8-3.4,2.4-6.1,3.2-6.7c0.4,0.2,1.1,0.9,1.5,1.6c0.1,0.2,2.8,4.6,8.2,6.5c5.8,2.1,11.3-3.7,11.6-4l0.2-0.2
	c0.1-0.1,6.8-10.7,8-12.6c0.5-0.7,0.8-1,0.9-1h0.4c0.1,0.1,0.5,0.3,0.9,1c1.2,1.9,7.9,12.5,8,12.6l0.2,0.2c0.1,0.2,2.5,2.7,5.8,3.9
	l0.1-0.1c0,0,0.2,0.1,0.3,0.2c0,0,0,0-0.1,0c1.7,0.5,3.5,0.7,5.4,0c5.4-2,8.1-6.3,8.2-6.5c0.4-0.7,1.1-1.4,1.5-1.6
	c1.1,1,4.5,7,3.4,13.2c-1,5.5-1.8,8.5-3.4,11.2l0,0c0,0,0,0-0.1,0C67.3,37.6,67,38.1,66.7,38.6z M68.4,36.7c0-0.1-0.1-0.1-0.1-0.2
	c0-0.1,0.1-0.1,0.1-0.2c0,0.1,0,0.1,0.1,0.3L68.4,36.7z"/>
</svg>
