<?xml version="1.0" encoding="UTF-8"?><svg xmlns="http://www.w3.org/2000/svg" viewBox="0 0 23.84 21.55"><defs><style>.d{fill:#f6f6f6;}.e{fill:#3996d2;}</style></defs><g id="a"/><g id="b"><g id="c"><g><g><path class="e" d="M7.87,15.94c-1.2,0-2.43-.31-3.63-.93C1.15,13.43,.57,10.46,.5,8.82,.52,3.91,3.65,.5,8.12,.5c.19,0,.38,0,.58,.02,1.66,.11,2.99,.71,3.97,1.79,1.23,1.35,1.49,3.19,.66,4.68-.2,.36-.59,.75-1.02,.81h-.01c-.61,0-1.02-.61-1.1-.73-.56-.88-1.34-1.38-2.13-1.38-.14,0-.29,.02-.43,.05-.86,.19-1.48,.88-1.57,1.74-.1,.96,.32,1.71,1.17,2.07,.55,.23,1.13,.35,1.78,.35,.49,0,1.01-.06,1.61-.2,1.66-.37,2.93-.53,4.13-.53,1,0,1.92,.11,2.81,.35,2.1,.55,3.66,1.83,4.64,3.78,.12,.23,.11,.47,.1,.66,0,.05,0,.11,0,.16l.03,.55-.55-.02s-.32,.01-.39,.01c-.12,0-.31,0-.49-.09-1.84-.84-3.53-1.25-5.16-1.25-.38,0-.77,.02-1.15,.07-1.48,.18-2.61,.55-3.55,1.19-1.33,.9-2.74,1.36-4.2,1.36Z"/><path class="d" d="M8.12,1c.18,0,.36,0,.55,.02,1.39,.09,2.66,.56,3.63,1.62,1.08,1.19,1.32,2.78,.6,4.1-.13,.25-.41,.52-.66,.56h-.02c-.18,0-.46-.29-.59-.5-.66-1.03-1.58-1.62-2.55-1.62-.18,0-.36,.02-.54,.06-1.07,.24-1.84,1.1-1.96,2.18-.12,1.16,.41,2.13,1.47,2.58,.65,.28,1.31,.39,1.98,.39,.57,0,1.14-.08,1.72-.21,1.34-.3,2.68-.52,4.03-.52,.89,0,1.79,.1,2.68,.33,1.99,.52,3.41,1.71,4.32,3.52,.09,.17,.04,.42,.05,.63h-.05c-.12,0-.24,.01-.36,.01-.1,0-.2-.01-.28-.05-1.72-.79-3.5-1.3-5.37-1.3-.4,0-.8,.02-1.21,.07-1.34,.16-2.64,.51-3.77,1.27-1.27,.86-2.59,1.27-3.92,1.27-1.14,0-2.28-.3-3.41-.88-2.48-1.27-3.37-3.62-3.47-5.76,.02-4.71,3.07-7.8,7.12-7.8m0-1h0C3.44,0,.02,3.7,0,8.8c.08,1.79,.7,4.96,4.01,6.65,1.28,.66,2.58,.99,3.86,.99,1.56,0,3.06-.49,4.48-1.44,.87-.59,1.93-.94,3.33-1.11,.36-.04,.73-.06,1.09-.06,1.56,0,3.18,.4,4.95,1.21,.2,.09,.43,.14,.7,.14,.08,0,.16,0,.24,0,.04,0,.08,0,.12,0h1.07l-.02-1.06s0-.07,0-.11c0-.22,.02-.55-.15-.9-1.04-2.09-2.71-3.45-4.96-4.04-.94-.25-1.9-.37-2.94-.37-1.24,0-2.55,.17-4.24,.54-.56,.12-1.06,.19-1.51,.19-.58,0-1.1-.1-1.58-.31-.81-.35-.92-1.04-.86-1.56,.07-.66,.52-1.16,1.18-1.31,.11-.02,.21-.04,.32-.04,.62,0,1.24,.42,1.71,1.15,.14,.23,.68,.97,1.43,.97h.17c.64-.11,1.15-.65,1.38-1.08,.93-1.69,.64-3.75-.73-5.26C11.97,.8,10.52,.14,8.73,.02c-.21-.01-.41-.02-.61-.02h0Z"/></g><g><path class="e" d="M10.72,21.05c-.49,0-.99-.06-1.48-.17-1.27-.29-2.31-1.02-3.11-2.16-.16-.23-.33-.73-.11-1.09,.18-.29,.57-.4,.86-.4,.07,0,.14,0,.2,.02,.52,.1,1.03,.16,1.52,.16,1.4,0,2.69-.41,3.96-1.25,1.54-1.03,3.14-1.55,4.76-1.55,.24,0,.48,.01,.73,.04,1.65,.16,3.03,.86,4.09,2.08,.16,.18,.26,.38,.33,.51l.07,.12,.04,.22c0,.54-.21,.86-.38,1.04-.23,.23-.55,.36-.91,.36-.11,0-.23-.01-.35-.04-.7-.14-1.52-.29-2.33-.29-.62,0-1.17,.08-1.69,.26-.74,.24-1.52,.6-2.47,1.12-1.27,.7-2.48,1.04-3.71,1.04Z"/><path class="d" d="M17.31,15.1c.23,0,.45,.01,.68,.03,1.5,.14,2.77,.77,3.76,1.91,.16,.18,.25,.41,.32,.52,0,.58-.32,.89-.79,.89-.08,0-.17,0-.25-.03-.81-.17-1.62-.3-2.44-.3-.62,0-1.24,.08-1.85,.28-.88,.29-1.74,.71-2.56,1.16-1.11,.61-2.26,.98-3.47,.98-.45,0-.9-.05-1.36-.16-1.19-.27-2.12-.97-2.81-1.96-.1-.14-.17-.42-.1-.54,.06-.1,.26-.16,.43-.16,.04,0,.07,0,.1,0,.55,.11,1.09,.17,1.62,.17,1.49,0,2.89-.44,4.23-1.34,1.35-.9,2.85-1.46,4.48-1.46m0-1h0c-1.72,0-3.41,.55-5.04,1.63-1.18,.79-2.38,1.17-3.68,1.17-.46,0-.94-.05-1.43-.15-.09-.02-.19-.03-.29-.03-.43,0-1,.17-1.29,.64-.32,.53-.16,1.22,.13,1.63,.87,1.25,2.02,2.04,3.41,2.36,.53,.12,1.06,.18,1.59,.18,1.31,0,2.6-.36,3.95-1.1,.92-.51,1.68-.85,2.39-1.09,.47-.15,.97-.23,1.53-.23,.77,0,1.56,.14,2.23,.28,.15,.03,.31,.05,.46,.05,.49,0,.94-.18,1.27-.5,.24-.24,.53-.68,.53-1.39v-.28l-.14-.24-.03-.05c-.07-.14-.2-.38-.39-.61-1.15-1.32-2.64-2.07-4.42-2.24-.26-.02-.52-.04-.78-.04h0Z"/></g></g></g></g></svg>