<?xml version="1.0" encoding="UTF-8"?><svg xmlns="http://www.w3.org/2000/svg" viewBox="0 0 23.38 23.86"><defs><style>.d{fill:#f6f6f6;}.e{fill:#3c3c3b;}</style></defs><g id="a"/><g id="b"><g id="c"><g><g><path class="e" d="M11.48,23.36c-3.15,0-6.23-1.15-8.24-3.07-1.67-1.6-2.24-3.67-2.58-5.48-.33-1.77-.12-3.46,.62-5,.54-1.12,1.56-1.82,2.67-1.82,.07,0,.13,0,.2,0,1.41,.1,2.43,.96,2.71,2.3,.13,.62,.19,1.26,.24,1.87,.03,.35,.06,.7,.1,1.04,.25,1.98,.97,3.31,2.24,4.19,.86,.6,1.89,.86,3.34,.86,1.53,0,2.62-.29,3.5-.89,1-.68,1.55-1.54,1.69-2.63,.09-.7,.29-1.35,.58-1.88,1.33-2.5,.96-4.87-1.17-7.48-1.42-1.74-3.42-2.58-6.12-2.58h-.55c-.14,.01-.28,0-.42-.02-.22-.03-.4-.13-.54-.22-.04-.02-.08-.05-.13-.07l-.54-.26,.35-.48s.05-.08,.08-.13c.1-.17,.23-.41,.5-.52,.93-.4,1.88-.61,2.83-.61s1.92,.21,2.86,.62c4.15,1.82,6.54,4.97,7.08,9.36,.64,5.15-1.95,9.82-6.59,11.92-1.4,.63-3.03,.97-4.72,.97Z"/><path class="d" d="M12.85,1c.89,0,1.78,.19,2.66,.58,3.92,1.72,6.25,4.67,6.78,8.96,.61,4.9-1.89,9.41-6.3,11.4-1.38,.62-2.94,.92-4.51,.92-2.94,0-5.92-1.04-7.9-2.93-1.49-1.43-2.07-3.27-2.43-5.21-.3-1.62-.15-3.19,.58-4.69,.46-.95,1.3-1.54,2.22-1.54,.05,0,.11,0,.16,0,1.15,.08,2.01,.74,2.26,1.9,.2,.94,.21,1.91,.34,2.87,.23,1.83,.87,3.44,2.45,4.54,1.09,.76,2.34,.95,3.62,.95h.08c1.31,0,2.59-.22,3.7-.98,1.05-.72,1.73-1.67,1.91-2.97,.08-.58,.24-1.19,.52-1.71,1.6-2.99,.75-5.62-1.22-8.03-1.66-2.03-3.95-2.77-6.51-2.77h-.03c-.17,0-.35,.01-.52,.01-.12,0-.23,0-.35-.02-.18-.03-.34-.16-.51-.24,.12-.17,.21-.42,.37-.49,.87-.38,1.75-.56,2.63-.56m0-1c-1.02,0-2.04,.22-3.03,.65-.42,.18-.62,.53-.73,.73-.02,.03-.03,.06-.05,.08l-.66,.95,1.02,.53s.06,.03,.09,.05c.16,.09,.4,.24,.72,.28,.15,.02,.31,.03,.49,.03,.1,0,.19,0,.29,0,.08,0,.15,0,.23,0,2.57,0,4.45,.78,5.77,2.4,1.99,2.43,2.34,4.63,1.11,6.93-.31,.58-.53,1.29-.63,2.05-.13,.95-.6,1.68-1.48,2.28-.79,.54-1.79,.8-3.14,.81h-.08c-1.34,0-2.28-.24-3.05-.77-1.17-.81-1.79-2-2.03-3.85-.04-.34-.07-.68-.1-1.02-.05-.63-.11-1.28-.25-1.93-.33-1.56-1.52-2.57-3.17-2.69-.08,0-.16,0-.24,0-1.3,0-2.5,.81-3.12,2.1C.03,11.24-.19,13.03,.16,14.91c.35,1.89,.95,4.05,2.73,5.74,2.1,2.01,5.31,3.21,8.59,3.21,1.76,0,3.46-.35,4.92-1.01,4.84-2.18,7.54-7.06,6.88-12.43-.57-4.58-3.05-7.86-7.37-9.76-1-.44-2.03-.66-3.06-.66h0Z"/></g><g><path class="e" d="M6.74,4.65c-.7,0-1.17-.42-1.22-1.09-.03-.33,.09-.65,.32-.91,.28-.31,.7-.49,1.16-.5,.66,.01,1.1,.45,1.14,1.1,.02,.35-.11,.68-.35,.95-.26,.28-.63,.45-1.02,.45h-.03Z"/><path class="d" d="M7.02,2.64c.31,0,.6,.17,.62,.63,.03,.46-.39,.87-.88,.88h-.02c-.42,0-.69-.19-.72-.63-.03-.45,.39-.86,1-.87m0-1h-.02c-.6,.02-1.15,.26-1.52,.67-.32,.36-.48,.81-.45,1.28,.07,.93,.76,1.56,1.72,1.56,.55,0,1.06-.23,1.41-.61,.34-.37,.52-.84,.49-1.32-.05-.92-.7-1.56-1.6-1.58h-.02Z"/></g></g></g></g></svg>