<?xml version="1.0" encoding="utf-8"?>
<!-- Generator: Adobe Illustrator 25.0.0, SVG Export Plug-In . SVG Version: 6.00 Build 0)  -->
<svg version="1.1" id="Layer_1" xmlns="http://www.w3.org/2000/svg" xmlns:xlink="http://www.w3.org/1999/xlink" x="0px" y="0px"
	 viewBox="0 0 98.9 76.9" style="enable-background:new 0 0 98.9 76.9;" xml:space="preserve">
<style type="text/css">
	.st0{fill:#946138;}
	.st1{fill:#8B5E3C;}
	.st2{fill:#13100D;}
	.st3{fill:#FADDA1;}
	.st4{fill:#AB7157;}
	.st5{fill:#E2B473;}
	.st6{fill:#B1804D;}
</style>
<path class="st0" d="M93.6,33.4c1.5-0.3,3.1,0.2,4.6,0.2l0.1-0.2c-0.5-0.3-1-0.6-1.5-0.9l0-0.2c0.4-0.1,0.7-0.1,1.2-0.3
	c-0.8-0.7-2.1-0.6-2.3-1.7c0.1,0,0.3-0.1,0.5-0.2l0-0.2c-0.5-0.1-1-0.2-1.5-0.3c0-0.1,0-0.1,0-0.2c0.4,0,0.8,0,1.3,0
	c0.5,0,0.9-0.1,1-0.5c-0.8-1.4-2.3-2-3.9-2.4c1.4-0.1,2.5-0.1,3.6-0.1c0-0.1,0-0.2,0-0.3c-0.3,0-0.6-0.1-1-0.1
	c-0.9-0.1-1.7-0.4-2.3-1c-0.1-0.1-0.2-0.4-0.2-0.6c0.2-0.1,0.4-0.2,0.6-0.2c0.6,0,1.3,0.1,1.9,0.1c0.3,0,0.8-0.1,0.9-0.2
	c0.2-0.8,0.9-0.4,1.3-0.5c0.3-0.1,0.7-0.2,1-0.2c0-0.1,0-0.2-0.1-0.3c-2,0-3.9-0.1-5.9-0.2c-0.2-0.3-0.4-0.5-0.7-0.6
	c-0.7-0.2-1.4-0.4-2.1-0.6c-0.8-0.2-1.6-0.7-2.6-0.5c-0.3,0.1-0.6,0.3-0.9,0.4c-0.7,0.2-1.1,0-1.2-0.6c2.5-0.8,5-0.1,7.5,0.2
	c-0.1-0.5-0.1-0.9-0.2-1.3c1.6-0.5,3.2-0.9,4.7-1.4c0-0.1,0-0.1,0-0.2c-0.2,0-0.4-0.1-0.5-0.1c-0.4-0.1-0.7-0.1-0.8-0.6
	c-0.2-0.5-0.5-0.9-0.3-1.4c0-0.1-0.2-0.2-0.2-0.3C95.3,15.6,95,15.3,95,15c-0.1-0.8-0.1-1.6-0.2-2.4c-0.4-0.5-1.3-0.4-1.6-1.1
	c0,0-0.2-0.1-0.3-0.1c-0.5,0-1,0.1-1.5,0.2c-1.3,0.3-2.4,0-3.2-1.1c-0.7-1-1.6-1.1-2.8-0.8c-1.3,0.3-2.6,0.5-3.7-0.1
	c-0.4,0.1-0.8,0.4-1.1,0.3c-2.3-0.2-4.6-0.4-6.9-0.6c-0.1,0-0.1-0.1-0.3-0.2c2.1-0.2,4.1-0.3,6.1-0.5c0-0.1,0-0.1,0-0.2
	c-0.4-0.1-0.8-0.3-1.2-0.4c0.3-0.6,1.2-0.7,1.9-0.2c0.6,0.4,1.2,0.4,1.8,0.3c1-0.2,2-0.5,3.1-0.7c0.8-0.2,1.6-0.2,2.4-0.4
	C87.7,7,87.8,6.6,88,6.4c-0.2-0.1-0.4-0.3-0.6-0.3c-1.2,0-2.4,0.2-3.6,0.2c-0.7,0-1.4-0.1-2.1-0.2c-1.9-0.3-3.7-0.8-5.6-0.5
	C75.5,5.6,75,6,74.5,6.2c-1.2,0.5-2.5,0.3-3.7,0.2c-0.2,0-0.5-0.2-0.7-0.3l0-0.2L71.5,6l0-0.2c-0.9-0.6-1.8,0.2-2.7-0.1
	c0.2,0.2,0.3,0.4,0.5,0.7c-1.7,0.3-3.3,0-4.8-0.5c0,0.1,0,0.2,0,0.3c0.8,0.2,1.6,0.4,2.4,0.6c0,0.1,0,0.1,0,0.2
	c-0.4,0.1-0.9,0.3-1.3,0.4l0,0.2c0.3,0,0.6,0.1,0.9,0.1l0,0.1c-0.6,0-1.1,0-1.7,0.1C65.1,8,65.5,7.9,65.9,8c1.3,0.2,2.6,0.5,3.8,0.5
	c0.8,0,0.5,0.3,0.5,0.7c0.3,0.1,0.7,0.1,1,0.2l0,0.2c-1.9-0.3-3.8-0.5-5.6-0.8c0,0.1,0,0.1,0,0.2c1.6,0.4,3.3,0.8,4.9,1.3l-0.1,0.3
	C67.1,10,64,9.2,60.7,9l0,0.2c1.2,0.2,2.4,0.4,3.7,0.7c0,0.1,0,0.2,0,0.2c-0.4,0-0.9,0.1-1.3,0.1c-1.2,0-2.4-0.1-3.6-0.1
	c-1.7-0.1-3.4-0.1-5.1-0.2c-0.8,0-1.6-0.2-2.4-0.2l0,0c-0.1,0-0.1,0-0.2,0c-0.1,0-0.1,0-0.2,0l0,0c-1.7-0.1-3.4-0.1-5.1-0.2
	c-3.2-0.2-6.4-0.4-9.6-0.7c-0.9-0.1-1.9,0-2.8-0.3c-0.8-0.3-1.5-0.4-2.3-0.4c-2.3-0.2-4.6-0.5-6.8-0.7c-0.9-0.1-1.8-0.1-2.6,0.1
	c-1.1,0.2-2.1,0.7-3.3,0.5c-0.4-0.1-0.8,0.1-1.1,0.1l0,0.2c0.1,0.1,0.3,0.2,0.4,0.3l-0.1,0.2c-0.8-0.3-1.6-0.5-2.3-0.8
	c0,0.1-0.1,0.1-0.1,0.2c0.3,0.1,0.6,0.2,1,0.4c-0.1,0.4-0.3,0.7-0.4,1.1c0,0.3-0.1,0.7,0.4,1c0.5,0.3,0.9,0.7,1.4,1
	c0.1,0.1,0.3,0.1,0.5,0.2c-0.1-0.3-0.1-0.4-0.1-0.6c1.2-0.1,1.7,0.8,2.5,1.2c0.1,0,0.1,0.4,0,0.5c-0.2,0.2-0.5,0.3-0.8,0.4
	c-0.8,0.3-1.5,0.6-2.3,1c-0.4,0.2-0.8,0.5-1.3,0.3c-0.1,0-0.1,0-0.2,0l0.2,0.4c-0.3,0-0.5,0.1-0.7,0.1l0,0.2
	c0.9,0.4,1.8,0.7,2.7,1.1c-0.9,0.2-1.8,0.4-2.7,0.7l0,0.1l1.8,0.1l0,0.3C17.6,17.8,17.3,18,17,18c-0.7,0-1.3-0.2-1.9-0.5
	c-0.5-0.3-1.3,0.2-2,0.1c-1-0.1-2-0.3-3-0.6c-0.7-0.2-1.3-0.5-1.9-0.7l0,0.1c0.5,0.3,0.9,0.6,1.4,0.9c0,0.1-0.1,0.2-0.1,0.2
	c-1.1-0.2-2.2-0.5-3.3-0.7l-0.1,0.1c0.4,0.3,0.9,0.5,1.4,0.9l-0.6,0.2c0.5,0.2,0.9,0.3,1.4,0.5c-0.5,0.2-0.9,0.4-1.3,0.5
	c0.2,0.3,0.4,0.7,0.6,1.1c-0.7,0.7-1.8,0-2.9,0.6C6,20.8,7.4,20.5,7.8,22c-0.1,0.1-0.2,0.2-0.4,0.4c0.4,0.5,0.8,1,1.2,1.5
	c-1.2,0.2-2.3,0.4-3.4,0.7l0,0.3c0.3,0.1,0.6,0.2,0.9,0.2c1.3-0.1,2.5-0.1,3.7,0.4C9.6,26,9,25.9,8.5,25.8c-0.2,1.4-1.9,0.6-2.5,1.5
	c0.6,0.1,1.1,0.1,1.6,0.3c0.2,0,0.3,0.3,0.4,0.5c-0.2,0.1-0.3,0.2-0.5,0.3c-0.2,0.1-0.4,0.1-0.6,0.1c0,0.1-0.1,0.1-0.1,0.2
	c0,0,0.1,0.1,0,0.1c-0.4,1,0,1.7,1,2.1c0.3,0.1,0.4,0.5,0.7,0.9c-0.7,0.2-1.2,0.3-1.9,0.5c0.6,0.1,1.1,0.2,1.4,0.2
	c-0.3,0.4-0.5,0.8-0.8,1.1c-0.1,0.1-0.2,0.2-0.3,0.2c-0.4,0.2-0.7,0.3-1.1,0.5C5,34.7,5,35,5.6,35.6c-0.2,0.7,0,0.9,0.8,1.1
	c0.8,0.2,1.6,0.5,2.5,0.7l-0.1,0.3c-0.9,0-1.9,0-2.8,0.1c-1.4,0.1-2.6-0.2-3.5-1.4c-0.5,0.8,0.6,1,0.4,1.6C2.5,38,2,38.1,1.5,38.2
	c0.9,0.7,1.7,1.3,2.7,2c-1.2,0.1-2.3,0.1-3.3,0.2l0,0.2c1.5,0.9,3,1.8,4.5,2.7l-0.1,0.2c-1.5,0.3-3.1-0.2-4.6-0.2l-0.1,0.2
	c0.5,0.3,1,0.6,1.5,0.9l0,0.2c-0.4,0.1-0.7,0.1-1.2,0.3c0.8,0.7,2.1,0.6,2.3,1.7c-0.1,0-0.3,0.1-0.5,0.2l0,0.2
	c0.5,0.1,1,0.2,1.5,0.3c0,0.1,0,0.1,0,0.2c-0.4,0-0.8,0-1.3,0c-0.5,0-0.9,0.1-1,0.5c0.8,1.4,2.3,2,3.9,2.4c-1.4,0.1-2.5,0.1-3.6,0.1
	c0,0.1,0,0.2,0,0.3c0.3,0,0.6,0.1,1,0.1c0.9,0.1,1.7,0.4,2.3,1c0.1,0.1,0.2,0.4,0.2,0.6c-0.2,0.1-0.4,0.2-0.6,0.2
	c-0.6,0-1.3-0.1-1.9-0.1c-0.3,0-0.8,0.1-0.9,0.2c-0.2,0.8-0.9,0.4-1.3,0.5c-0.3,0.1-0.7,0.2-1,0.2c0,0.1,0,0.2,0.1,0.3
	C2,53.9,4,54,6,54c0.2,0.3,0.4,0.5,0.7,0.6c0.7,0.2,1.4,0.4,2.1,0.6c0.8,0.2,1.6,0.7,2.6,0.5c0.3-0.1,0.6-0.3,0.9-0.4
	c0.7-0.2,1.1,0,1.2,0.6C11,56.7,8.5,56,6,55.7c0.1,0.5,0.1,0.9,0.2,1.3c-1.6,0.5-3.2,0.9-4.7,1.4c0,0.1,0,0.1,0,0.2
	c0.2,0,0.4,0.1,0.5,0.1c0.4,0.1,0.7,0.1,0.8,0.6c0.2,0.5,0.5,0.9,0.3,1.4c0,0.1,0.2,0.2,0.2,0.3c0.2,0.3,0.5,0.5,0.5,0.8
	c0.1,0.8,0.1,1.6,0.2,2.4c0.4,0.5,1.3,0.4,1.6,1.1c0,0,0.2,0.1,0.3,0.1c0.5,0,1-0.1,1.5-0.2c1.3-0.3,2.4,0,3.2,1.1
	c0.7,1,1.6,1.1,2.8,0.8c1.3-0.3,2.6-0.5,3.7,0.1c0.4-0.1,0.8-0.4,1.1-0.3c2.3,0.2,4.6,0.4,6.9,0.6c0.1,0,0.1,0.1,0.3,0.2
	c-2.1,0.2-4.1,0.3-6.1,0.5c0,0.1,0,0.1,0,0.2c0.4,0.1,0.8,0.3,1.2,0.4c-0.3,0.6-1.2,0.7-1.9,0.2c-0.6-0.4-1.2-0.4-1.8-0.3
	c-1,0.2-2,0.5-3.1,0.7c-0.8,0.2-1.6,0.2-2.4,0.4c-0.2,0.1-0.4,0.5-0.6,0.7c0.2,0.1,0.4,0.3,0.6,0.3c1.2,0,2.4-0.2,3.6-0.2
	c0.7,0,1.4,0.1,2.1,0.2c1.9,0.3,3.7,0.8,5.6,0.5c0.6-0.1,1.1-0.4,1.7-0.7c1.2-0.5,2.5-0.3,3.7-0.2c0.2,0,0.5,0.2,0.7,0.3l0,0.2
	l-1.4-0.1l0,0.2c0.9,0.6,1.8-0.2,2.7,0.1c-0.2-0.2-0.3-0.4-0.5-0.7c1.7-0.3,3.3,0,4.8,0.5c0-0.1,0-0.2,0-0.3
	c-0.8-0.2-1.6-0.4-2.4-0.6c0-0.1,0-0.1,0-0.2c0.4-0.1,0.9-0.3,1.3-0.4l0-0.2c-0.3,0-0.6-0.1-0.9-0.1l0-0.1c0.6,0,1.1,0,1.7-0.1
	c-0.4-0.1-0.8-0.1-1.2-0.1c-1.3-0.2-2.6-0.5-3.8-0.5c-0.8,0-0.5-0.3-0.5-0.7c-0.3-0.1-0.7-0.1-1-0.2l0-0.2c1.9,0.3,3.8,0.5,5.6,0.8
	c0-0.1,0-0.1,0-0.2c-1.6-0.4-3.3-0.8-4.9-1.3l0.1-0.3c3.2,0.4,6.4,1.2,9.7,1.4l0-0.2c-1.2-0.2-2.4-0.4-3.7-0.7c0-0.1,0-0.2,0-0.2
	c0.4,0,0.9-0.1,1.3-0.1c1.2,0,2.4,0.1,3.6,0.1c1.7,0.1,3.4,0.1,5.1,0.2c0.8,0,1.6,0.2,2.4,0.2l0,0c0.1,0,0.1,0,0.2,0
	c0.1,0,0.1,0,0.2,0l0,0c1.7,0.1,3.4,0.1,5.1,0.2c3.2,0.2,6.4,0.4,9.6,0.7c0.9,0.1,1.9,0,2.8,0.3c0.8,0.3,1.5,0.4,2.3,0.4
	c2.3,0.2,4.6,0.5,6.8,0.7c0.9,0.1,1.8,0.1,2.6-0.1c1.1-0.2,2.1-0.7,3.3-0.5c0.4,0.1,0.8-0.1,1.1-0.1l0-0.2c-0.1-0.1-0.3-0.2-0.4-0.3
	l0.1-0.2c0.8,0.3,1.6,0.5,2.3,0.8c0-0.1,0.1-0.1,0.1-0.2c-0.3-0.1-0.6-0.2-1-0.4c0.1-0.4,0.3-0.7,0.4-1.1c0-0.3,0.1-0.7-0.4-1
	c-0.5-0.3-0.9-0.7-1.4-1c-0.1-0.1-0.3-0.1-0.5-0.2c0.1,0.3,0.1,0.4,0.1,0.6c-1.2,0.1-1.7-0.8-2.5-1.2c-0.1,0-0.1-0.4,0-0.5
	c0.2-0.2,0.5-0.3,0.8-0.4c0.8-0.3,1.5-0.6,2.3-1c0.4-0.2,0.8-0.5,1.3-0.3c0.1,0,0.1,0,0.2,0l-0.2-0.4c0.3,0,0.5-0.1,0.7-0.1l0-0.2
	c-0.9-0.4-1.8-0.7-2.7-1.1c0.9-0.2,1.8-0.4,2.7-0.7l0-0.1L81,59.4l0-0.3c0.3-0.1,0.6-0.2,0.9-0.2c0.7,0,1.3,0.2,1.9,0.5
	c0.5,0.3,1.3-0.2,2-0.1c1,0.1,2,0.3,3,0.6c0.7,0.2,1.3,0.5,1.9,0.7l0-0.1c-0.5-0.3-0.9-0.6-1.4-0.9c0-0.1,0.1-0.2,0.1-0.2
	c1.1,0.2,2.2,0.5,3.3,0.7l0.1-0.1c-0.4-0.3-0.9-0.5-1.4-0.9l0.6-0.2c-0.5-0.2-0.9-0.3-1.4-0.5c0.5-0.2,0.9-0.4,1.3-0.5
	c-0.2-0.3-0.4-0.7-0.6-1.1c0.7-0.7,1.8,0,2.9-0.6c-1.3-0.2-2.7,0.1-3.1-1.4c0.1-0.1,0.2-0.2,0.4-0.4c-0.4-0.5-0.8-1-1.2-1.5
	c1.2-0.2,2.3-0.4,3.4-0.7l0-0.3c-0.3-0.1-0.6-0.2-0.9-0.2c-1.3,0.1-2.5,0.1-3.7-0.4c0.2-0.8,0.8-0.6,1.4-0.6
	c0.2-1.4,1.9-0.6,2.5-1.5c-0.6-0.1-1.1-0.1-1.6-0.3c-0.2,0-0.3-0.3-0.4-0.5c0.2-0.1,0.3-0.2,0.5-0.3c0.2-0.1,0.4-0.1,0.6-0.1
	c0-0.1,0.1-0.1,0.1-0.2c0,0-0.1-0.1,0-0.1c0.4-1,0-1.7-1-2.1c-0.3-0.1-0.4-0.5-0.7-0.9c0.7-0.2,1.2-0.3,1.9-0.5
	c-0.6-0.1-1.1-0.2-1.4-0.2c0.3-0.4,0.5-0.8,0.8-1.1c0.1-0.1,0.2-0.2,0.3-0.2c0.4-0.2,0.7-0.3,1.1-0.5c0.8-0.4,0.9-0.7,0.2-1.3
	c0.2-0.7,0-0.9-0.8-1.1c-0.8-0.2-1.6-0.5-2.5-0.7l0.1-0.3c0.9,0,1.9,0,2.8-0.1c1.4-0.1,2.6,0.2,3.5,1.4c0.5-0.8-0.6-1-0.4-1.6
	c0.5-0.1,0.9-0.1,1.4-0.2c-0.9-0.7-1.7-1.3-2.7-2c1.2-0.1,2.3-0.1,3.3-0.2l0-0.2c-1.5-0.9-3-1.8-4.5-2.7L93.6,33.4z M75,6.4
	c0.2-0.1,0.4-0.2,0.7-0.2c1.5-0.1,3-0.1,4.6-0.1c0.6,0,1.1,0.3,1.7,0.4c0,0,0,0,0,0c0,0,0,0,0,0c0,0.1,0,0.2,0,0.3l0,0
	c-2.3-0.1-4.6-0.2-6.8-0.2L75,6.4C75,6.5,75,6.5,75,6.4L75,6.4z M74.4,7.8l0-0.3l0,0c0.3,0,0.6,0.1,1.1,0.1
	c-0.2-0.3-0.3-0.4-0.4-0.6c0,0,0,0,0,0c0,0,0,0,0,0C75.5,6.6,76,6.8,76.3,7c0.1,0,0.1,0.1,0.1,0.2c0.1,0.2,0.1,0.4,0.1,0.6
	c0,0.1,0,0.2,0,0.4c0,0,0,0,0,0c0,0,0,0,0,0C75.7,8,75,7.9,74.4,7.8L74.4,7.8C74.4,7.8,74.4,7.8,74.4,7.8z M21.2,9
	c-0.5-0.1-1-0.1-1.5-0.2c0.6-0.4,1.1-0.5,1.5,0L21.2,9z M9.2,53.5L9.2,53.5c-1,0-1.9,0.1-2.9,0.1c-0.2,0-0.4-0.3-0.5-0.4
	c0,0,0,0,0,0c0,0,0,0,0,0c0.2,0,0.4-0.1,0.6-0.1c0.3,0,0.7,0,1,0.1c0.1,0,0.2,0,0.3,0c0.3,0,0.7,0,1,0.1c0.2,0,0.3,0,0.5,0.1
	L9.2,53.5C9.2,53.5,9.2,53.5,9.2,53.5L9.2,53.5C9.2,53.5,9.2,53.5,9.2,53.5L9.2,53.5z M24,70.4c-0.2,0.1-0.4,0.2-0.7,0.2
	c-1.5,0.1-3,0.1-4.6,0.1c-0.6,0-1.1-0.3-1.7-0.4c0,0,0,0,0,0c0,0,0,0,0,0c0-0.1,0-0.2,0-0.3l0,0c2.3,0.1,4.6,0.2,6.8,0.2L24,70.4
	C24,70.4,24,70.4,24,70.4L24,70.4z M24.5,69.1l0,0.3l0,0c-0.3,0-0.6-0.1-1.1-0.1c0.2,0.3,0.3,0.4,0.4,0.6c0,0,0,0,0,0c0,0,0,0,0,0
	c-0.4,0.5-0.9,0.3-1.2,0.1c-0.1,0-0.1-0.1-0.1-0.2c-0.1-0.2-0.1-0.4-0.1-0.6c0-0.1,0-0.2,0-0.4c0,0,0,0,0,0c0,0,0,0,0,0
	C23.2,68.9,23.9,69,24.5,69.1L24.5,69.1C24.5,69.1,24.5,69.1,24.5,69.1z M28.4,69.3C28.4,69.3,28.4,69.3,28.4,69.3
	c0.1,0.1,0.2,0.1,0.3,0.2c0.4,0.1,0.9,0.2,1.4,0.3c-0.3,0.1-0.5,0.1-0.7,0.1c-0.1,0-0.2,0-0.3,0c-0.5,0-0.9-0.2-1.3-0.2
	c-0.1,0-0.2,0-0.3,0c-1,0-1.6-0.6-2.3-0.9c0.4,0,0.9-0.1,1.3-0.1c0,0,0.1,0,0.1,0c0.1,0,0.2,0,0.3,0C27.4,68.7,27.9,68.9,28.4,69.3z
	 M72.4,8.2c-0.1,0-0.2,0-0.3,0c-0.6-0.1-1.1-0.2-1.6-0.6c0,0,0,0,0,0c-0.1-0.1-0.2-0.1-0.3-0.2c-0.4-0.1-0.9-0.2-1.4-0.3
	C69,7,69.3,7,69.5,7c0.1,0,0.2,0,0.3,0c0.5,0,0.9,0.2,1.3,0.2c0.1,0,0.2,0,0.3,0c1,0,1.6,0.6,2.3,0.9c-0.4,0-0.9,0.1-1.3,0.1
	C72.5,8.2,72.5,8.2,72.4,8.2z M77.8,67.9c0.5,0.1,1,0.1,1.5,0.2c-0.6,0.4-1.1,0.5-1.5,0L77.8,67.9z M93.1,23.7
	c-0.2,0-0.4,0.1-0.6,0.1c-0.3,0-0.7,0-1-0.1c-0.1,0-0.2,0-0.3,0c-0.3,0-0.7,0-1-0.1c-0.2,0-0.3,0-0.5-0.1l0-0.2c0,0,0,0,0,0l0,0
	c0,0,0,0,0,0l0,0l0,0c1,0,1.9-0.1,2.9-0.1C92.8,23.3,93,23.6,93.1,23.7C93.1,23.7,93.1,23.7,93.1,23.7
	C93.1,23.7,93.1,23.7,93.1,23.7z"/>
<path class="st1" d="M87.3,67.6c-0.4,5.6-2.1,7.8-4.8,9.3c-7.7,0-15.3,0-23,0c-0.6-0.4-1.3-0.8-1.9-1.2c-3.2-2.1-4.7-5-4-8.8
	c0.3-1.4,0.1-2.6-0.3-3.9c-0.2-0.5-0.4-0.8-1-0.9c-2.1-0.4-4.3-0.6-6.4-0.2c-0.2,0-0.5,0-0.6,0.3c-0.4,1.5-1.3,2.8-0.9,4.4
	c1,3.4-0.4,7-3.4,9c-0.6,0.4-1.3,0.8-2,1.2c-7.5,0-15,0-22.5,0c-0.2-0.2-0.4-0.3-0.7-0.5c-4.2-2.4-5.5-7.7-2.8-11.7
	c1.1-1.6,1.8-3.4,2.5-5.2c0.2-0.5,0.2-0.8-0.2-1.2c-1.9-1.8-2.8-4.2-3.4-6.7c-0.1-0.6,0-1.2-0.5-1.6c0-1.6,0-3.2,0-4.8
	c0.2-0.1,0.2-0.2,0.2-0.4c1.5-8.3,6.9-13,14.6-15.4c0.9-0.3,1.4-0.6,1.8-1.5c2.2-4.9,4.1-9.8,6-14.8c0.2-0.5,0.4-0.9,0.1-1.5
	c-2.4-5.1,0.8-11.5,7.2-11.6C47.8,0,54.1-0.1,60.4,0.2c3.3,0.2,5.5,2,6.8,5c1.7,2.6-0.8,7.4,0,8.7L87.3,67.6z M72.2,34
	c-2.1-6.2-4.5-12.2-6.4-18.2c-0.1-0.3-0.2-0.7-0.3-1c-0.6-1.4-0.8-2.5,0-4.1c1.8-4-1.3-8.5-5.7-8.5c-6,0-12,0.1-18,0
	c-4.2-0.1-7.9,4.4-5.4,9.1c0.3,0.6,0.4,1.1,0.1,1.8c-2.2,5.7-4.5,11.4-6.9,17c-0.3,0.6-0.6,0.9-1.2,1c-3.5,0.8-6.7,2.3-9.4,4.7
	c-3,2.6-4.7,5.9-5.1,9.8c-0.4,3.4,0,6.7,1.8,9.7c0.6,0.9,1.3,1.8,2.1,2.4c0.5,0.3,0.6,0.6,0.3,1.2c-1.1,2.4-1.8,4.9-3.3,7.1
	c-2.4,3.4-0.6,8,3.4,9.2c0.9,0.3,1.8,0.5,2.7,0.5c3.7,0.1,7.3,0.1,11,0.1c2.1,0,4.3-0.2,6.4-0.9c3.6-1.3,5.4-4.7,4.2-8.3
	c-0.2-0.6-0.2-1.2,0-1.7c0.3-0.8,0.5-1.7,0.8-2.5c0.8-2.3,0.8-2.4,3.3-2.5c2.4-0.2,4.7-0.1,7,0.5c0.8,0.2,1.4,0.4,1.5,1.4
	c0,0.4,0.2,0.8,0.4,1.1c0.6,1.4,0.7,2.8,0.2,4.3c-0.7,2.1,0.1,4,1.6,5.6c1.8,1.8,4,2.7,6.5,2.9c4.7,0.3,9.3,0.4,14,0
	c1.9-0.2,3.8-0.3,5.4-1.6c2.3-2,2.7-4.6,1.4-8.1c0.1-0.1,0.1-0.1,0.2-0.2L72.2,34z"/>
<g>
	<path class="st2" d="M84.7,65.2c-0.1-0.1-0.2-0.1-0.3-0.2c0,0,0-0.1,0-0.1c0,0,0,0-0.1,0c0,0,0.1,0.1,0.1,0.1
		c0,0.1,0.1,0.2,0.1,0.4c1.3,3.5,0.8,6.1-1.4,8.1c-1.5,1.4-3.5,1.5-5.4,1.6c-4.7,0.4-9.3,0.3-14,0c-2.5-0.1-4.7-1.1-6.5-2.9
		c-1.5-1.6-2.3-3.5-1.6-5.6c0.5-1.6,0.3-2.9-0.2-4.3c-0.1-0.4-0.3-0.7-0.4-1.1c-0.1-0.9-0.7-1.2-1.5-1.4c-2.3-0.6-4.7-0.6-7-0.5
		c-2.5,0.2-2.5,0.2-3.3,2.5c-0.3,0.8-0.5,1.7-0.8,2.5c-0.2,0.6-0.2,1.1,0,1.7c1.2,3.6-0.6,7-4.2,8.3c-2.1,0.7-4.2,0.9-6.4,0.9
		c-3.7,0-7.3-0.1-11-0.1c-0.9,0-1.8-0.2-2.7-0.5c-4-1.2-5.8-5.9-3.4-9.2c1.6-2.2,2.3-4.7,3.3-7.1c0.2-0.6,0.1-0.8-0.3-1.2
		c-0.9-0.6-1.6-1.4-2.1-2.4c-1.8-3-2.2-6.3-1.8-9.7c0.4-3.9,2.2-7.2,5.1-9.8c2.7-2.4,5.8-4,9.4-4.7c0.6-0.1,0.9-0.4,1.2-1
		c2.5-5.6,4.8-11.3,6.9-17c0.2-0.7,0.2-1.1-0.1-1.8c-2.5-4.8,1.2-9.2,5.4-9.1c6,0.2,12,0,18,0c4.4,0,7.5,4.5,5.7,8.5
		c-0.7,1.6-0.6,2.7,0,4.1c0.1,0.3,0.2,0.7,0.3,1c1.9,6.1,4.3,12,6.4,18.2 M55.5,44.2c-0.3,0-0.6,0-0.8,0c-5.6-1.1-11.2-1.6-16.8-0.7
		c-2.6,0.4-5.2,0.8-7.5,1.9c-0.7,0.3-0.9,1-1.2,1.6c-0.7,1.7-1.4,3.4-2.2,5.1c-2.4,5.5-3.9,11.5-7,16.7c0.2,0,0.5,0.1,0.8,0.1
		c0.1,0.1,0.3,0.2,0.4,0.2c3.7,0.2,7.4,0.3,11.2,0.1c1.3-0.1,2.7,0,4-0.6c0.6-0.3,0.8-0.5,0-0.8c-0.2-0.6-0.5-1.2-0.5-1.9
		c0.8-3.4,2-6.8,3.2-10.1c0.3-0.8,0.7-1.3,1.6-1.5c6.1-1.8,12.1-1.5,18,0.7c0.8,0.3,1.3,0.9,1.6,1.8c0.8,2.6,1.6,5.1,2.5,7.7
		c0.1,1.1,0,2.1-0.8,2.9c-0.3,0.3-0.2,0.5,0.2,0.7c0.5,0.6,1.2,0.9,2,0.9c3.2,0.2,6.5,0.3,9.7,0.2c1.7-0.1,3.4-0.2,5.1-0.4
		c0.2,0,0.5,0,0.6-0.3c0-0.3-0.2-0.5-0.6-0.5c-0.8-1.1-1.4-2.4-1.9-3.7c-0.6-1.8-1.3-3.6-1.9-5.4c-1.7-4.6-3.3-9.1-5-13.7
		c-1.7-4.9-3.2-9.8-5-14.6c-2.2-6.1-4.3-12.2-6.3-18.4C58.1,11,58,9.6,59.2,8.5c0.2-0.2,0.7-0.4,0.5-0.7c-0.2-0.4-0.6-0.2-1-0.2
		c-5.5,0-10.9,0-16.4,0c-0.2,0-0.6-0.1-0.9,0.3c2.5,1.2,2,3,1.2,5.1c-2.7,7-5.6,13.9-8.4,20.8c-0.6,1.4-1.6,2-3,2.3
		c-0.5,0.1-1.1,0.1-1.6,0.3c-3.3,0.8-6.2,2.3-8.2,5.2c-2,2.6-2.3,7.4-0.6,10.1c0.8,1.2,1.8,0.8,2.9,0.7c0.9-0.2,1.5-0.7,1.6-1.7
		c0.1-3.1,2.1-4.8,4.6-5.9c2.7-1.2,5.6-1.4,8.5-1.7c0.9-0.1,1.8-0.7,2.8-0.4c1.3,0.3,1.7,0,2.1-1.2c1.7-5,3.3-9.9,5-14.9
		c0.2-0.6,0.3-1.3,0.8-1.9c0.3,0.2,0.3,0.4,0.4,0.7c1.4,4.5,2.9,8.9,4.3,13.4C54.3,40.5,55.3,42.2,55.5,44.2z"/>
	<path class="st3" d="M21.4,41.5c2-2.9,4.9-4.4,8.2-5.2c0.5-0.1,1.1-0.2,1.6-0.3c1.4-0.2,2.4-0.9,3-2.3C37.1,26.9,40,20,42.7,13
		c0.8-2.1,1.3-3.9-1.2-5.1c0.3-0.4,0.6-0.3,0.9-0.3c5.5,0,10.9,0,16.4,0c0.3,0,0.8-0.2,1,0.2c0.1,0.3-0.3,0.5-0.5,0.7
		c-1.2,1.1-1.1,2.5-0.7,3.9c2,6.2,4.1,12.3,6.3,18.4c1.8,4.8,3.3,9.7,5,14.6c-0.4,0-0.7,0-0.8-0.5c0-0.3-0.2-0.7-0.6-0.6
		c-1.4,0.4-2.8,0.2-4.2,0.2c-2.1,0-4.2,1-6.3,0.2c-3.1-9.1-5.5-18.4-9.1-27.5c-3.4,8-6.1,16.1-8.4,24.3c-0.2,0.7-0.4,0.9-1.1,0.8
		c-0.9-0.2-1.9-0.3-2.8-0.4c-3.6-0.6-6.9,0-9.8,2.6C25,46,24.1,47.9,23.4,50c-0.1,0.3-0.1,0.6-0.5,0.6c-0.3,0-0.4-0.2-0.5-0.4
		c-0.9-2.3-1.6-4.7-1-7.2C21.5,42.5,21.4,42,21.4,41.5z"/>
	<path class="st4" d="M62.5,64.6c-0.8-2.6-1.7-5.1-2.5-7.7c-0.3-0.9-0.7-1.5-1.6-1.8c-5.9-2.2-11.9-2.5-18-0.7
		c-0.8,0.3-1.3,0.7-1.6,1.5c-1.2,3.3-2.3,6.7-3.2,10.1c-0.3-0.3-0.4-0.7-0.5-1.2c0-0.6-0.4-0.9-0.9-0.7c-0.7,0.4-1.7,0.4-2,1.4
		c0,0,0,0.1,0.1,0.1c1.4,0.6,2.1,2.3,3.9,2.2c0.7,0.3,0.6,0.5,0,0.8c-1.3,0.6-2.6,0.5-4,0.6c-3.7,0.1-7.4,0-11.2-0.1
		c-0.1,0-0.3-0.1-0.4-0.2c0.4-0.9,1.4-1.1,2.1-1.6c1.9-1.2,3.3-2.7,4-4.9c0.6-1.9,1.3-3.9,2.2-5.7c1-2.1,2-4.2,3.6-5.9
		c0.7-0.8,1.6-1.3,2.6-0.4c0.8,0.7,1.5,0.7,2.4,0.4c4.5-1.4,9.1-2,13.8-1.7c5,0.4,9.8,1.2,13.8,4.6c2.2,1.8,4.2,3.8,5.7,6.2
		c1.1,1.8,1.8,4,3.3,5.5c1.3,1.2,2.5,2.7,4.5,2.6c0.3,0,0.6,0.1,0.6,0.5c0,0.3-0.3,0.3-0.6,0.3c-1.7,0.1-3.4,0.3-5.1,0.4
		c-3.3,0.1-6.5,0-9.7-0.2c-0.8,0-1.5-0.3-2-0.9c1-0.5,2-0.9,3-1.5c0.4-0.3,1.2-0.4,1.1-1.1c-0.1-0.6-0.7-0.8-1.2-1
		C64,64.4,63.2,63.6,62.5,64.6z"/>
	<path class="st5" d="M78.7,68.2c-2,0.1-3.2-1.4-4.5-2.6c-1.6-1.5-2.2-3.7-3.3-5.5c-1.5-2.5-3.5-4.4-5.7-6.2
		c-4-3.3-8.8-4.2-13.8-4.6c-4.7-0.3-9.3,0.2-13.8,1.7c-0.9,0.3-1.7,0.3-2.4-0.4c-1-0.9-1.9-0.4-2.6,0.4c-1.6,1.7-2.7,3.8-3.6,5.9
		c-0.9,1.8-1.6,3.7-2.2,5.7c-0.6,2.2-2.1,3.7-4,4.9c-0.8,0.5-1.7,0.7-2.1,1.6c-0.3,0-0.5-0.1-0.8-0.1c3.2-5.2,4.7-11.1,7-16.7
		c0.7-1.7,1.4-3.4,2.2-5.1c0.3-0.6,0.5-1.3,1.2-1.6c0.3,0.4,0.7,0.2,1.1,0.1c3.9-1.2,7.9-1.5,12-1.7c3.7-0.2,7.4,0.1,11,1.1
		c0.6,0.2,1.2,0.3,1.7-0.2c0.6,0,1.3,0.6,1.9,0c2.1,0.8,4.2-0.1,6.3-0.2c1.4,0,2.8,0.1,4.2-0.2c0.3-0.1,0.5,0.3,0.6,0.6
		c0,0.5,0.4,0.5,0.8,0.5c1.7,4.6,3.3,9.1,5,13.7c0.6,1.8,1.3,3.6,1.9,5.4C77.2,65.8,77.9,67,78.7,68.2z"/>
	<path class="st4" d="M57.9,44.7c-0.6,0.6-1.3,0-1.9,0c-0.2-0.2-0.4-0.3-0.6-0.5c-0.2-2-1.1-3.7-1.7-5.6c-1.4-4.5-2.9-8.9-4.3-13.4
		c-0.1-0.2-0.1-0.5-0.4-0.7c-0.5,0.5-0.6,1.2-0.8,1.9c-1.7,5-3.3,9.9-5,14.9c-0.4,1.3-0.8,1.5-2.1,1.2c-1-0.2-1.9,0.3-2.8,0.4
		c-2.9,0.3-5.8,0.5-8.5,1.7c-2.5,1.2-4.5,2.8-4.6,5.9c0,1-0.6,1.5-1.6,1.7c-1,0.2-2.1,0.6-2.9-0.7c-1.7-2.7-1.4-7.6,0.6-10.1
		c0,0.5,0.1,1,0,1.4c-0.6,2.5,0.1,4.9,1,7.2c0.1,0.2,0.2,0.5,0.5,0.4c0.3,0,0.4-0.4,0.5-0.6c0.7-2.1,1.6-4,3.4-5.6
		c2.9-2.5,6.2-3.1,9.8-2.6c0.9,0.2,1.9,0.3,2.8,0.4c0.7,0.1,0.9-0.1,1.1-0.8c2.3-8.2,5.1-16.3,8.4-24.3
		C52.4,26.3,54.8,35.6,57.9,44.7z"/>
	<path class="st3" d="M55.5,44.2c0.2,0.2,0.4,0.3,0.6,0.5c-0.5,0.5-1.1,0.3-1.7,0.2c-3.6-1-7.3-1.2-11-1.1c-4,0.2-8.1,0.5-12,1.7
		c-0.4,0.1-0.8,0.3-1.1-0.1c2.4-1.2,5-1.5,7.5-1.9c5.6-0.9,11.2-0.4,16.8,0.7C54.9,44.2,55.2,44.2,55.5,44.2z"/>
	<path class="st5" d="M62.5,64.6c0.7-1,1.5-0.2,2.2,0c0.5,0.2,1.2,0.4,1.2,1c0.1,0.7-0.6,0.9-1.1,1.1c-1,0.5-2,1-3,1.5
		c-0.4-0.1-0.5-0.4-0.2-0.7C62.5,66.7,62.6,65.7,62.5,64.6z"/>
	<path class="st5" d="M36.3,67.9c-1.8,0.1-2.6-1.6-3.9-2.2c0,0-0.1-0.1-0.1-0.1c0.3-1,1.3-1,2-1.4c0.5-0.3,0.9,0,0.9,0.7
		c0,0.4,0.1,0.9,0.5,1.2C35.7,66.7,36.1,67.3,36.3,67.9z"/>
	<path class="st6" d="M84.4,65c0,0-0.1-0.1-0.1-0.1C84.3,65,84.4,64.9,84.4,65C84.4,65,84.4,65,84.4,65L84.4,65z"/>
	<path class="st6" d="M84.4,65.1c0.1,0.1,0.2,0.1,0.3,0.2c-0.1,0.1-0.1,0.1-0.2,0.2C84.5,65.3,84.5,65.2,84.4,65.1
		C84.4,65,84.4,65.1,84.4,65.1z"/>
</g>
</svg>
