<?xml version="1.0" encoding="utf-8"?>
<!-- Generator: Adobe Illustrator 25.0.0, SVG Export Plug-In . SVG Version: 6.00 Build 0)  -->
<svg version="1.1" id="Layer_1" xmlns="http://www.w3.org/2000/svg" xmlns:xlink="http://www.w3.org/1999/xlink" x="0px" y="0px"
	 viewBox="0 0 65.9 65.9" style="enable-background:new 0 0 65.9 65.9;" xml:space="preserve">
<style type="text/css">
	.st0{fill:#FFFFFF;}
	.st1{fill:#0078A5;}
</style>
<path class="st0" d="M54.5,65.9H11.4C5.1,65.9,0,60.8,0,54.5V11.4C0,5.1,5.1,0,11.4,0h43.1c6.3,0,11.4,5.1,11.4,11.4v43.1
	C65.9,60.8,60.8,65.9,54.5,65.9z"/>
<g>
	<path class="st0" d="M40.5,61.8c-2.1-0.1-3.9-0.8-5.3-2.2c-1.4-1.5-2.1-3.3-2.2-5.4V11.7c0.1-2.2,0.8-4,2.2-5.4
		c1.5-1.4,3.3-2.1,5.4-2.2c0,0,0,0,0,0c2,0,3.8,0.6,5.2,1.9c1.1,1.1,1.9,2.3,2.3,3.8c1.4,0.6,2.5,1.4,3.4,2.5
		c1.2,1.5,1.9,3.3,1.9,5.3c0,0.2,0,0.5,0,0.7c1.3,0.6,2.4,1.4,3.2,2.5c1.2,1.5,1.9,3.3,1.9,5.3c0,1.3-0.3,2.5-0.8,3.7
		c1,0.7,1.9,1.7,2.6,2.7c1.1,1.6,1.6,3.4,1.6,5.5c0,2.2-0.6,4.2-1.8,5.9c-1,1.3-2.1,2.3-3.4,3c0.1,0.4,0.1,0.9,0.1,1.3
		c-0.1,2.4-0.9,4.4-2.5,6c-1.6,1.6-3.6,2.4-5.9,2.5c0,0-0.3,0-0.5,0c-0.4,1.2-1.1,2.3-2,3.2C44.3,61.2,42.6,61.8,40.5,61.8
		L40.5,61.8z M25.3,61.8c-2,0-3.7-0.6-5.2-1.9c-1-0.9-1.7-2-2.1-3.2c-0.1,0-0.3,0-0.4,0c-2.4-0.1-4.4-0.9-6-2.5
		c-1.6-1.6-2.4-3.6-2.5-5.9c0-0.5,0-0.9,0.1-1.4c-1.3-0.7-2.4-1.7-3.4-3c-1.2-1.7-1.8-3.7-1.8-5.9c0-2,0.6-3.9,1.7-5.5
		c0.7-1.1,1.5-2,2.6-2.7c-0.6-1.1-0.8-2.4-0.8-3.7c0-2,0.6-3.8,1.9-5.3c0.9-1.1,2-1.9,3.2-2.5c0-0.2,0-0.5,0-0.7
		c0-2,0.6-3.8,1.9-5.3c0.9-1.1,2.1-2,3.4-2.5C18.3,8.3,19,7.1,20.1,6c1.5-1.3,3.2-1.9,5.2-1.9c2.2,0.1,4,0.8,5.4,2.2
		c1.4,1.5,2.1,3.3,2.2,5.4v42.5c-0.1,2.2-0.8,4-2.2,5.4C29.3,61,27.5,61.7,25.3,61.8L25.3,61.8L25.3,61.8z"/>
	<path class="st1" d="M40.6,5.8c1.6,0,2.9,0.5,4,1.5c1.1,1,1.7,2.3,1.9,3.8c1.5,0.4,2.7,1.2,3.6,2.3c1,1.2,1.5,2.6,1.5,4.2
		c0,0.6-0.1,1.2-0.2,1.8c1.6,0.4,2.8,1.2,3.8,2.4c1,1.2,1.5,2.6,1.5,4.2c0,1.6-0.5,3-1.5,4.2c1.5,0.7,2.7,1.7,3.5,3.1
		c0.9,1.3,1.4,2.9,1.4,4.6c0,1.8-0.5,3.5-1.5,4.9c-1.1,1.4-2.4,2.4-4,3.1c0.3,0.7,0.4,1.5,0.4,2.2c-0.1,1.9-0.7,3.5-2,4.8
		c-1.3,1.3-2.9,1.9-4.8,2c-0.6,0-1.1-0.1-1.7-0.2c-0.2,1.6-0.8,2.8-1.9,3.8c-1.1,1-2.5,1.5-4,1.5c-1.7-0.1-3.1-0.6-4.2-1.7
		c-1.1-1.1-1.6-2.5-1.7-4.2V11.7c0.1-1.7,0.6-3.1,1.7-4.2C37.5,6.4,38.9,5.9,40.6,5.8 M25.3,5.8c1.7,0.1,3.1,0.6,4.2,1.7
		c1.1,1.1,1.6,2.5,1.7,4.2v42.4c-0.1,1.7-0.6,3.1-1.7,4.2c-1.1,1.1-2.5,1.6-4.2,1.7c-1.6,0-2.9-0.5-4-1.5c-1.1-1-1.7-2.3-1.9-3.8
		C18.8,55,18.3,55,17.7,55c-1.9-0.1-3.5-0.7-4.8-2c-1.3-1.3-1.9-2.9-2-4.8c0-0.8,0.1-1.5,0.4-2.2c-1.6-0.6-3-1.7-4-3.1
		c-1-1.4-1.5-3-1.5-4.9c0-1.7,0.5-3.2,1.4-4.6c0.8-1.3,2-2.4,3.5-3.1c-1-1.3-1.5-2.7-1.5-4.2c0-1.6,0.5-3,1.5-4.2s2.3-2,3.8-2.4
		c-0.1-0.6-0.2-1.2-0.2-1.8c0-1.6,0.5-3,1.5-4.2c0.9-1.1,2.1-1.9,3.6-2.3c0.2-1.6,0.8-2.8,1.9-3.8C22.4,6.3,23.8,5.8,25.3,5.8
		 M40.6,2.4L40.6,2.4l-0.1,0c-2.5,0.1-4.7,1-6.4,2.6c-0.4,0.4-0.8,0.9-1.1,1.3c-0.3-0.4-0.6-0.8-0.9-1.2c-1.9-1.8-4.1-2.7-6.6-2.8
		l-0.1,0h-0.1c-2.4,0-4.5,0.8-6.3,2.3c-1.2,1.1-2,2.4-2.6,3.9c-1.3,0.7-2.4,1.6-3.4,2.7c-1.4,1.7-2.2,3.8-2.2,6
		c-1.1,0.6-2,1.4-2.8,2.4c-1.5,1.8-2.3,4-2.3,6.4c0,1.1,0.2,2.1,0.5,3.1c-0.8,0.7-1.4,1.5-2,2.4c-1.2,1.8-1.9,4-1.9,6.4
		c0,2.5,0.7,4.8,2.1,6.8c0.9,1.2,1.9,2.1,3,2.9c0,0.1,0,0.3,0,0.4c0.1,2.9,1.1,5.3,3,7.2c1.8,1.8,3.9,2.7,6.4,3c0.5,1,1.2,1.9,2,2.7
		c1.8,1.6,4,2.4,6.3,2.4c2.7-0.1,4.8-1,6.6-2.6c0.4-0.4,0.8-0.9,1.1-1.3c0.3,0.4,0.6,0.8,0.9,1.2c1.9,1.8,4.1,2.7,6.6,2.8
		c0,0,0,0,0,0c2.5,0,4.7-0.8,6.4-2.3c0.9-0.8,1.6-1.8,2.1-2.8c2.6-0.2,4.7-1.2,6.4-3c1.9-1.9,2.9-4.3,3-7.1c0-0.2,0-0.4,0-0.6
		c1.1-0.8,2.1-1.7,2.9-2.8c1.5-2.1,2.2-4.4,2.2-6.9c0-2.4-0.7-4.6-2-6.5c-0.5-0.8-1.2-1.6-1.9-2.3c0.3-1,0.5-2,0.5-3.1
		c0-2.4-0.8-4.6-2.3-6.4c-0.8-1-1.8-1.8-2.8-2.4c-0.1-2.3-0.8-4.3-2.3-6.1c-0.9-1.1-2-2-3.4-2.7c-0.5-1.5-1.3-2.7-2.5-3.8
		C45.1,3.2,43,2.4,40.6,2.4L40.6,2.4z"/>
</g>
<g>
	<path class="st1" d="M32.9,48.9c-3.4-0.1-6.2-1.3-8.5-3.6c-2.3-2.2-3.5-5.1-3.5-8.5c0-1.9,0.6-3.9,1.8-6.3c1-2.2,2.2-4.3,3.6-6.5
		c1.3-2.1,2.5-3.9,3.5-5.3c0.9-1.1,2-1.7,3.2-1.7c1.3,0,2.4,0.6,3.2,1.6c1,1.5,2.2,3.2,3.5,5.4c1.3,2.1,2.6,4.3,3.6,6.5
		c1.2,2.4,1.7,4.5,1.8,6.2c-0.1,3.5-1.3,6.4-3.6,8.7c-2.2,2.3-5.1,3.5-8.4,3.5H32.9L32.9,48.9z"/>
	<path class="st0" d="M33,19.3c0.6,0,1,0.2,1.4,0.7c1,1.4,2.1,3.1,3.4,5.2s2.5,4.2,3.5,6.3c1,2.1,1.5,3.9,1.6,5.3
		c-0.1,2.8-1,5.2-2.9,7c-1.8,1.9-4.1,2.8-6.9,2.9c-2.8-0.1-5.1-1-6.9-2.9c-1.9-1.8-2.8-4.1-2.9-7c0-1.4,0.6-3.2,1.6-5.3
		c1-2.1,2.2-4.2,3.5-6.3c1.3-2.1,2.4-3.8,3.4-5.2C31.9,19.5,32.4,19.3,33,19.3 M33,43.1c0.6,0,0.9-0.3,0.9-0.9
		c0-0.6-0.3-0.9-0.9-0.9c-1.3,0-2.3-0.5-3.2-1.3c-0.8-0.8-1.2-1.9-1.3-3.2c0-0.5-0.3-0.8-0.9-0.9c-0.6,0.1-0.9,0.4-0.9,0.9
		c0,1.8,0.7,3.3,1.8,4.5C29.7,42.4,31.2,43,33,43.1 M33,14.8c-2,0-3.7,0.9-5,2.5c-1.1,1.6-2.3,3.4-3.7,5.6c-1.4,2.2-2.6,4.5-3.7,6.7
		c-1.3,2.7-2,5.1-2,7.1l0,0.1l0,0.1c0.1,4,1.5,7.4,4.3,10.1c2.6,2.7,6,4.1,10,4.2l0.1,0l0.1,0c4-0.1,7.4-1.5,10-4.3
		c2.7-2.6,4.1-6,4.2-10l0-0.1l0-0.1c-0.1-2.1-0.7-4.4-2-7.1c-1.1-2.2-2.3-4.5-3.7-6.7c-1.3-2.1-2.5-4-3.5-5.4
		C36.7,15.7,34.9,14.8,33,14.8L33,14.8z"/>
</g>
</svg>
